<svg xmlns="http://www.w3.org/2000/svg" width="600" height="600"><path fill="#F16222" d="M219 68c7.41.804 13.03 9.938 17.375 15.313l2.242 2.8c2.53 3.065 5.175 5.98 7.883 8.887 4.29 4.61 8.304 9.378 12.254 14.285 2.334 2.822 4.766 5.52 7.246 8.215a217 217 0 0 1 9.438 10.938c3.658 4.535 7.51 8.819 11.476 13.081 3.78 4.088 7.283 8.361 10.774 12.7 2.512 3.021 5.136 5.905 7.812 8.781 4.27 4.588 8.258 9.334 12.188 14.219 2.512 3.021 5.136 5.905 7.812 8.781 4.27 4.588 8.258 9.334 12.188 14.219 2.954 3.553 6.081 6.921 9.228 10.303a186 186 0 0 1 8.522 9.916c3.365 4.184 6.894 8.145 10.562 12.062 4.461 4.764 8.642 9.671 12.73 14.762 2.891 3.487 5.957 6.797 9.04 10.113 3.882 4.196 7.576 8.53 11.247 12.912 3.445 4.103 7 8.089 10.604 12.053 3.374 3.773 6.648 7.629 9.93 11.481a431 431 0 0 0 9.137 10.366 226 226 0 0 1 8.687 10.188c3.635 4.494 7.46 8.768 11.394 12.999 3.882 4.196 7.576 8.53 11.246 12.91A325 325 0 0 0 468.5 350c3.58 3.95 7.094 7.952 10.563 12l1.484 1.71C484 367.769 484 367.769 484 370h2c-.428 7.27-3.297 9.544-8.48 14.254-8.656 7.382-17.932 13.64-27.52 19.746l-1.901 1.214C422.187 421.614 394.113 433.581 365 443l-3.054.991C319.46 457.596 275.372 464.403 231 468l-4.41.398c-6.405.507-12.788.643-19.211.657l-2.06.005c-6.773.012-13.546-.017-20.319-.06a861 861 0 0 1 2.199-32.538c.651-7.588 1.236-15.18 1.801-22.774.545-7.289 1.167-14.552 2-21.813 1.147-10.018 1.679-20.08 2.215-30.145.36-6.355.854-12.619 1.754-18.921 1.337-9.463 1.908-18.965 2.531-28.497.757-11.464 1.612-22.897 2.797-34.326.703-6.82 1.214-13.642 1.64-20.486a1831 1831 0 0 1 2.563-33.812l.196-2.331q.476-5.633.956-11.264a11094 11094 0 0 0 2.61-31.251c.953-11.54 1.893-23.066 2.394-34.635.214-3.405.736-6.715 1.278-10.082 1.658-11.238 2.021-22.604 2.629-33.937q.28-5.194.57-10.387.18-3.21.348-6.424l.162-2.896.136-2.557C216 78 216 78 217 77c.206-1.328.366-2.663.5-4 .389-3.889.389-3.889 1.5-5"/><path fill="#FEFEFE" d="M338.996 263.172c12.169 10.446 20.873 25.772 22.172 41.921.948 18.245-3.441 35.372-15.543 49.47-11.82 12.062-27.362 19.285-44.274 19.791-17.61.156-34.475-5.5-47.242-18.01-13.202-14.67-18.286-31.833-17.264-51.273C237.96 290.186 245.978 274.92 257 265c24.178-19.939 56.917-20.008 81.996-1.828"/></svg>