<svg xmlns="http://www.w3.org/2000/svg" width="600" height="600"><path fill="#F26323" d="M220 68c4.732 3.442 8.244 7.566 12 12q2.934 3.44 5.875 6.875l1.574 1.843a456 456 0 0 0 9.238 10.47 232 232 0 0 1 8.75 10.25c3.862 4.775 7.94 9.299 12.098 13.816 2.392 2.665 4.658 5.394 6.902 8.183 3.66 4.537 7.512 8.822 11.479 13.084a186 186 0 0 1 8.522 9.917c3.365 4.184 6.894 8.145 10.562 12.062 4.459 4.76 8.638 9.665 12.723 14.754 2.495 3.01 5.115 5.885 7.777 8.746 4.27 4.588 8.258 9.334 12.188 14.219 2.512 3.021 5.136 5.905 7.812 8.781 4.27 4.588 8.258 9.334 12.188 14.219 2.954 3.553 6.081 6.921 9.228 10.303a186 186 0 0 1 8.522 9.916c3.843 4.778 7.932 9.254 12.12 13.726 3.902 4.19 7.515 8.558 11.098 13.024 2.676 3.21 5.488 6.262 8.344 9.312 4.48 4.783 8.685 9.708 12.79 14.82 2.32 2.813 4.74 5.498 7.21 8.18a212 212 0 0 1 9.375 10.875c3.867 4.796 7.974 9.294 12.18 13.786 3.924 4.213 7.564 8.603 11.168 13.093 2.93 3.534 6.042 6.885 9.172 10.242 3.993 4.31 7.68 8.812 11.328 13.422 1.61 2.161 1.61 2.161 3.777 3.082-.422 4.929-2.439 6.713-6 10-71.32 59.31-176.52 86.108-294 88-.21-5.823-.043-11.359.941-17.11 1.219-7.265 1.57-14.476 1.893-21.823.547-12.234 1.405-24.306 3.058-36.446 1.42-10.97 1.89-21.995 2.374-33.039.333-7.282.937-14.337 2.264-21.518.862-5.615 1.038-11.288 1.304-16.956.601-12.63 1.614-25.13 3.13-37.686A242 242 0 0 0 202.5 264c.263-7.98.98-15.823 1.938-23.75 1.452-12.056 2.247-24.09 2.827-36.214.325-6.53.803-12.97 1.731-19.45 1.3-9.132 1.684-18.27 2.108-27.476.678-14.383.678-14.383 1.86-21.055 1.852-10.976 2.018-22.206 2.599-33.305q.28-5.31.57-10.62.18-3.288.348-6.574l.162-2.967.136-2.62C217 78 217 78 218 77c.206-1.328.366-2.663.5-4 .389-3.889.389-3.889 1.5-5"/><path fill="#FEFDFD" d="M338.75 265.313c4.541 3.69 7.948 7.878 11.25 12.687l1.625 2.305c8.89 13.558 10.572 29.746 7.68 45.476C354.77 341.783 344.838 354.814 331 364c-15.366 8.33-33.192 11.334-50.25 6.313-6.589-2.43-12.904-5.416-18.75-9.313v-2l-2.062-.5c-10.211-5.214-16.647-19.217-20.438-29.625-4.354-15.918-2.142-32.83 5.75-47.187 4.314-6.916 8.76-14.006 16.75-16.688v-2c25.65-14.753 52.079-15.69 76.75 2.313"/><path fill="#F9D4CE" d="m262 263 2 1-2 1zm-2 2 2 1-12 12c0-3.719.874-4.361 3.313-7.062l1.863-2.098C257 267 257 267 260 265"/></svg>