<svg xmlns="http://www.w3.org/2000/svg" width="600" height="600"><path fill="#F26424" d="M233 107c2.94.33 3.937.933 6.008 3.117l2.117 2.758c3.165 4.016 6.402 7.871 9.875 11.625 4.164 4.526 8.088 9.197 11.957 13.977 4.388 6.018 4.388 6.018 10.043 10.523l1 3a138 138 0 0 0 3.36 3.371c5.348 5.31 10.232 11.073 14.952 16.941 4.064 5.044 8.4 9.776 12.879 14.449C309 190.788 309 190.788 309 193h2c1.333 1.467 2.59 3.003 3.813 4.563a436 436 0 0 0 11.875 14.187l1.618 1.858 1.58 1.814 1.545 1.78a458 458 0 0 0 3.298 3.737l1.666 1.89c.5.56 1 1.121 1.514 1.7C339 226 339 226 339 228l1.656.61c3.29 1.952 5.44 4.725 7.844 7.64l3.188 3.793 1.648 1.974c2.692 3.207 5.43 6.374 8.164 9.546 2.624 3.045 5.225 6.093 7.734 9.234 1.68 2.193 1.68 2.193 3.516 3.89C374 266 374 266 374 268l1.656.61c3.29 1.952 5.44 4.725 7.844 7.64l3.203 3.813 1.65 1.976c2.1 2.501 4.234 4.972 6.37 7.443 3.996 4.626 7.925 9.282 11.714 14.08 2.677 3.385 5.471 6.422 8.563 9.438 4.642 4.98 9.102 10.076 13.375 15.375 4.155 5.136 8.557 9.988 13.047 14.828 2.756 2.99 5.43 6.037 8.07 9.129 1.672 1.914 1.672 1.914 4.508 4.293 2 2.375 2 2.375 2.313 5.25C451.548 373.219 433.515 382.202 423 388l-4.215 2.41c-12.09 6.824-24.462 12.79-37.15 18.418q-2.519 1.12-5.024 2.27c-5.113 2.337-10.255 4.207-15.611 5.902l-5.715 1.867C322.813 429.375 322.813 429.375 308 432l-3.066.605c-39.301 7.674-39.301 7.674-56.254 8.254-3.258.125-6.468.373-9.715.653-7.102.562-14.158.601-21.278.55l-3.724-.013q-4.481-.018-8.963-.049c-.205-5.24-.082-10.147.973-15.297 1.26-6.318 1.357-12.527 1.464-18.953.249-9.83 1.025-19.353 2.475-29.073 1.232-8.686 1.554-17.339 1.71-26.105.143-6.556.808-12.793 1.886-19.259.853-5.744 1.148-11.52 1.492-17.313.61-9.572 1.346-19.108 2.32-28.65.576-5.801.925-11.589 1.18-17.413.223-5.08.564-9.988 1.5-15 1.003-5.374 1.346-10.702 1.605-16.15.362-7.541.865-15.07 1.395-22.6l.252-3.705.248-3.502.219-3.128c.281-2.852.281-2.852.758-5.02.674-3.651.922-7.304 1.171-11.003l.173-2.45q.185-2.625.365-5.248.286-4.148.581-8.294c.556-7.858 1.103-15.716 1.649-23.575q.502-7.215 1.015-14.43.195-2.754.383-5.508.264-3.836.538-7.67l.154-2.318c.38-5.222.38-5.222 1.494-6.336q.553-3.493 1-7"/></svg>