<svg xmlns="http://www.w3.org/2000/svg" width="240" height="240"><path fill="#174791" d="M0 0h240v240H0z"/><path fill="#EC6124" d="M139 60c7.723 7.692 14.876 15.769 21.719 24.25 3.143 3.79 6.483 7.383 9.816 11.004 2.392 2.665 4.658 5.394 6.903 8.183 3.221 3.995 6.569 7.809 10.062 11.563 4.301 4.623 8.337 9.399 12.293 14.324 2.986 3.62 6.157 7.056 9.36 10.485 1.692 2.008 2.804 3.795 3.847 6.191-13.526 10.881-28.186 18.85-45.062 23.188l-1.967.506c-8.657 2.11-17.15 2.449-26.034 2.369l-2.912-.014q-3.512-.018-7.025-.049c.648-14.006 1.65-27.965 2.813-41.937l.524-6.371c1.758-21.243 3.687-42.47 5.663-63.692"/><path fill="#F9FAFB" d="M100 87c4.627 3.193 5.52 7.91 6.938 13.063l.76 2.66c.78 2.756 1.541 5.516 2.302 8.277l1.496 5.262q.693 2.493 1.379 4.988l.652 2.305c1.323 4.955 1.845 9.31 1.473 14.445-2.745 3.327-4.346 3.921-8.625 4.438-3.658-.475-4.215-.653-6.375-3.438-.891-2.36-.891-2.36-1.605-5.105l-.791-2.979-.791-3.103-.827-3.14A1127 1127 0 0 1 94 117l-.044 2.323c-.075 3.476-.171 6.951-.269 10.427l-.068 3.656-.107 3.516-.08 3.237c-.48 3.157-1.225 4.567-3.432 6.841-2.262.61-2.262.61-4.687.75l-2.45.172L81 148c-6.128-8.52-10.987-17.803-16-27l.55 1.924c.825 2.898 1.638 5.8 2.45 8.701l.867 3.027c2.72 9.775 2.72 9.775 2.133 14.348-2.062 2.875-2.062 2.875-5 5-3.625.5-3.625.5-7 0-2.627-2.061-3.527-3.932-4.395-7.113l-.699-2.502-.718-2.697-.764-2.79a1701 1701 0 0 1-1.595-5.87 580 580 0 0 0-2.587-9.098l-1.68-5.868-.821-2.776c-1.33-4.738-2.28-8.438-.741-13.286 4.052-4.167 8.375-5.679 14.063-6.375 3.787.483 5.14 1.81 7.937 4.375 1.761 2.565 1.761 2.565 3.332 5.422.57 1.025 1.14 2.05 1.729 3.105l1.751 3.223 1.811 3.27Q77.826 119.003 80 123l.06-2.599q.118-4.785.257-9.571.058-2.07.105-4.138c.046-1.986.105-3.972.164-5.958l.095-3.618c.304-2.971.64-4.676 2.319-7.116 5.257-3.067 10.955-4.286 17-3"/><path fill="#FAFBFC" d="M84 29c5.084 3.945 6.35 8.06 7.895 14.027l.718 2.626q.744 2.739 1.464 5.484a792 792 0 0 0 2.257 8.361q.72 2.67 1.436 5.342l.681 2.51C99.57 71.645 100.413 75.523 100 80c-2.168 3.21-3.724 3.915-7.437 5.063C89 85 89 85 86.484 83.203c-3.721-3.999-4.544-9.351-5.796-14.516l-.8-3.11A646 646 0 0 1 78 58l-.044 2.615q-.093 4.805-.218 9.61a548 548 0 0 0-.084 4.159 572 572 0 0 1-.142 5.98l-.08 3.633C77 87 77 87 75.682 88.857 72.845 90.785 70.38 90.94 67 91c-3.09-2.563-5-5.397-6.945-8.879l-1.575-2.79-1.605-2.894q-1.597-2.846-3.195-5.69l-1.415-2.542c-1.02-1.777-2.129-3.5-3.265-5.205l.55 1.677c.832 2.562 1.641 5.13 2.45 7.698l.867 2.637C54.653 80.75 56.412 87.003 55 93c-2.64 2.44-4.461 3.43-8.062 3.438C43 96 43 96 41.359 94.29c-1.45-2.445-2.262-4.636-3.043-7.368l-.867-2.997-.886-3.175-.925-3.25Q34.301 72.755 33 68c-.235-.856-.47-1.711-.71-2.593C28.527 51.52 28.527 51.52 29 46c3.503-4.404 6.646-6.372 12.105-7.395 2.53-.25 4.417-.183 6.895.395 5.114 4.81 8.451 11.943 11.875 18l1.508 2.637Q63.198 62.815 65 66l.028-2.782q.067-5.122.18-10.243.042-2.214.063-4.429c.021-2.125.068-4.249.12-6.374l.063-3.872c.635-3.835 1.478-4.994 4.546-7.3 4.715-1.78 8.98-2.65 14-2"/><path fill="#FBFBFC" d="M115 144c4.35 4.318 6.119 8.258 7.676 14.11l.651 2.323q.673 2.423 1.323 4.851c.658 2.45 1.347 4.892 2.04 7.333 4.97 17.889 4.97 17.889 3.31 23.383-2.678 2.427-4.438 3.417-8.062 3.375C118 199 118 199 116.354 197.782c-1.649-2.17-2.243-4.041-2.96-6.669l-.79-2.842-.791-2.958-.827-2.995Q109.981 178.663 109 175l.003 2.415c-.012 3.613-.07 7.223-.128 10.835l.008 3.8c-.197 9.202-.197 9.202-3.563 12.872-3.817 1.24-5.57 1.532-9.32.078-2.09-2.52-2.09-2.52-3.937-5.812l-1.002-1.743q-1.033-1.802-2.041-3.617a261 261 0 0 0-3.086-5.36A1033 1033 0 0 1 81 180l.459 1.617c.691 2.458 1.366 4.92 2.041 7.383l.723 2.543C85.667 196.867 86.39 201.48 86 207c-1.5 2.5-1.5 2.5-4 4-2.909.51-4.981.335-8 0-3.126-2.256-3.75-4.844-4.684-8.488l-.867-3.311-.886-3.513-1.844-7.106-.89-3.45c-1.001-3.784-2.122-7.515-3.266-11.257C60.177 168.981 59.082 165.05 60 160c2.642-3.392 5.805-5.204 10-6 2.219-.273 2.219-.273 4.5-.375l2.281-.148c3.46.816 4.243 2.572 6.219 5.523 2.133 3.524 4.17 7.097 6.188 10.688l1.654 2.916C94.77 179.539 94.77 179.539 96 182l.028-2.874q.067-5.29.18-10.578.042-2.288.063-4.574c.021-2.195.068-4.389.12-6.583l.063-4c.628-3.898 1.421-5.062 4.546-7.391 4.702-1.774 9-2.74 14-2"/><path fill="#FDFCFC" d="M167 112c4.596 2.625 7.99 6.074 10 11 .69 5.916-.08 9.414-3.527 14.3-2.865 3.306-5.59 4.488-9.903 4.973-4.976.192-8.64.08-12.57-3.273-4.543-5.174-5.458-8.355-5.422-15.164.668-4.49 3.017-6.994 6.422-9.836 4.71-3.14 9.501-2.925 15-2"/><path fill="#1C5097" d="M65 35h1v33c-3.235-4.314-3.356-4.924-3.11-9.973l.153-3.474.207-3.615.16-3.627c.427-8.822.427-8.822 1.59-12.311"/><path fill="#074090" d="M78 60c2.003 3.004 2.493 4.71 3.125 8.188l.508 2.73L82 73l-2-2-1 13h-1z"/><path fill="#30589D" d="M48 61c2.878 2.732 4.512 5.28 6 9-.312 2.875-.312 2.875-1 5-2.01-3.015-2.726-5.215-3.625-8.687-.26-.994-.52-1.988-.79-3.012-.192-.76-.386-1.519-.585-2.301"/><path fill="#043A8E" d="M114 138v3l-1 1 2 2c-4.161.082-7.947-.018-12-1v-1l1.898-.367 2.477-.508 2.46-.492c2.352-.5 2.352-.5 4.165-2.633"/><path fill="#0C3E90" d="m54 93 2 4c-1.455.39-2.914.76-4.375 1.125l-2.46.633L47 99l-2-2 1.715-.621 2.222-.817 2.215-.808c1.831-.608 1.831-.608 2.848-1.754"/><path fill="#204B96" d="M64 120c2.969 2.545 4.362 5.49 6 9l-4-1z"/></svg>