<svg xmlns="http://www.w3.org/2000/svg" width="240" height="240"><path fill="#164791" d="M197.414 26.617C216.784 43.501 230.12 64.17 237 89l.969 3.441c7.398 31.752 1.108 65.267-15.822 92.744C205.746 211.138 180.436 228.845 151 237l-3.441.969c-31.752 7.398-65.267 1.108-92.744-15.822C38.67 211.944 25.673 198.41 16 182l-1.096-1.794C-.722 154.445-4.394 120.874 2.166 91.722 9.594 61.982 27.82 34.404 54.184 18.21 65.295 11.674 76.543 6.45 89 3l3.441-.969c36.202-8.435 76.474.667 104.973 24.586"/><path fill="#EB6224" d="M139 60c7.846 7.762 15.108 15.966 21.992 24.59 1.968 2.449 1.968 2.449 4.266 4.601C167 91 167 91 167 93h2c1.248 1.407 2.423 2.879 3.563 4.375 2.842 3.647 5.753 7.15 8.875 10.563 3.117 3.416 6.095 6.9 9 10.5 3.918 4.843 8.044 9.452 12.253 14.042C211 141.548 211 141.548 211 144h2c-1.513 4.417-4.947 6.384-8.687 8.813l-2.028 1.324C179.84 168.466 156.3 172.458 130 172c-.232-8.663.496-17.227 1.242-25.848l.39-4.62q.511-6.069 1.033-12.138.618-7.237 1.228-14.476.495-5.867.996-11.734c.593-6.962 1.175-13.924 1.717-20.89l.274-3.512q.244-3.165.48-6.334l.215-2.79.177-2.382c.269-2.466.728-4.852 1.248-7.276"/><path fill="#F9F9FB" d="M100 87c4.731 3.497 5.53 8.199 6.938 13.625l1.535 5.676.766 2.885a341 341 0 0 0 2.257 7.92c.35 1.192.35 1.192.705 2.41q.653 2.225 1.326 4.445c1.383 4.824 1.834 9.014 1.473 14.039-2.745 3.327-4.346 3.921-8.625 4.438-3.657-.475-4.207-.664-6.375-3.438-.891-2.268-.891-2.268-1.605-4.887-.262-.938-.523-1.875-.791-2.842l-.791-2.958-.827-2.995Q94.981 121.663 94 118l-.012 2.216a862 862 0 0 1-.175 9.972l-.018 3.486c-.223 8.53-.223 8.53-3.13 12.572C88 148 88 148 84.561 148.875c-3.868-.95-4.23-1.173-6.374-4.25A200 200 0 0 1 75 139q-1.297-2.303-2.598-4.605c-2.5-4.448-4.96-8.915-7.402-13.395l.55 1.924c.825 2.898 1.638 5.8 2.45 8.701l.867 3.027c2.71 9.742 2.71 9.742 2.133 14.348-2.677 3.302-4.645 4.823-8.875 5.375C59 154 59 154 56.932 151.893c-2.135-3.197-3.022-5.839-3.967-9.557l-.5-1.917a689 689 0 0 1-1.528-6.044q-.51-1.995-1.025-3.988-.998-3.878-1.979-7.76a446 446 0 0 0-3.415-12.426c-.732-3.11-.681-5.22.482-8.201 4.052-4.167 8.375-5.679 14.063-6.375 3.787.483 5.14 1.81 7.937 4.375 1.761 2.565 1.761 2.565 3.332 5.422.57 1.025 1.14 2.05 1.729 3.105l1.751 3.223 1.811 3.27Q77.826 119.003 80 123l.06-2.599q.118-4.785.257-9.571.058-2.07.105-4.138c.046-1.986.105-3.972.164-5.958l.095-3.618C80.984 94.16 81.35 92.44 83 90c5.198-2.828 11.254-5.242 17-3"/><path fill="#FAFBFC" d="M115 144c4.35 4.318 6.119 8.258 7.676 14.11l.651 2.323q.673 2.423 1.323 4.851c.658 2.45 1.347 4.892 2.04 7.333 4.762 17.15 4.762 17.15 3.31 23.383-2.625 2.688-2.625 2.688-6 4-3.171-.062-5.072-.262-7.575-2.253-1.75-2.146-2.303-3.965-3.03-6.634-.262-.938-.523-1.875-.791-2.842l-.791-2.958-.827-2.995Q109.981 178.663 109 175l.003 2.415c-.012 3.613-.07 7.223-.128 10.835l.008 3.8c-.197 9.202-.197 9.202-3.563 12.872-3.817 1.24-5.57 1.532-9.32.078-2.09-2.52-2.09-2.52-3.937-5.812l-1.002-1.743q-1.033-1.802-2.041-3.617a261 261 0 0 0-3.086-5.36A1033 1033 0 0 1 81 180q.686 2.782 1.375 5.563l.824 3.332c.594 2.303 1.27 4.587 1.989 6.855 1.018 4.074 1.225 7.052.812 11.25-1.5 2.5-1.5 2.5-4 4-2.807.604-5.246.866-8 0-4.885-4.312-5.625-10.353-7-16.437q-.766-3.25-1.54-6.497l-.746-3.163c-.905-3.68-1.977-7.28-3.089-10.903-2.552-8.9-2.552-8.9-1.625-14 2.13-2.734 4.682-4.429 7.875-5.812L70 154l3.938-.375c3.058-.231 3.966.3 6.425 2.23 3.753 4.052 6.23 9.031 8.887 13.833l1.64 2.916c3.76 6.695 3.76 6.695 5.11 9.396l.028-2.874q.067-5.29.18-10.578.042-2.288.063-4.574c.021-2.195.068-4.389.12-6.583l.063-4c.628-3.898 1.421-5.062 4.546-7.391 4.702-1.774 9-2.74 14-2M84 29c5.084 3.945 6.35 8.06 7.895 14.027l.718 2.626q.744 2.739 1.464 5.484a792 792 0 0 0 2.257 8.361q.72 2.67 1.436 5.342l.681 2.51C99.57 71.645 100.413 75.523 100 80c-2.168 3.21-3.724 3.915-7.437 5.063C89 85 89 85 86.449 83.023c-2.992-3.693-4.024-6.922-5.199-11.46l-.629-2.237C79.495 65.238 78.667 61.191 78 57l-.044 2.706q-.093 4.974-.218 9.947a587 587 0 0 0-.084 4.303 570 570 0 0 1-.142 6.189l-.08 3.76C77 87 77 87 75.682 88.87 72.84 90.78 70.375 90.94 67 91c-3.124-2.587-5.045-5.47-7.016-8.984l-1.601-2.832-1.633-2.934-1.68-2.98Q53.027 69.64 51 66c0 3.548.93 6.179 2 9.563C56.465 87.517 56.465 87.517 55 93c-2.555 2.504-4.499 3.43-8.062 3.438C43 96 43 96 41.398 94.465c-1.867-3.291-2.777-6.703-3.71-10.34l-1.282-4.82-.68-2.587a571 571 0 0 0-2.382-8.585l-.835-2.966q-.807-2.865-1.63-5.729C28.445 50.678 28.445 50.678 29 46c3.69-4.776 7.185-6.228 12.95-7.395 2.27-.255 3.836-.188 6.05.395 5.062 4.936 8.425 11.897 11.875 18l1.508 2.637Q63.198 62.815 65 66l.028-2.782q.067-5.122.18-10.243.042-2.214.063-4.429c.021-2.125.068-4.249.12-6.374l.063-3.872c.635-3.835 1.478-4.994 4.546-7.3 4.715-1.78 8.98-2.65 14-2"/><path fill="#FDFCFC" d="M166 112c4.456 1.684 7.25 3.945 10 7.813 1.704 5.432 1.973 9.312-.687 14.437-3.105 3.691-6.5 7.491-11.52 7.953-8.85.16-8.85.16-12.793-3.203-4.499-5.123-5.51-8.34-5.492-15.094.826-4.876 3.808-7.789 7.492-10.906 3.988-1.994 8.665-1.514 13-1"/><path fill="#225297" d="M65 35h1v33c-3.235-4.314-3.356-4.924-3.11-9.973l.153-3.474.207-3.615.16-3.627c.427-8.822.427-8.822 1.59-12.311"/><path fill="#094190" d="M78 60c2.003 3.004 2.493 4.71 3.125 8.188l.508 2.73L82 73l-1-2h-2v13h-1z"/><path fill="#1F4A95" d="M49 63c2.727 2.407 4.12 4.925 5.688 8.188l1.324 2.73L57 76h-5a895 895 0 0 1-1.5-4.812l-.844-2.708C49 66 49 66 49 63"/><path fill="#043A8D" d="m112 140 3 4-3.75.125-2.11.07C107 144 107 144 103 142z"/><path fill="#08388E" d="M98 85c-2.76 1.804-3.89 2.013-7.25 1.625L88 86v-1c3.695-.95 6.305-.95 10 0"/></svg>