<svg xmlns="http://www.w3.org/2000/svg" width="600" height="600"><path fill="#F36424" d="M220 68c4.732 3.442 8.244 7.566 12 12q2.934 3.44 5.875 6.875l1.574 1.843a456 456 0 0 0 9.238 10.47 226 226 0 0 1 8.688 10.187c3.68 4.553 7.551 8.86 11.536 13.142 3.803 4.11 7.332 8.406 10.843 12.768 3.129 3.782 6.461 7.363 9.785 10.973 2.371 2.642 4.614 5.349 6.836 8.117 3.867 4.796 7.974 9.294 12.18 13.786 3.924 4.213 7.564 8.603 11.168 13.093 2.495 3.01 5.115 5.885 7.777 8.746 4.27 4.588 8.258 9.334 12.188 14.219 2.954 3.553 6.081 6.921 9.228 10.303a186 186 0 0 1 8.522 9.916c3.365 4.184 6.894 8.145 10.562 12.062 4.459 4.76 8.638 9.665 12.723 14.754 2.495 3.01 5.115 5.885 7.777 8.746 3.452 3.709 6.765 7.485 9.938 11.438 3.365 4.184 6.894 8.145 10.562 12.062 4.459 4.76 8.638 9.665 12.723 14.754 2.495 3.01 5.115 5.885 7.777 8.746 4.27 4.588 8.258 9.334 12.188 14.219 2.512 3.021 5.136 5.905 7.812 8.781 3.474 3.733 6.8 7.524 10 11.5 4.106 5.1 8.468 9.902 12.918 14.7a332 332 0 0 1 8.14 9.195c1.541 1.78 1.541 1.78 3.942 3.793 1.5 1.812 1.5 1.812 1.563 4.25-10.94 26.383-68.444 47.252-92.649 57.343C327.852 457.465 256.745 470.491 186 469c-.191-5.993-.176-11.735.941-17.64 1.331-7.207 1.584-14.396 1.893-21.702.525-12.218 1.31-24.263 3.058-36.375 1.503-11.043 1.903-22.168 2.374-33.295.329-7.438.9-14.57 2.264-21.904.884-5.798 1.04-11.664 1.304-17.518.565-12.33 1.49-24.5 3.128-36.74 1.053-8.135 1.49-16.225 1.66-24.424.125-4.936.525-9.655 1.347-14.527 1.193-7.258 1.542-14.472 1.865-21.808.547-12.234 1.406-24.307 3.058-36.448 1.415-10.94 1.889-21.935 2.374-32.95.288-6.268.603-12.445 1.695-18.638 1.826-10.806 2.018-21.853 2.601-32.781q.281-5.204.571-10.407.18-3.22.348-6.44l.162-2.906.136-2.566C217 78 217 78 218 77c.206-1.328.366-2.663.5-4 .389-3.889.389-3.889 1.5-5"/></svg>