<svg xmlns="http://www.w3.org/2000/svg" width="512" height="512"><path fill="#FFF" d="M179.238 48.906c3.95 2.639 6.294 5.517 7.762 10.094v10h138V59c2.251-5.369 4.647-8.61 10-11 5.627-.75 10.34-.8 15.5 1.688 3.975 3.676 7.353 6.91 7.598 12.574l-.036 2.425-.027 2.45L358 69l1.984-.105c14.33-.426 27.488 3.968 38.329 13.48A249 249 0 0 1 403 87l1.965 1.934c13.158 13.848 14.509 30.24 14.083 48.313L419 139h2c1.555 28.574 1.555 28.574-5.762 40.508-2.967 3.304-5.304 4.22-9.633 4.828-6.097.098-10.507-.912-15.605-4.336-2.332-2.332-2.69-3.855-3.562-7-.993-3.588-.993-3.588-2.438-7-.086-2.324-.107-4.65-.098-6.977l.005-2.076c.005-2.19.018-4.381.03-6.572q.009-2.226.014-4.453.017-5.46.049-10.922h2c-.164-9.493-1.136-17.534-7.64-24.844-5.985-5.499-12.414-7.459-20.36-8.156l.25 3.5c-.009 4.887-1.498 8.497-4.25 12.5-4.881 4.643-8.967 5.357-15.496 5.281-4.954-.556-7.643-3.304-10.817-6.906C323.77 110.861 325 110.927 325 102H187v10c-2.493 4.987-5.994 8.497-11 11-5.963.558-10.929.502-16-3-5.488-5.793-6.093-10.364-6-18-7.365.016-14.73.071-22.095.153q-3.753.034-7.507.043c-3.61.009-7.218.05-10.828.097l-3.356-.012c-8.81.163-15.214 2.501-22.089 8.031-7.054 8.922-7.26 17.89-7.441 28.872-.02.936-.038 1.873-.057 2.838-.068 3.471-.128 6.944-.19 10.416L80 176h62l1-3q12.505-.141 25.01-.207 5.808-.03 11.615-.095 5.613-.063 11.224-.078 2.134-.01 4.267-.043c8.012-.117 14.123-.134 20.884 4.423 4.836 6.077 5.808 11.425 5 19-1.646 5.251-4.198 9.162-9 12-6.876 2.206-13.341 2.276-20.523 2.23h-3.584q-3.729-.006-7.458-.024c-3.818-.019-7.636-.02-11.455-.02q-3.627-.007-7.253-.018l-3.472-.003-3.198-.02-2.82-.011C150 210 150 210 148 209c-2.154-.12-4.312-.177-6.47-.205l-2.01-.03q-3.295-.047-6.59-.081l-4.565-.063a6864 6864 0 0 0-12.025-.153q-6.132-.077-12.266-.161Q92.037 208.145 80 208q.126 29.86.288 59.72.076 13.864.134 27.73.05 12.09.12 24.178.04 6.397.061 12.795.02 6.03.064 12.06.014 2.205.017 4.41c-.106 16.67-.106 16.67 7.316 31.107 4.468 4.224 8.847 6.955 15 8q2.502-.492 5-1c2.134-.104 4.27-.158 6.407-.177l3.865-.039q2.076-.012 4.154-.022l2.129-.013q5.577-.03 11.154-.044c3.823-.011 7.645-.046 11.468-.085 2.956-.027 5.911-.035 8.867-.038q2.113-.008 4.225-.035c7.965-.1 14.006-.06 20.731 4.453 4.836 6.077 5.808 11.425 5 19-1.646 5.251-4.198 9.162-9 12-6.876 2.206-13.341 2.276-20.523 2.23h-3.584q-3.729-.006-7.458-.024c-3.818-.019-7.636-.02-11.455-.02q-3.627-.007-7.253-.018l-3.472-.003-3.198-.02-2.82-.011C115 424 115 424 113 423a381 381 0 0 0-6.322-.594c-18.032-1.54-32.508-7.05-45.201-20.457-13.557-16.144-14.068-32.727-13.995-52.81q-.008-3.77-.02-7.539c-.017-6.091-.015-12.182-.003-18.274q.013-7.432.006-14.864l-.002-2.145-.004-4.314c-.011-13.456.002-26.912.023-40.368q.025-17.283-.003-34.566a16006 16006 0 0 1-.014-44.531l.002-2.136q.003-7.414-.012-14.83-.018-9.998.02-19.994.008-3.66-.006-7.318c-.065-19.836 1.888-36.886 16.136-52.06C77.494 73.443 92.47 68.64 111.13 68.804l3.728.008c3.902.011 7.804.036 11.706.062q3.984.017 7.97.027 9.734.034 19.467.098l-.042-1.854-.032-2.443-.042-2.417c.241-4.754 2.549-7.648 5.616-11.099 5.074-4.44 13.549-4.787 19.738-2.28"/><path fill="#FFF" d="M406.188 203.125A306 306 0 0 1 412 208l2.621 2.203c23.5 20.384 37.907 46.102 46.379 75.797l.634 2.199c5.31 19.565 4.455 45.317-.634 64.801l-.456 1.958C454.66 380.219 440.964 402.593 423 421c-.63.69-1.258 1.382-1.906 2.094-21.47 22.977-56.257 38.53-87.677 40.083-17.5.282-34.395.499-51.417-4.177l-3.863-1.027C261.99 453.099 246.32 445.33 233 435l-2.773-2.105C199.66 408.853 180.936 374.517 176 336c-2.193-43.252 8.154-81.004 37.248-113.919 48.035-52.965 135.4-63.317 192.94-18.956M243 239l-1.86 1.602C226.843 253.879 217.179 272.426 212 291l-.969 3.293c-4.263 17.153-4.02 37.75.969 54.707l1.031 3.7c8.688 28.557 29.061 52.078 55.12 66.316 25.976 13.824 56.154 16.313 84.325 8.22C369.101 422.03 383.953 412.364 397 401l1.86-1.602C413.157 386.121 422.821 367.574 428 349l.969-3.293c4.263-17.153 4.02-37.75-.969-54.707l-1.031-3.7c-8.636-28.387-28.977-52.187-54.969-66.3-43.602-22.868-92.719-13.603-129 18"/><path fill="#FFF" d="M327.316 261.95c4.176 2.437 6.527 4.647 8.684 9.05a64 64 0 0 1 .293 7.707l-.013 2.198a738 738 0 0 1-.092 6.908q-.024 2.35-.042 4.7c-.032 3.83-.084 7.658-.146 11.487l2.918-.08c3.599-.09 7.197-.147 10.797-.195q2.329-.038 4.658-.102c14.569-.398 14.569-.398 19.065 2.729 4.118 4.257 5.71 7.644 6.062 13.523-.168 5.306-1.872 9.246-5.5 13.125-4.152 3.113-7.68 3.405-12.707 3.293l-2.198-.013a738 738 0 0 1-6.908-.092q-2.35-.024-4.7-.042c-3.83-.032-7.658-.084-11.487-.146l.063 2.934c.073 3.612.119 7.223.157 10.836q.03 2.34.082 4.678c.049 2.25.071 4.498.089 6.747l.062 2.094c.002 5.045-1.29 7.834-4.453 11.711-4.762 3.62-8.514 4.709-14.5 4.453-5.111-.926-8.988-3.437-12.087-7.57-1.762-3.595-1.793-6.68-1.706-10.59l.013-2.198c.017-2.303.054-4.605.092-6.908q.024-2.35.042-4.7c.032-3.83.084-7.658.146-11.487l-2.918.08c-3.599.09-7.197.147-10.797.195q-2.329.038-4.658.102c-14.569.398-14.569.398-19.065-2.729-4.154-4.293-5.712-7.655-6-13.586.179-5.153 1.317-7.956 4.438-12.062 4.556-3.717 8.069-4.562 13.805-4.39.724.005 1.448.01 2.194.017 2.292.022 4.584.072 6.876.123q2.343.03 4.688.055c3.813.044 7.625.113 11.437.195l-.08-2.918a888 888 0 0 1-.195-10.797q-.038-2.329-.102-4.658c-.398-14.569-.398-14.569 2.729-19.065 5.88-5.69 13.153-7.814 20.964-4.613"/></svg>