<svg xmlns="http://www.w3.org/2000/svg" width="512" height="512"><path fill="#FFF" d="m209.28-.147 2.569-.022 2.794-.008 2.963-.02c3.237-.02 6.473-.031 9.71-.041l3.358-.013q8.8-.03 17.603-.044c6.043-.011 12.086-.046 18.13-.085 4.66-.027 9.321-.035 13.983-.038q3.34-.008 6.68-.035c16.99-.134 28.976.866 41.68 13.144 7.284 7.85 9.106 17.275 10.813 27.559 2.897 20.747 2.897 20.747 13.687 38.062 8.027 4.926 15.34 6.836 24.75 5.688 5.809-1.47 11.369-3.754 16.938-5.938q3.33-1.274 6.665-2.537 2.056-.78 4.107-1.582C417.673 69.32 429.207 70.026 441 75c11.11 6.163 17.69 17.27 23.625 28.062q1.043 1.865 2.09 3.728a2573 2573 0 0 1 3.19 5.694c3.333 5.965 6.765 11.87 10.22 17.766l1.7 2.917q4.491 7.694 9.054 15.345l1.931 3.259a989 989 0 0 0 3.661 6.126c6.96 11.775 10.379 23.693 7.369 37.384-4.772 15.446-17.982 25.478-30.547 34.707-6.84 5.118-12.733 11.283-14.293 20.012-.866 9.678.65 17.074 6.125 25.125 2.988 3.25 6.508 5.886 9.98 8.594 3.292 2.594 6.506 5.265 9.708 7.968l1.632 1.368c10.278 8.693 16.91 17.633 18.43 31.195.476 8.774-1.29 16.23-5.59 23.887l-1.615 2.896L496 354l-3.156 5.7a1876 1876 0 0 1-21.524 37.612 551 551 0 0 0-6.328 11.063c-7.588 13.584-15.636 26.622-31.304 31.5-13.443 3.122-24.159-.38-36.649-5.145l-3.282-1.23a390 390 0 0 1-6.473-2.502c-8.985-3.39-17.372-4.595-26.596-1.373-8.703 4.017-13.339 9.413-16.688 18.375-1.568 6.077-2.488 12.312-3.5 18.5-2.556 15.626-5.405 29.379-18.992 39.324-8.137 5.107-15.034 6.476-24.491 6.467l-2.965.02c-3.22.019-6.44.023-9.661.025l-6.752.02q-7.071.017-14.142.015c-6.02 0-12.04.027-18.059.061-4.648.022-9.296.026-13.944.025q-3.328.005-6.655.027c-15.525.099-28.026-.207-39.839-11.484-10.353-10.845-12.058-24.523-14.28-38.75-2.577-16.392-2.577-16.392-12.72-29-7.705-4.816-14.979-6.338-24-5.25-5.809 1.467-11.369 3.755-16.937 5.937q-3.33 1.275-6.666 2.538-2.056.78-4.107 1.582C94.327 442.68 82.793 441.974 71 437c-11.11-6.163-17.69-17.27-23.625-28.063q-1.043-1.864-2.09-3.727-1.599-2.845-3.19-5.694c-3.333-5.965-6.765-11.87-10.22-17.766l-1.7-2.917a1884 1884 0 0 0-9.054-15.345l-1.931-3.259a989 989 0 0 0-3.661-6.126C8.764 342.659 5.13 331.104 8.125 317.75c2.78-9.611 7.769-17.504 15.625-23.75l2.902-2.348a483 483 0 0 1 7.414-5.773C46.692 276.227 46.692 276.227 53 262c.866-9.678-.65-17.074-6.125-25.125-2.988-3.25-6.508-5.886-9.98-8.594-3.292-2.594-6.506-5.265-9.707-7.969l-1.633-1.367c-10.278-8.693-16.91-17.633-18.43-31.195-.623-11.471 3.18-20.065 8.875-29.75q1.066-1.92 2.121-3.848c5.285-9.653 10.765-19.186 16.343-28.673a924 924 0 0 0 9.45-16.44l1.974-3.498a795 795 0 0 0 3.699-6.637C56.324 87 64.854 76.314 78.313 72.125c13.442-3.122 24.158.38 36.648 5.145l3.282 1.23q3.248 1.222 6.473 2.502c8.985 3.39 17.372 4.595 26.597 1.373 8.7-4.016 13.34-9.414 16.687-18.375 1.752-6.836 2.717-13.875 3.831-20.836C174.086 29.287 177.074 15.895 189 7c6.484-3.809 12.66-7.103 20.28-7.147M214 40l-6 34c-7.866 20.452-17.02 35.225-37 45-18.258 7.48-37.274 8.615-56 2l-3.072-1.073A1337 1337 0 0 1 90 112l-1.139 1.974-1.615 2.8-1.817 3.15-14.378 24.924-1.916 3.32a3933 3933 0 0 0-3.75 6.52c-2.897 5.04-5.821 10.058-8.842 15.027l-1.597 2.656a335 335 0 0 1-2.974 4.846l-1.288 2.15-1.14 1.847c-.76 1.853-.76 1.853.23 3.903 1.545 2.374 3.28 3.735 5.539 5.445C74.343 205.38 90.793 220.854 94 246c1.79 19.61-1.908 38.64-14.508 54.219C70.667 310.479 59.742 318.867 49 327c1.41 4.863 3.57 8.955 6.188 13.25a672770179.087 672770179.087 0 0 0 4.214 7.052c2.997 5.06 5.917 10.163 8.848 15.26A6403 6403 0 0 0 90 400l2.703-.978q5.021-1.812 10.047-3.612 2.165-.777 4.326-1.56c21.979-7.953 42.518-10.43 64.486-.47 6.076 2.915 10.986 6.381 15.766 11.116 1.545 1.727 1.545 1.727 3.672 1.504l.797 1.754c1.264 2.36 2.72 4.149 4.453 6.183C209.17 430.43 210.676 452.057 214 472h84l6-34c8.602-22.366 8.602-22.366 17-30v-2l1.75-.797c2.368-1.266 4.197-2.726 6.25-4.453 15.56-12.189 33.731-15.457 53-13.75 5.204.808 10.049 2.25 15 4l3.072 1.073c7.334 2.575 14.64 5.224 21.928 7.927l1.139-1.974 1.615-2.8 1.817-3.15 14.378-24.924 1.916-3.32q1.878-3.258 3.75-6.52c2.897-5.04 5.821-10.058 8.842-15.027l1.597-2.656a335 335 0 0 1 2.974-4.846l1.288-2.15 1.14-1.847c.76-1.853.76-1.853-.23-3.903-1.545-2.374-3.28-3.735-5.538-5.446C437.658 306.621 421.207 291.146 418 266c-1.79-19.61 1.908-38.64 14.508-54.219 8.825-10.26 19.75-18.648 30.492-26.781-1.41-4.863-3.57-8.955-6.187-13.25q-1.36-2.27-2.715-4.543l-1.5-2.51c-2.997-5.058-5.917-10.162-8.848-15.26A6403 6403 0 0 0 422 112l-2.703.978a4365 4365 0 0 1-10.047 3.612q-2.164.777-4.326 1.56c-21.979 7.953-42.518 10.43-64.486.47-6.076-2.915-10.986-6.381-15.766-11.116-1.545-1.727-1.545-1.727-3.672-1.504l-.797-1.754c-1.264-2.36-2.72-4.149-4.453-6.184C302.83 81.57 301.324 59.943 298 40z"/><path fill="#FFF" d="M314.737 175.275C336.952 192.503 351.114 215.998 355 244c2.155 27.536-4.373 54.392-22.375 75.813C315.634 339.343 292.955 352.13 267 355c-29.284 1.545-55.952-5.393-78.035-25.223-18.797-17.403-31.27-41.609-32.3-67.468-.447-29.212 8.052-54.921 28.335-76.309 33.709-34.575 90.75-39.353 129.737-10.725M209 221c-9.512 13.023-12.909 28.121-11 44 3.003 16.582 12.208 29.577 25.367 39.848 12.842 8.453 28.74 11.522 43.808 8.752 16.322-3.724 30.201-13.376 39.262-27.537 7.804-14.12 9.747-30.122 6.063-45.75-4.483-14.855-14.188-27.02-27.313-35.25C258.001 190.544 228.632 197.979 209 221"/></svg>