<svg xmlns="http://www.w3.org/2000/svg" width="512" height="512"><path fill="#FFF" d="M289.875 8.25c14.696 10.217 25.561 23.739 29.734 41.47.782 4.56.87 9.164 1.016 13.78l.117 3.07q.141 3.715.258 7.43l1.642.667c20.06 8.216 37.426 17.77 54.559 31.093 1.887 1.424 1.887 1.424 4.799 2.24 1.801-.642 1.801-.642 3.625-1.766l2.124-1.195L390 103.75c15.514-8.495 31.555-10.766 49-6.75 17.376 5.163 31.62 15.729 40.419 31.65 8.43 16.252 10.088 34.868 4.581 52.35-5.223 14.169-14.29 25.752-27 34l-2.937 1.91A743 743 0 0 1 446 222l.429 2.36c1.593 9.72 1.88 19.186 1.832 29.017-.011 2.62 0 5.238.012 7.857.007 9.781-.52 19.118-2.273 28.766.895.545 1.79 1.09 2.71 1.652 7.778 4.819 14.772 9.866 21.29 16.348l1.664 1.559c10.882 11.201 15.235 27.88 15.711 43.003-.564 17.79-7.122 33.447-19.723 45.954-12.603 11.804-27.65 18.11-44.964 17.921l-3.047-.027c-12.287-.284-22.128-3.499-32.582-9.943-2.849-1.684-4.414-2.601-7.723-1.912-2.417 1.495-4.5 3.083-6.649 4.945-15.356 12.558-33.465 20.983-51.687 28.5l-.028 1.813c-.44 22.423-.44 22.423-4.972 33.187l-1.094 2.652c-7.737 16.965-21.935 27.641-38.765 34.516-16.291 5.014-35.653 2.93-50.641-4.668-16.387-8.885-27.185-23.297-32.598-41.113-1.25-5.241-1.358-10.521-1.527-15.887l-.117-3.07q-.141-3.715-.258-7.43l-1.81-.743c-19.294-7.99-39.441-16.855-54.635-31.636-2.462-1.965-2.462-1.965-5.375-1.121a305 305 0 0 0-13.082 6.578c-13.608 7.027-30.418 7.744-45.006 3.347-17.237-5.754-30.932-16.644-39.4-32.82C24.187 365.611 22.567 347.94 28 331c3.838-10.119 9.132-18.508 17-26l1.926-1.914c4.717-4.434 9.995-7.556 15.633-10.703 2.315-1.168 2.315-1.168 3.441-2.383a131 131 0 0 0-.875-5.75c-3.092-20.72-2.592-41.618.875-62.25-.895-.545-1.79-1.09-2.71-1.652C55.511 215.529 48.517 210.482 42 204l-1.664-1.559c-10.882-11.201-15.235-27.88-15.711-43.003.572-18.053 7.32-33.962 20.375-46.438l1.855-1.914C58.78 99.544 75.81 95.018 92 95c13.176.798 24.463 5.037 35.563 12.059 2.42 1.202 2.42 1.202 4.98.32 2.54-1.426 4.57-2.972 6.77-4.879C154.669 89.942 172.778 81.517 191 74l.028-1.813c.44-22.423.44-22.423 4.972-33.187l1.094-2.652c6.963-15.268 19.528-26.31 34.91-32.57 18.937-7.036 40.382-5.963 57.871 4.472M240 50c-4.31 6.231-5.133 11.31-5.176 18.73q-.034 2.312-.072 4.624a812 812 0 0 0-.078 7.233c-.129 19.315-.129 19.315-6.47 26.429-6.04 3.816-12.43 5.792-19.227 7.785-21.53 6.36-39.141 18.938-55.848 33.5-7.234 6.25-12.124 9.35-21.91 9.125-5.759-.762-10.294-3.51-15.219-6.426a5663 5663 0 0 0-7.418-4.307q-2.55-1.487-5.084-2.997l-2.373-1.403-2.117-1.265c-4.829-2.472-10.014-2.894-15.25-1.38-6.7 2.64-10.497 6.549-14.133 12.665-1.53 6.575-1.493 12.85 2.02 18.756 4.247 6.05 10.768 9.506 17.168 12.869 19.86 10.805 19.86 10.805 22.632 17.738 2.418 10.129-.27 20.059-2.488 29.96-1.072 4.805-1.788 9.44-1.957 14.364l-.078 1.9c-.527 14.468.427 29.297 4.156 43.338 1.665 6.793 2.271 14.531-.453 21.137-4.7 7.726-14.084 11.453-21.75 15.625-10.934 5.947-10.934 5.947-18.875 15.313-1.915 7.06-2.037 13.4 1.668 19.867 3.688 5.039 8.15 8.532 14.332 9.82 10.473.97 18.687-4.953 27.313-10.125q3.21-1.915 6.425-3.82l2.845-1.704c3.785-2.116 6.825-2.56 11.105-2.663l3.011-.114c7.574.977 12.587 5.228 17.801 10.488 7.223 6.982 15.054 12.54 23.5 17.938l2.977 1.957c12.486 7.79 26.876 12.668 40.957 16.742 5.37 2.279 8.85 6.322 11.316 11.602 1.799 6.47 1.317 13.524 1.313 20.199.003 2.36.013 4.72.04 7.081q.026 2.19.007 4.382c.074 7.23 2.17 13.817 7.39 19.037 5.393 3.883 10.329 5.272 17 5 5.664-1.204 10.797-3.815 14.156-8.672 3.495-5.841 3.987-10.444 4.055-17.129l.086-4.65q.063-3.644.104-7.287c.028-2.355.074-4.708.122-7.063l.01-2.172c.152-6.279 1.683-10.771 5.592-15.714 5.35-4.303 11.245-6.129 17.767-8.118 22.683-7.057 42.924-19.496 59.687-36.275 4.94-4.83 10.178-7.338 17.108-7.483 7.159.23 12.271 2.985 18.313 6.563q3.707 2.156 7.418 4.307 2.55 1.486 5.084 2.997l2.373 1.403 2.117 1.265c4.829 2.472 10.014 2.894 15.25 1.38 6.7-2.64 10.497-6.549 14.133-12.664 1.53-6.576 1.5-12.865-2.03-18.764-4.834-6.916-12.747-10.626-19.97-14.549q-3.054-1.67-6.102-3.352l-2.705-1.47c-5.87-3.55-9.583-6.95-11.568-13.553-1.334-9.459.99-18.47 3.043-27.64 1.072-4.808 1.792-9.432 1.957-14.36l.078-2.015c.495-14.505-.417-29.106-4.156-43.188-1.81-7.456-2.546-16.243 1.594-23.047 5.38-6.344 13.423-9.84 20.609-13.75 10.934-5.947 10.934-5.947 18.875-15.312 1.915-7.06 2.037-13.401-1.668-19.868-3.688-5.039-8.15-8.532-14.332-9.82-10.473-.97-18.687 4.953-27.312 10.125q-3.212 1.915-6.426 3.82l-2.845 1.704c-3.785 2.116-6.825 2.56-11.104 2.663l-3.012.114c-7.574-.977-12.587-5.228-17.801-10.488-7.223-6.982-15.054-12.54-23.5-17.938l-2.977-1.957c-12.486-7.79-26.876-12.668-40.957-16.742-5.37-2.279-8.85-6.322-11.316-11.602-1.799-6.47-1.317-13.524-1.312-20.199-.004-2.36-.014-4.72-.041-7.081q-.026-2.19-.007-4.382c-.074-7.23-2.17-13.817-7.39-19.037-9.72-6.999-21.369-6.631-30 2"/><path fill="#FFF" d="m314 192 2.309 2.02c15.633 14.604 24.616 36.167 25.894 57.347.324 24.212-7.032 45.372-23.203 63.633l-1.676 1.93c-14.51 15.627-36.328 24.13-57.316 25.226-22.728.619-44.827-6.481-61.758-21.969-17.464-16.563-26.975-36.628-28.473-60.777-.583-24.184 8.055-45.643 24.16-63.566C225.87 162.367 279.842 161.952 314 192m-90.312 36.313C215.525 238.603 212.9 250.074 214 263c2.272 11.226 8.393 21.55 18 28 10.93 6.34 21.621 8.898 34.223 6.348 11.004-3.309 20.374-9.756 26.18-19.766 5.846-11.202 7.741-22.503 4.034-34.832-4.588-12.118-12.424-20.304-24.046-25.715-17.226-7.459-36.14-2.278-48.704 11.278"/></svg>