<svg xmlns="http://www.w3.org/2000/svg" width="512" height="512"><path fill="#FFF" d="M35 128c2.733 2.213 5.174 4.666 7.632 7.178l2.196 2.194c2.414 2.417 4.814 4.848 7.214 7.28q2.599 2.61 5.201 5.218 5.594 5.613 11.17 11.243a7486 7486 0 0 0 16.193 16.284q13.177 13.22 26.333 26.46l1.59 1.6 23.88 24.034 1.582 1.593q13.102 13.182 26.223 26.344a7501 7501 0 0 1 16.129 16.23 5185 5185 0 0 0 12.393 12.458q2.53 2.54 5.05 5.092c16.694 16.907 33.099 30.758 58.027 31.104 28.03-.19 45.023-17.827 63.48-36.442l5.174-5.192q5.542-5.562 11.077-11.132c5.34-5.375 10.687-10.741 16.037-16.106q13.034-13.07 26.06-26.15l1.57-1.577q11.051-11.098 22.096-22.203l1.574-1.583 1.572-1.58q12.982-13.051 25.986-26.081 8.008-8.024 15.993-16.071 6.115-6.157 12.25-12.294 2.512-2.517 5.014-5.046c2.275-2.3 4.563-4.588 6.855-6.873l1.99-2.03c5.189-5.132 10.21-8.36 17.772-8.452 6.718.213 12.685 2.346 17.386 7.285 3.65 4.927 4.507 8.894 4.676 14.903l.148 3.574c-1.146 8.186-7.237 13.89-12.902 19.504l-2.222 2.24c-2.446 2.46-4.903 4.91-7.36 7.359q-2.643 2.651-5.283 5.304-6.423 6.445-12.86 12.873-5.239 5.233-10.47 10.473l-1.508 1.51-3.034 3.038a30273 30273 0 0 1-28.444 28.441 18747 18747 0 0 0-25.937 25.964q-13.335 13.372-26.694 26.722-7.489 7.48-14.961 14.977-7.036 7.058-14.097 14.09a1762 1762 0 0 0-5.144 5.154c-11.808 11.874-23.58 22.99-39.045 29.964l-2.426 1.117c-25.824 11.538-55.85 12.154-82.386 2.574-4.23-1.708-8.317-3.671-12.375-5.753l-1.952-.987c-14.554-7.833-25.933-19.903-37.466-31.481l-5.341-5.325a7492 7492 0 0 1-12.898-12.896q-5.236-5.246-10.48-10.484l-1.514-1.513-3.046-3.043a30909 30909 0 0 1-28.441-28.459 20597 20597 0 0 0-24.393-24.39 30067 30067 0 0 1-31.42-31.41l-1.504-1.505q-5.236-5.24-10.48-10.47-7.05-7.038-14.08-14.096a2382 2382 0 0 0-5.172-5.168 2025 2025 0 0 1-7.043-7.06l-2.081-2.06c-5.544-5.613-8.492-10.218-8.501-18.341.165-6.84 1.178-11.564 5.828-16.645 8.665-7.912 20.128-7.284 29.609-1.48"/></svg>