<svg xmlns="http://www.w3.org/2000/svg" width="512" height="512"><path fill="#FFF" d="m148.875-.437 3.492-.06c8.28 1.132 13.625 5.905 19.323 11.686l2.215 2.198c2.435 2.421 4.855 4.857 7.276 7.292q2.621 2.616 5.246 5.23 6.374 6.358 12.728 12.737a10080 10080 0 0 0 14.853 14.862q13.273 13.267 26.523 26.557 12.826 12.861 25.677 25.697a28652 28652 0 0 1 32.502 32.51q5.16 5.166 10.327 10.326 6.976 6.97 13.932 13.959 2.544 2.552 5.096 5.097c25.888 25.82 42.56 52.311 42.962 89.87-.436 39.53-22.605 66.363-49.213 92.953l-5.139 5.158q-6.209 6.233-12.43 12.454-5.056 5.058-10.109 10.12A40866 40866 0 0 1 265.4 406.97l-1.558 1.56-1.561 1.56a20512 20512 0 0 0-25.075 25.121 20662 20662 0 0 1-25.82 25.86 8890 8890 0 0 0-14.467 14.494 5025 5025 0 0 1-13.595 13.6q-2.494 2.49-4.978 4.992a1417 1417 0 0 1-6.814 6.806l-1.97 2.001c-6.033 5.943-11.886 9.608-20.562 9.599-7.832-.235-11.84-2.488-17.312-7.813-3.64-5.93-5.174-11.38-4.403-18.316 2.257-7.682 6.383-12.674 11.982-18.156l2.223-2.224c2.45-2.447 4.913-4.879 7.376-7.311q2.646-2.634 5.288-5.27a5425 5425 0 0 1 11.39-11.318c5.507-5.456 11-10.926 16.491-16.399q13.383-13.34 26.787-26.66l1.618-1.608 25.961-25.797q13.349-13.268 26.677-26.555a7720 7720 0 0 1 16.441-16.34 5331 5331 0 0 0 12.61-12.546q2.576-2.565 5.163-5.119c15.957-15.76 28.36-31.343 28.774-54.912-.56-28.439-19.006-45.328-37.905-64.108l-5.098-5.079q-5.463-5.444-10.931-10.884c-5.765-5.736-11.525-11.48-17.283-17.223l-5.926-5.91-1.495-1.492-16.8-16.752-1.55-1.544a40559 40559 0 0 0-24.909-24.803 21469 21469 0 0 1-25.616-25.535q-7.173-7.165-14.366-14.31a5218 5218 0 0 1-13.492-13.45 1611 1611 0 0 0-4.953-4.924c-2.26-2.238-4.509-4.489-6.754-6.743l-1.986-1.948c-5.71-5.78-9.529-11.99-10.096-20.221.274-6.707 2.99-11.785 7.301-16.785 4.565-3.84 8.783-4.939 14.668-4.945"/></svg>