<svg xmlns="http://www.w3.org/2000/svg" width="512" height="512"><path fill="#FFF" d="M200.336 85.66c6.09 2.695 10.194 7.265 13.039 13.215 1.746 8.729.433 14.59-4.375 22.125-3.38 4.049-7.09 7.725-10.849 11.417q-1.658 1.655-3.312 3.314c-2.977 2.978-5.968 5.94-8.962 8.899-3.135 3.103-6.255 6.22-9.377 9.337a8482 8482 0 0 1-17.743 17.636c-6.745 6.69-13.476 13.392-20.205 20.097A27224 27224 0 0 1 97 233l2.402.003a185235 185235 0 0 1 157.803.26l3.401.006c18.179.036 36.357.06 54.536.081q27.975.033 55.949.099 17.265.04 34.53.05 11.835.01 23.67.047c4.555.014 9.108.023 13.662.019q6.255-.004 12.51.028 2.261.009 4.523 0c8.905-.028 15.846.402 23.702 4.97 4.623 4.873 7.563 10.67 7.937 17.437-.35 5.7-2.212 10.431-5.625 15-6.147 5.392-11.287 7.12-19.364 7.139l-3.993.016-4.398.003-4.664.015q-6.416.02-12.833.028-6.916.013-13.833.034-11.985.033-23.972.056-17.33.035-34.66.08-28.114.071-56.23.132a204184 204184 0 0 0-74.915.174q-70.069.17-140.138.323l1.756 1.745q21.162 21.03 42.289 42.092a15595 15595 0 0 0 20.45 20.356 9628 9628 0 0 1 17.822 17.748q4.71 4.705 9.439 9.392 4.453 4.413 8.881 8.852a698 698 0 0 0 3.262 3.237 604 604 0 0 1 4.45 4.446l2.517 2.506c4.83 5.945 5.738 11.927 5.548 19.466-.795 6.068-3.907 9.96-8.289 14.035-5.416 3.683-10.641 4.694-17.125 4.125-13.404-2.953-24.846-18.684-34.318-28.125q-2.089-2.078-4.178-4.153-6.786-6.75-13.563-13.507l-4.695-4.68a34936 34936 0 0 1-19.516-19.464 18003 18003 0 0 0-27.875-27.769 10874 10874 0 0 1-19.67-19.606A4470 4470 0 0 0 52.46 298.02q-5.519-5.475-11.005-10.98a855 855 0 0 0-4.033-4.008C21.094 266.905 21.094 266.905 20.375 256c.877-13.03 11.349-21.43 20.019-30.025q2.229-2.237 4.456-4.477a3606 3606 0 0 1 12.087-12.073c4.23-4.213 8.446-8.44 12.665-12.663q10.626-10.631 21.277-21.238 12.301-12.256 24.565-24.55 11.817-11.838 23.66-23.652 5.032-5.022 10.053-10.055 5.915-5.925 11.857-11.824 2.175-2.165 4.339-4.34c1.973-1.982 3.959-3.952 5.948-5.919l1.711-1.736c7.757-7.598 16.537-10.836 27.324-7.788"/></svg>