<svg xmlns="http://www.w3.org/2000/svg" width="512" height="512"><path fill="#FFF" d="m448.875-.5 2.934.034C459.471-.258 465.932.9 473 4l2.613 1.063c16.052 7.189 27.29 20.971 33.72 37.017 7.176 20.64 1.233 42.856-3.251 63.421-.875 4.038-1.724 8.082-2.576 12.125a5539 5539 0 0 1-4.468 20.939 9864 9864 0 0 0-6.475 30.351 31560 31560 0 0 1-9.864 46.345 24716 24716 0 0 0-16.813 79.462l-4.743 22.541a79259 79259 0 0 1-13.092 62.117q-2.61 12.37-5.231 24.739a4529 4529 0 0 0-2.073 9.869q-1 4.765-2.006 9.53l-.712 3.436C434.072 445.637 426.414 461.422 414 476l-2.012 2.57C396.61 497.362 370.664 508.91 347 512c-34.329 2.299-61.755-5.536-87.869-28.25-4.698-4.19-9.116-8.643-13.53-13.129l-2.462-2.503c-3.365-3.43-6.724-6.866-10.07-10.316a1505 1505 0 0 0-7.467-7.618l-2.261-2.358-2.167-2.188-1.864-1.915c-5.579-4.16-11.502-5.168-18.372-5.108l-2.31-.016a631 631 0 0 0-4.923-.01c-2.608.005-5.216-.01-7.825-.028-5.543-.037-11.086-.05-16.63-.061-6.416-.012-12.832-.034-19.248-.08-2.55-.013-5.1-.01-7.65-.005-11.87-.04-22.632-1.445-33.352-6.915l-2.035-1.034C91.915 422.417 81.925 408.83 76 393c-2.398-8.102-2.295-16.15-2.305-24.523q-.008-3.93-.04-7.86c-.056-7.442-.087-14.885-.111-22.328q-.025-6.853-.085-13.706a783 783 0 0 1-.018-5.197 807 807 0 0 0-.04-7.277l.014-2.137c-.099-6.826-1.877-12.944-6.605-17.975l-1.865-2.005L63 288l-1.897-1.946a573 573 0 0 0-6.056-6q-2.284-2.257-4.567-4.515a2925 2925 0 0 0-7.081-6.969C25.079 250.59 10.404 232.97 3 208l-1.035-3.43C-4.79 177.36.506 148.42 14 124.254c13.849-22.531 35.057-40.25 60.666-47.688l2.225-.648c8.132-2.3 16.375-3.962 24.663-5.587 5.362-1.053 10.718-2.137 16.075-3.217l3.615-.727c15.807-3.19 31.584-6.525 47.363-9.852l7.768-1.636q14.84-3.126 29.679-6.256 14.167-2.987 28.335-5.972l45.532-9.596q29.978-6.32 59.958-12.63l2.05-.431 21.321-4.488 30.94-6.513 16.415-3.454q6.341-1.33 12.675-2.7l2.604-.559q2.429-.522 4.854-1.054c6.06-1.298 11.93-1.875 18.137-1.746m-23.492 47.48-3.565.739-3.934.84q-2.08.438-4.163.871-5.73 1.202-11.46 2.42c-4.11.87-8.22 1.732-12.331 2.594a18067 18067 0 0 0-24.136 5.09q-14.04 2.966-28.084 5.918a73090 73090 0 0 0-52.815 11.136 106135 106135 0 0 1-55.824 11.775l-2.857.602q-26.014 5.483-52.026 10.972l-2.648.56a100512 100512 0 0 0-41.904 8.849q-11.708 2.47-23.409 4.967-4.44.943-8.885 1.875l-4.825 1.033-2.055.424c-16.205 3.525-28.605 14.171-37.782 27.613-8.5 13.876-11.873 29.487-8.989 45.605 2.72 11.14 6.786 20.564 14.293 29.29l1.549 1.801c4.727 5.391 9.773 10.433 14.889 15.452l2.534 2.487c3.469 3.396 6.943 6.786 10.437 10.157 16.944 16.384 28.708 31.253 29.193 55.817.02 2.085.022 4.17.023 6.254q.023 2.221.05 4.442c.044 3.842.064 7.684.08 11.526.019 3.942.06 7.885.1 11.827.076 7.695.126 15.39.161 23.084 6.978-5.71 13.25-12.114 19.61-18.49l3.855-3.852q5.28-5.279 10.556-10.563 5.697-5.701 11.396-11.398 9.87-9.87 19.734-19.742 14.263-14.274 28.531-28.543 23.149-23.153 46.292-46.31 22.48-22.496 44.964-44.985l2.8-2.801 13.91-13.913Q376.327 104.707 434 47c-3.517-1.172-5.021-.778-8.617-.02M465 78a1118022 1118022 0 0 0-135.01 134.955l-1.431 1.43a404572 404572 0 0 1-45.98 45.96q-24.285 24.27-48.565 48.546-14.553 14.552-29.112 29.1a57006 57006 0 0 0-19.932 19.925q-5.757 5.76-11.52 11.514-5.265 5.259-10.525 10.524-1.912 1.913-3.827 3.823a3274 3274 0 0 0-5.163 5.165l-1.536 1.528c-2.37 1.93-2.37 1.93-3.399 4.53l2.474.004q11.647.026 23.295.128c3.99.034 7.98.06 11.971.064 3.865.004 7.729.033 11.594.077q2.19.02 4.381.013c17.82-.043 34.084 4.754 47.344 17.237a477 477 0 0 1 4.949 5.067l2.701 2.737q3.513 3.567 7.002 7.157c3.272 3.363 6.56 6.71 9.851 10.053q2.615 2.657 5.21 5.333c7.45 7.603 15.277 14.75 24.916 19.442l2.045 1.006c15.892 7.438 32 6.99 48.443 1.65 17.451-6.7 28.722-19.304 36.853-35.729 1.607-3.705 2.416-7.5 3.237-11.442l.618-2.837A1776 1776 0 0 0 398 405l1.256-5.898a7974 7974 0 0 0 5.939-28.218q1.42-6.78 2.842-13.562 3.069-14.632 6.132-29.266a205472 205472 0 0 1 12.202-58.225c5.878-28.039 11.789-56.07 17.752-84.092a48712 48712 0 0 0 5.826-27.408q2.97-13.979 5.962-27.95a9372 9372 0 0 0 3.686-17.297q1.046-4.938 2.11-9.873c.76-3.53 1.509-7.061 2.256-10.594l.68-3.12.594-2.843.524-2.45c.256-2.36-.134-3.937-.761-6.204"/></svg>