<svg xmlns="http://www.w3.org/2000/svg" width="512" height="512"><path fill="#FFF" d="m125.382-.147 3.492-.011q4.784-.014 9.569-.017 5.166-.007 10.332-.022c8.315-.02 16.63-.03 24.945-.039l11.768-.015a52344 52344 0 0 1 49.314-.044l2.549-.002c13.606-.008 27.212-.033 40.818-.066q20.988-.049 41.976-.054c7.847-.002 15.693-.01 23.54-.036q10.03-.034 20.061-.02 5.108.007 10.214-.017C406.538-.647 433.634 6.739 458 29l2.238 1.988c18.583 17.391 26.014 41.473 32.637 65.262q1.033 3.648 2.068 7.295a5193 5193 0 0 1 4.11 14.578 1325 1325 0 0 0 5.424 18.647q1.154 3.924 2.303 7.85.708 2.4 1.434 4.798c6.548 21.665 6.548 21.665 2.753 31.17-3.23 5.7-7.767 9.34-13.967 11.412-6.678.644-13.37 1.082-19-3-6.816-5.68-9.374-13.393-11.67-21.704l-.716-2.517q-.762-2.683-1.514-5.37-1.197-4.269-2.412-8.53a8118 8118 0 0 1-5.125-18.129 8868 8868 0 0 0-5.94-20.983q-1.18-4.173-2.347-8.348c-6.426-22.74-14.481-40.181-35.538-52.468-11.479-6.281-24.037-7.246-36.863-7.576l-3.766-.117Q367.555 43.117 363 43l.027 1.768c.089 6.1.149 12.2.193 18.3q.03 3.41.082 6.82c.049 3.277.071 6.554.089 9.83l.062 3.057c.002 7.286-1.383 12.668-6.2 18.248l-1.69 1.352-1.684 1.398c-5.671 3.702-11.287 4.074-17.879 3.227-7.125-2.257-11.305-5.564-15-12-5.482-16.447-1-34.663-1-52H193v43c-2.907 13.082-2.907 13.082-9.164 17.543-6.179 3.501-11.81 4.574-18.836 3.457-6.18-1.814-10.507-5.65-14-11-1.597-3.468-2.247-6.164-2.227-9.974v-2.91l.032-3.104.008-3.207c.011-3.373.037-6.745.062-10.118q.016-3.435.027-6.869.034-8.409.098-16.818c-26.624.339-49.054 2.443-68.625 22.5-8.521 10.464-12.802 23.716-16.355 36.523a2009 2009 0 0 0-4.549 16.012 2754 2754 0 0 1-3.313 11.637 3559 3559 0 0 0-5.561 19.7 476 476 0 0 1-3.392 11.52c-.25.83-.5 1.66-.759 2.514a181 181 0 0 1-1.344 4.255c-2.226 7.458.832 14.128 4.28 20.75 2.953 4.727 6.69 8.66 10.618 12.589l1.563 1.562c9.466 8.607 19.763 9.643 31.972 9.678 1.997.01 3.994.041 5.99.072 13.734.055 25.47-2.139 35.92-11.503 8.645-8.888 11.61-18.134 12.83-30.145.9-8.34 3.44-13.116 9.846-18.437 5.671-3.702 11.287-4.074 17.879-3.227 5.946 1.884 10.813 4.674 14.113 10.07 2.054 4.47 2.68 9.118 3.235 13.973 1.482 12.045 6.07 22.897 15.715 30.605 7.488 5.33 14.298 7.224 23.375 8.227 8.018.99 15.264 2.82 20.562 9.312 3.421 5.614 4.582 11.971 3.5 18.438-1.53 5.474-4.364 10.318-9.179 13.476-5.141 2.867-9.491 3.537-15.321 3.399l-2.496-.034c-21.336-.663-40.275-10.032-55.445-24.779-2.002-2.004-2.002-2.004-5.059-1.687-1.645 1.471-1.645 1.471-3.312 3.437-8.753 9.04-20.759 15.728-32.688 19.563l-2.473.818c-10.386 2.919-20.869 2.601-31.576 2.518-3.274-.024-6.546-.02-9.82-.014q-3.154-.007-6.307-.021l-2.933.003-2.783-.03-2.411-.013C71 255.903 67.587 254.958 64 254q.126 33.303.288 66.604.076 15.465.134 30.929.05 13.485.12 26.97.04 7.134.061 14.269.02 6.728.064 13.457.014 2.456.017 4.913c.025 16.476.736 32.637 12.629 45.335C83.143 461.74 89.403 465.073 97 467l2.055.525c4.076.657 8.076.62 12.198.617l2.8.01q3.006.012 6.01.017 4.761.012 9.522.041c9.024.052 18.047.1 27.07.116 5.524.01 11.048.04 16.571.081q3.151.02 6.302.015c2.944-.002 5.887.02 8.83.048l2.61-.02c7.329.113 12.58 2.153 17.845 7.3 3.996 5.938 6.395 11.962 5.187 19.25-2.136 7.465-6.151 12.207-12.836 16.058-2.378 1.035-3.986 1.198-6.568 1.21l-2.654.025-2.889-.002-3.061.02c-3.348.019-6.695.023-10.043.025l-7.004.02q-7.356.017-14.71.015c-6.25 0-12.499.027-18.748.061-4.83.023-9.659.026-14.488.025q-3.453.004-6.905.027c-12.666.078-24.075-.197-36.094-4.484l-3.309-1.177c-20.928-7.802-37.843-25.032-47.203-45.057-6.042-14.88-6.909-28.73-6.778-44.534q.009-3.092.013-6.184.014-6.619.05-13.238c.035-6.986.042-13.971.042-20.957.005-19.856.034-39.712.126-59.568q.077-16.48.053-32.96c-.01-6.936.02-13.871.08-20.808.027-4.322.017-8.643-.005-12.965q-.003-2.993.04-5.984C21.294 231.591 20.027 224.575 11 215 1.302 200.022-2.819 180.033.68 162.61c2.09-8.803 4.603-17.488 7.14-26.17 1.014-3.492 2.001-6.99 2.99-10.489a2871 2871 0 0 1 5.38-18.699q1.845-6.352 3.647-12.718 1.197-4.217 2.403-8.432.828-2.913 1.645-5.83C28.123 65.504 34.051 51.85 44 40l2.148-2.566C66.528 14.014 94.12-.153 125.382-.147"/><path fill="#FFF" d="M436.719 208.96c18.443 14.352 29.535 34.18 32.914 57.13.43 4.582.466 9.086.43 13.683l-.01 2.607c-.014 3.573-.03 7.144-.125 10.716-.67 10.392-.67 10.392 3.19 19.543 2.555 1.78 5.044 3.092 7.882 4.361 16.82 12.918 28.003 33.082 31 54 .103 2.252.158 4.507.177 6.761l.02 1.964c.02 2.131.031 4.262.041 6.392l.013 2.23q.03 5.853.044 11.707c.011 3.985.045 7.969.085 11.953.027 3.103.035 6.205.038 9.308q.008 2.199.035 4.398c.162 13.408-1.726 26.637-8.203 38.6l-1.046 1.996C492.332 486.56 475.007 501.932 453 509l-2.333.767c-11.75 3.264-23.778 2.686-35.874 2.667l-7.363.015q-7.692.014-15.383-.003c-6.533-.011-13.065.009-19.597.038-5.065.018-10.13.018-15.194.012q-3.61 0-7.22.019c-16.244.072-31.703-.335-46.348-8.265l-1.997-1.046C281.528 492.38 265.94 474.995 259 453c-2.772-9.628-3.46-18.85-3.434-28.8l-.015-4.471q-.013-4.656.003-9.31c.011-3.93-.009-7.86-.038-11.789-.019-3.073-.018-6.145-.012-9.218q0-2.17-.019-4.34c-.176-23.57 8.366-44.794 24.515-62.072 9.511-8.96 9.511-8.96 14.637-11.103 2.774-1.794 2.774-1.794 2.975-5.64q.03-2.351-.01-4.702l.024-2.556c.023-2.708.013-5.415-.001-8.124-.043-29.094 5.076-53.683 25.723-75.348 31.407-29.927 78.732-31.55 113.37-6.566m-86.781 43.352C339.689 266.529 342 279.525 342 298h84c1.327-26.279 1.327-26.279-10-48l-2.312-2.625c-8.945-7.904-19.854-13.355-32.09-12.758-13.368 1.97-22.794 7.754-31.66 17.696M314 352l-2.625 2.313c-12.617 14.276-13.006 28.969-12.842 47.225.03 3.52.021 7.038.008 10.558q.01 3.407.025 6.814l-.008 3.136c.168 13.274 3.46 24.362 12.547 34.243 10.205 9.645 21.58 13.027 35.355 12.986l2.724.015c2.945.014 5.89.013 8.836.01l6.197.014q6.482.01 12.964.002c5.51-.006 11.02.01 16.531.034 4.265.015 8.53.016 12.795.013q3.045 0 6.09.015c16.69.073 31.28-.685 44.153-12.628 10.067-10.85 12.725-23.395 12.684-37.84l.015-3.353q.01-3.482-.003-6.965c-.008-3.518.02-7.034.052-10.551.054-17.11-1.075-30.698-13.06-43.853-9.79-8.787-19.116-12.492-32.222-12.479l-2.9-.02c-3.151-.019-6.302-.023-9.453-.025l-6.61-.02a4861 4861 0 0 0-13.847-.015c-5.89 0-11.778-.027-17.668-.061a2657 2657 0 0 0-13.654-.025q-3.255-.004-6.51-.027c-15.023-.098-27.798-.051-39.574 10.484"/><path fill="#FFF" d="M398.754 375.672c8.342 4.932 14.683 11.917 17.246 21.328 1.027 11.415.166 21.095-7.187 30.313-6.546 6.937-15.121 10.644-24.625 11-9.729-.266-17.267-3.432-24.188-10.313-7.76-9.704-9.171-18.862-8-31 1.929-8.372 7.983-15.245 15.063-19.875 9.519-5.756 21.647-6.137 31.69-1.453"/></svg>