<svg xmlns="http://www.w3.org/2000/svg" width="512" height="512"><path fill="#FFF" d="M265.52.91c5.115 3.042 9.16 7.129 11.6 12.602 1.216 4.821 1.127 9.403 1.075 14.355l-.008 3.136c-.011 3.29-.037 6.581-.062 9.872q-.016 3.356-.027 6.71Q278.064 55.794 278 64l3.637-.027q17.078-.122 34.154-.18c5.852-.021 11.703-.05 17.554-.095 5.66-.044 11.32-.067 16.981-.078q3.219-.01 6.436-.043c32.203-.314 60.03 9.435 83.426 32.11 11.941 12.022 20.735 27.667 25.625 43.813l.59 1.937c3.368 11.98 3.88 24.065 3.722 36.438q-.016 2.072-.027 4.145-.036 4.99-.098 9.98l3.586-.14c11.583-.322 20.995.136 29.883 8.437 6.245 6.946 8.833 14.271 8.822 23.585l.02 2.323c.019 2.522.023 5.043.025 7.565l.02 5.29q.017 5.539.015 11.078c0 4.714.027 9.428.061 14.142.022 3.641.026 7.283.025 10.925q.005 2.606.027 5.211c.14 17.296.14 17.296-4.484 24.584l-1.146 1.963C502.707 313.831 495.596 317.947 488 320c-3.13.23-6.238.19-9.375.125l-2.52-.027c-2.035-.024-4.07-.06-6.105-.098l.008 2.34q.1 28.247.147 56.493c.016 9.107.037 18.214.071 27.32q.046 11.912.056 23.825c.004 4.201.013 8.402.035 12.603q.03 5.945.022 11.889.001 2.169.019 4.338c.119 15.635-2.718 29.286-13.67 41.067-9.455 8.672-20.252 12.663-32.938 12.625l-2.582.086c-15.999.048-28.188-9.87-40.73-18.586q-2.46-1.696-4.92-3.387l-2.56-1.77a260 260 0 0 0-5.671-3.743c-5.857-3.815-11.101-7.761-16.226-12.526-34.637-31.716-75.416-27.143-119.49-25.882-13.297.376-26.597.515-39.898.67l-5.946.07c-.968.01-1.937.022-2.935.034q-8.513.107-17.025.327c-3.532.09-7.064.163-10.597.235q-2.422.056-4.844.136c-29.267.964-55.71-10.487-77.001-30.383-19.146-18.59-30.415-45.18-31.484-71.722-.036-3.98-.017-7.954.034-11.934q.016-2.072.027-4.145.035-4.99.098-9.98l-3.586.14c-11.583.322-20.995-.136-29.883-8.437-6.24-6.94-8.833-14.263-8.822-23.57l-.02-2.318a1118 1118 0 0 1-.025-7.55l-.02-5.283q-.017-5.532-.015-11.065c0-4.705-.027-9.41-.061-14.114-.022-3.638-.026-7.276-.025-10.913a683 683 0 0 0-.027-5.2c-.096-11.76.344-22.125 8.78-31.159 7.532-6.77 15.139-8.862 25.079-8.656l2.52.027c2.035.024 4.07.06 6.105.098l-.032-2.532q-.051-4.758-.078-9.516c-.015-2.02-.04-4.038-.066-6.057-.057-11.647.913-23.081 4.301-34.27l.644-2.134c8.29-26.088 27.113-49.064 51.438-61.745 14.941-7.437 30.35-12.11 47.13-11.973h2.93c3.155 0 6.31.016 9.463.032l6.612.008a6835 6835 0 0 1 17.306.05c5.9.02 11.798.03 17.698.04q17.327.032 34.654.097l-.027-1.724c-.089-5.954-.149-11.908-.193-17.862q-.03-3.327-.082-6.654c-.049-3.2-.071-6.4-.089-9.6l-.062-2.974c-.002-7.185 1.143-13.682 6.233-19.07 7.267-6.562 16.21-8.648 25.74-5.206M98.875 131.543c-11.093 15.037-13.33 30.729-13.28 48.84q-.008 2.743-.02 5.488c-.018 4.938-.017 9.876-.01 14.814q.001 6.207-.01 12.412-.02 14.654-.001 29.307c.011 10.044-.003 20.087-.03 30.132q-.032 12.98-.022 25.963c.003 5.155 0 10.31-.017 15.465q-.021 7.278.008 14.555.005 2.655-.01 5.308c-.109 19.727 4.056 37.02 17.976 51.918 8.124 8.164 18.376 14.343 29.541 17.255l1.846.502c8.55 2.03 17.16 1.784 25.885 1.77q2.675.006 5.35.015 5.734.017 11.468.018c6.047.002 12.095.02 18.142.04 15.014.05 30.029.08 45.043.102 11.683.017 23.367.04 35.05.083q9.015.032 18.028.028c3.738.001 7.476.015 11.214.033q2.595.008 5.192 0c2.366-.005 4.732.007 7.098.024l2.064-.02c6.47.084 11.427 2.412 16.771 5.947l2.252 1.479 2.394 1.596 2.579 1.701c2.795 1.847 5.585 3.702 8.374 5.557l5.838 3.865c19.989 13.246 39.865 26.66 59.715 40.114 3.13 2.496 3.13 2.496 6.885 2.771L426 468a90934 90934 0 0 0 .22-129.913l.003-2.762c.017-14.733.049-29.467.086-44.2q.056-22.695.067-45.39.008-13.992.056-27.983.03-9.61.022-19.217c-.003-3.69.001-7.38.023-11.07.135-24.375-1.65-44.59-19.653-62.805-17.32-16.314-37.263-18.117-59.906-18.064l-6.608-.02c-5.946-.019-11.892-.018-17.839-.012-4.98.003-9.96-.003-14.939-.009-12.426-.015-24.852-.011-37.278 0-10.755.01-21.51-.002-32.265-.026a12004 12004 0 0 0-33.252-.027q-9.309.006-18.619-.017-8.759-.021-17.518.008-3.197.005-6.394-.01c-25.051-.114-46.652 5.1-63.331 25.06"/><path fill="#FFF" d="M188.375 298.563c31.042 17.723 64.33 25.218 99.358 15.736 14.117-4.138 27.589-10.322 40.056-18.112 5.87-3.514 11.926-5.03 18.746-3.688 5.766 1.63 10.388 4.292 13.719 9.438 3.318 6.475 4.135 13.296 2.086 20.329-3.885 8.812-12.404 13.244-20.527 17.609l-2.926 1.577c-41.235 21.794-86.77 28.073-131.637 14.263-12.943-4.151-25.095-9.39-37.062-15.84l-2.768-1.487c-8-4.44-15.713-9.169-18.42-18.388-1.1-6.923-.11-12.649 3.309-18.766 3.308-4.37 7.664-7.23 12.847-8.949 9.195-.922 15.43 1.606 23.219 6.277M351.89 177.133c6.722 5.95 10.668 13.132 11.356 22.058.368 10.325-1.325 17.565-7.871 25.621-5.693 6.024-12.982 9.742-21.258 10.426-10.268.235-18.212-1.93-26.297-8.41-6.63-6.658-9.727-14.939-10.132-24.203.29-9.95 4.119-17.36 11.011-24.348 12.429-11.367 29.84-10.661 43.192-1.144M200.25 175.75c7.257 5.938 12.609 12.664 13.75 22.25.868 10.608-2.103 19.854-9 28-6.768 6.54-14.065 9.096-23.375 9.438-9.916-.29-17.487-3.275-24.68-10.145-7.399-8.722-8.79-18.188-7.945-29.293 2.147-8.992 7.075-16.422 14.875-21.375 11.653-6.41 25.274-6.783 36.375 1.125"/></svg>