<svg xmlns="http://www.w3.org/2000/svg" width="512" height="512"><path fill="#EC6223" d="m229.488-.177 3.778-.039 4.047-.022 2.1-.013q5.524-.03 11.05-.044 4.494-.014 8.988-.062C277.364-.544 294.432.006 312 4l3.535.746a180 180 0 0 1 7.902 1.941l2.814.75C367.59 18.856 404.045 40.516 435 70l1.815 1.728c8.337 7.998 15.983 16.212 22.866 25.495a520 520 0 0 0 4.124 5.46c6.368 8.428 12 17.124 17.195 26.317l1.1 1.91c14.98 26.168 24.211 55.388 28.9 85.09l.512 3.24c.45 3.463.633 6.761.665 10.248l.039 3.778q.013 2.024.022 4.046l.013 2.1q.03 5.526.044 11.05.014 4.495.062 8.99c.187 17.912-.363 34.98-4.357 52.548l-.746 3.535a179 179 0 0 1-1.942 7.902l-.748 2.814C495.83 357.861 481.057 387.108 461 413l-2.078 2.723C453.652 422.48 447.908 428.799 442 435c-.858.9-.858.9-1.732 1.82-8.009 8.348-16.233 15.993-25.53 22.883a278 278 0 0 0-5.105 3.926C378.353 487.787 340.732 503.03 302 510l-2.843.52c-8.391 1.424-16.554 1.801-25.055 1.816l-4.219.02q-4.4.017-8.799.015-4.432 0-8.865.04c-17.799.163-34.762-.46-52.219-4.411l-3.536-.746a180 180 0 0 1-7.901-1.942l-2.814-.748C144.41 493.143 107.955 471.482 77 442l-1.815-1.728c-8.34-8-15.986-16.217-22.87-25.504a438 438 0 0 0-4.085-5.381c-6.389-8.407-11.93-17.15-17.09-26.36a437 437 0 0 0-3.19-5.558C13.891 352.454 5.457 324.24 1 296l-.512-3.24c-.45-3.463-.633-6.761-.665-10.248l-.039-3.778-.022-4.047-.013-2.1q-.03-5.524-.044-11.05-.014-4.494-.062-8.988C-.544 234.639-.007 217.563 4 200l.762-3.567a187 187 0 0 1 1.988-7.996l.761-2.837C16.27 153.889 30.98 125.03 51 99l2.082-2.73C58.354 89.516 64.093 83.199 70 77l1.732-1.82c7.996-8.335 16.21-15.979 25.491-22.86a520 520 0 0 0 5.46-4.125c8.428-6.368 17.124-12 26.317-17.195l1.91-1.1C157.078 14.92 186.298 5.689 216 1l3.24-.512c3.463-.45 6.761-.633 10.248-.665"/><path fill="#FFF" d="M183.729 126.949c7.632 4.652 13.545 11.027 19.737 17.383a1305 1305 0 0 0 6.181 6.29 4919 4919 0 0 1 17.554 17.867q5.375 5.493 10.788 10.952a704 704 0 0 1 4.09 4.18 697 697 0 0 0 5.713 5.805l1.688 1.767c3.015 2.999 3.015 2.999 7.02 4.023 3.552-1.727 6.026-4.276 8.72-7.093l1.826-1.858a870 870 0 0 0 3.907-4.01c2.065-2.129 4.143-4.245 6.226-6.357a4116 4116 0 0 0 17.696-18.081c3.602-3.7 7.221-7.38 10.852-11.052a585 585 0 0 0 4.093-4.203c10.91-11.314 21.707-20.548 38.18-20.874 12.86-.015 21.947 4.329 30.969 13.261 8.71 9.393 11.544 19.528 11.343 32.262-1.29 15.652-12.001 25.887-22.644 36.255a1305 1305 0 0 0-6.29 6.181 4919 4919 0 0 1-17.867 17.554q-5.493 5.375-10.952 10.788a704 704 0 0 1-4.18 4.09 697 697 0 0 0-5.805 5.713l-1.767 1.688c-2.999 3.015-2.999 3.015-4.023 7.02 1.727 3.552 4.276 6.026 7.093 8.72l1.858 1.826a870 870 0 0 0 4.01 3.907c2.129 2.065 4.245 4.143 6.357 6.226a4116 4116 0 0 0 18.081 17.696c3.7 3.602 7.38 7.221 11.052 10.852a585 585 0 0 0 4.203 4.093c11.314 10.91 20.548 21.707 20.874 38.18.015 12.921-4.394 21.745-13.156 30.934-9.206 8.772-19.862 11.585-32.261 11.343-15.69-1.117-26-11.973-36.361-22.61a1305 1305 0 0 0-6.181-6.288 4919 4919 0 0 1-17.554-17.868q-5.375-5.493-10.788-10.952a704 704 0 0 1-4.09-4.18 697 697 0 0 0-5.713-5.805l-1.688-1.767c-3.015-2.999-3.015-2.999-7.02-4.023-3.552 1.727-6.026 4.276-8.72 7.093l-1.826 1.858a870 870 0 0 0-3.907 4.01 1066 1066 0 0 1-6.226 6.357 4116 4116 0 0 0-17.696 18.081c-3.602 3.7-7.221 7.38-10.852 11.052a585 585 0 0 0-4.093 4.203c-10.91 11.314-21.707 20.548-38.18 20.875-12.86.014-21.947-4.33-30.969-13.262-8.71-9.393-11.544-19.528-11.344-32.262 1.291-15.652 12.002-25.887 22.645-36.255 2.105-2.052 4.198-4.115 6.29-6.181a4919 4919 0 0 1 17.867-17.554q5.493-5.375 10.952-10.788a704 704 0 0 1 4.18-4.09 697 697 0 0 0 5.805-5.713l1.767-1.688c2.999-3.015 2.999-3.015 4.023-7.02-1.727-3.552-4.276-6.026-7.093-8.72l-1.858-1.826a870 870 0 0 0-4.01-3.907 1066 1066 0 0 1-6.357-6.226 4116 4116 0 0 0-18.081-17.696c-3.7-3.602-7.38-7.221-11.052-10.852a585 585 0 0 0-4.203-4.093c-11.314-10.91-20.548-21.707-20.875-38.18-.014-12.86 4.33-21.947 13.262-30.969 13.519-12.536 32.53-15 48.78-6.082"/></svg>