<svg xmlns="http://www.w3.org/2000/svg" width="512" height="512"><path fill="#FFF" d="M186.952 130.722c5.945 4.443 11.035 9.758 16.232 15.036q1.844 1.851 3.69 3.7 3.84 3.852 7.662 7.721 4.889 4.945 9.8 9.869 4.71 4.726 9.41 9.46l1.796 1.806q2.522 2.54 5.038 5.089l1.49 1.499c2.85 2.894 5.404 5.922 7.93 9.098 2.573 1.887 3.663 2.028 6.873 1.762 3.503-.854 4.773-1.794 7.277-4.329l2.296-2.287 2.425-2.494 2.547-2.561c2.685-2.706 5.352-5.43 8.02-8.153q2.686-2.712 5.376-5.42c10.089-10.162 10.089-10.162 19.683-20.786C314.986 137.646 328.315 124.663 345 123c12.758-.144 22.667 3.24 32 12 8.047 8.413 11.617 18.091 12.152 29.672-.788 17.224-13.045 28.68-24.57 40.074l-3.562 3.556a2903 2903 0 0 1-7.42 7.38 3518 3518 0 0 0-9.482 9.437q-4.546 4.536-9.098 9.065l-1.735 1.729q-2.44 2.429-4.887 4.85l-2.8 2.78c-2.437 2.305-4.976 4.37-7.598 6.457-1.744 2.378-1.996 3.652-2.033 6.606 1.58 5.19 5.11 8.106 8.943 11.828l2.427 2.412c2.564 2.543 5.144 5.067 7.725 7.592q2.568 2.541 5.131 5.087c9.787 9.695 9.787 9.695 20.016 18.913C372.883 313.491 387.242 327.365 389 345c.157 13.915-4.101 23.81-13.691 33.754-7.744 7.168-17.698 10.151-28.137 10.281-16.615-.951-27.849-12.26-38.942-23.476q-1.814-1.82-3.632-3.638-3.784-3.792-7.556-7.598c-3.215-3.243-6.44-6.478-9.666-9.71a8481 8481 0 0 1-9.27-9.304l-1.772-1.778q-2.49-2.501-4.974-5.01l-1.472-1.475c-2.839-2.874-5.376-5.887-7.888-9.046-2.369-1.737-3.652-1.994-6.592-2.047-5.273 1.62-8.275 5.28-12.06 9.176l-2.48 2.494c-2.614 2.635-5.21 5.287-7.806 7.94q-2.614 2.64-5.232 5.275c-9.903 9.987-9.903 9.987-19.322 20.425C197.786 373.613 184.056 387.3 167 389c-12.758.144-22.667-3.24-32-12-8.047-8.413-11.617-18.091-12.152-29.672.788-17.224 13.045-28.68 24.57-40.074l3.562-3.556q3.703-3.697 7.42-7.38c3.168-3.138 6.326-6.286 9.482-9.437q4.546-4.536 9.098-9.065l1.735-1.729q2.44-2.429 4.887-4.85l2.8-2.78c2.437-2.305 4.976-4.37 7.598-6.457 1.88-2.564 2.027-3.662 1.773-6.862-.883-3.583-1.923-4.902-4.523-7.472l-2.41-2.417-2.625-2.558-2.696-2.681a1429 1429 0 0 0-7.127-7.02c-2.398-2.354-4.78-4.725-7.163-7.094-10.537-10.482-10.537-10.482-21.555-20.45-11.41-9.85-23.112-22.778-24.674-38.446-.144-12.749 3.233-22.679 12-32 15.086-14.188 34.75-15.58 51.952-4.278"/></svg>