<svg xmlns="http://www.w3.org/2000/svg" width="512" height="512"><path fill="#FFF" d="m52.046-.134 2.162-.007q3.603-.009 7.206-.006l5.205-.011q7.165-.014 14.332-.017 7.723-.007 15.446-.022c12.44-.02 24.881-.03 37.322-.039l17.575-.015a116440 116440 0 0 1 77.399-.046c20.347-.008 40.695-.033 61.042-.066q31.337-.049 62.673-.054c11.729-.002 23.458-.01 35.187-.036q14.985-.034 29.971-.02c5.095.004 10.19.002 15.286-.017q7.005-.026 14.01-.001 2.528.004 5.052-.014c18.184-.12 32.333 4.44 45.762 17.025 8.407 8.972 14.435 21.371 14.458 33.808l.014 3.294v3.616l.01 3.844q.014 5.284.017 10.57.007 5.697.022 11.396c.02 9.178.03 18.356.039 27.533l.015 12.973a63491 63491 0 0 1 .044 54.334l.002 2.81c.008 15.013.033 30.026.066 45.039q.049 23.132.054 46.264c.002 8.655.01 17.31.036 25.966q.034 11.06.02 22.12c-.004 3.76-.002 7.517.017 11.276.021 4.086.01 8.17-.002 12.256l.033 3.556c-.13 16.919-6.64 30.103-18.521 41.825-11.92 10.621-25.994 14.247-41.637 14.057l-2.523-.017a2194 2194 0 0 1-5.44-.045c-3.99-.038-7.979-.065-11.968-.092l-6.44-.046c-13.795-.101-27.589-.125-41.383-.153-13.42-.028-26.837-.08-40.256-.208a2960 2960 0 0 0-32.021-.136c-5.641.006-11.28-.015-16.92-.1a683 683 0 0 0-15.936-.045 210 210 0 0 1-5.814-.067c-9.807-.238-16.83.28-24.38 7-2.595 2.547-5.048 5.192-7.464 7.908-3.038 3.25-6.436 6.064-9.818 8.944-2.017 1.815-4.007 3.658-6 5.5a525 525 0 0 1-11.875 10.625c-2.743 2.42-5.434 4.897-8.125 7.375-3.91 3.6-7.859 7.144-11.875 10.625-2.743 2.42-5.434 4.897-8.125 7.375-3.91 3.6-7.859 7.144-11.875 10.625-2.743 2.42-5.434 4.897-8.125 7.375-3.93 3.619-7.892 7.19-11.937 10.68a232 232 0 0 0-4.75 4.328c-12.432 11.587-12.432 11.587-21.188 12.117-6.362-.255-10.713-1.99-15.125-6.625-7.866-11.363-2.434-29.69-.934-42.648l.601-5.254q.784-6.84 1.574-13.68.806-7.01 1.609-14.02 1.57-13.7 3.15-27.398l-2.508.013q-11.76.06-23.52.09-6.045.015-12.09.048-5.844.032-11.69.039-2.218.005-4.436.021c-19.102.135-35.356-3.54-49.818-16.711C3.44 374.474-.471 360.174-.388 343.92l-.016-3.862c-.014-3.507-.01-7.014-.003-10.522.005-3.794-.008-7.588-.018-11.382-.017-7.422-.018-14.844-.013-22.266q.006-9.052-.002-18.106l-.003-2.608-.004-5.247c-.014-16.38-.009-32.761.003-49.142.01-14.967-.003-29.934-.027-44.9q-.037-23.085-.027-46.17c.003-8.633 0-17.264-.017-25.896q-.022-11.02.002-22.043c.009-3.745.011-7.489-.004-11.233-.017-4.07-.002-8.14.016-12.209l-.03-3.541c.143-16.011 6.209-28.9 17.05-40.469C23.6 7.69 31.78 3.78 41 1l1.71-.537c3.137-.634 6.135-.593 9.336-.597"/></svg>