<svg xmlns="http://www.w3.org/2000/svg" width="512" height="512"><path fill="#FFF" d="M179.238 48.906c3.95 2.639 6.294 5.517 7.762 10.094v10h138V59c2.251-5.369 4.647-8.61 10-11 5.627-.75 10.34-.8 15.5 1.688 3.975 3.676 7.353 6.91 7.598 12.574l-.036 2.425-.027 2.45L358 69l1.984-.105c14.432-.429 27.61 4.012 38.454 13.668Q400.734 84.766 403 87l2.75 2.438c7.442 8.475 13.352 20.57 13.387 32.026l.015 2.709.002 2.964.013 3.158q.019 5.256.026 10.513l.025 7.525q.034 11.305.052 22.611l.011 6.393a41108 41108 0 0 1 .071 51.253c.013 12.331.046 24.662.088 36.993q.063 19.014.071 38.027c.004 7.11.015 14.22.048 21.331q.045 10.045.025 20.09 0 3.675.025 7.35c.142 20.857-2.44 36.916-17.171 52.807-17.695 16.787-38.423 17.41-61.51 17.33q-3.91.008-7.821.02c-6.31.018-12.62.015-18.931.003q-7.703-.013-15.404-.006l-2.225.002-4.476.004c-13.951.011-27.902-.002-41.853-.023q-17.908-.025-35.815.003a17205 17205 0 0 1-46.175.014l-2.216-.002a6104 6104 0 0 0-15.362.012q-10.362.018-20.724-.02-3.787-.007-7.575.006c-21.931.07-40.492-1.49-57.136-17.32L63 403c-.576-.565-1.152-1.13-1.746-1.71-9.669-10.297-13.728-24.367-13.642-38.162l-.016-3.178c-.014-3.49-.007-6.98 0-10.47l-.02-7.538c-.017-6.102-.019-12.203-.014-18.305a7874 7874 0 0 0-.005-17.036l-.004-4.317c-.014-13.476-.009-26.952.003-40.428.01-12.306-.003-24.612-.027-36.918q-.037-18.99-.027-37.98c.003-7.098.001-14.196-.017-21.294q-.022-10.016.008-20.031.005-3.666-.01-7.332c-.079-19.856 1.859-36.911 16.122-52.102C77.494 73.444 92.47 68.641 111.13 68.805l3.728.008c3.902.011 7.804.036 11.706.062q3.984.017 7.97.027 9.734.034 19.467.098l-.042-1.854-.032-2.443-.042-2.417c.241-4.754 2.549-7.648 5.616-11.099 5.074-4.44 13.549-4.787 19.738-2.28m-95.425 65.782C75.043 130.714 80 166.505 80 176h307c.032-17.42.032-17.42-.153-34.838q-.034-2.248-.043-4.498c-.042-10.139-.527-18.982-7.78-26.791-5.125-4.885-10.23-8.01-17.461-8.06L358 102l-.297 2.195c-.894 5.781-1.67 10.324-5.703 14.805-4.954 3.538-10.11 3.854-16 3-4.86-2.34-7.593-5.186-10-10l-1-10H187l-1 10c-2.407 4.814-5.14 7.66-10 10-5.89.854-11.046.538-16-3-3.324-3.694-4.302-6.932-5.11-11.719l-.514-2.998L154 102c-7.365-.127-14.73-.215-22.095-.275q-3.753-.037-7.507-.102c-3.61-.061-7.218-.09-10.828-.111l-3.356-.078c-11.692-.005-19.095 4.277-26.401 13.254M80 208l-.125 76.375-.055 24.087c-.007 7.145-.007 7.145-.01 14.29q-.004 4.763-.021 9.524a2974 2974 0 0 0-.015 12.174q0 2.225-.012 4.451c-.063 12.453.098 23.247 8.804 32.822 7.276 6.87 15.733 7.724 25.364 7.658l3.234.014c3.558.012 7.116.003 10.674-.007q3.837.007 7.674.016 9.325.016 18.649.002 7.581-.01 15.162-.005l2.183.002 4.392.003c13.714.008 27.427-.002 41.14-.018q17.633-.018 35.266.003a22168 22168 0 0 0 45.373.01l2.174-.001a7909 7909 0 0 1 15.136.009q10.195.014 20.389-.015 3.739-.006 7.477.004c3.406.008 6.811-.002 10.217-.017l2.979.02c9.772-.083 16.87-2.372 24.002-9.155 6.227-7.176 7.077-15.709 7.07-24.934l.003-3.948-.01-4.295v-4.629q-.001-6.178-.013-12.355-.007-5.805-.006-11.609c-.006-11.304-.02-22.609-.033-33.913L387 208z"/></svg>