<svg xmlns="http://www.w3.org/2000/svg" width="512" height="512"><path fill="#FFF" d="m362.875-.5 3.492-.094c8.86 1.448 14.67 8.218 20.695 14.407l2.315 2.33c3.434 3.481 6.784 6.996 9.963 10.712 4.749 5.506 9.988 10.542 15.16 15.645 5.73 5.652 11.395 11.28 16.627 17.404 4.235 4.738 8.85 9.134 13.373 13.596 5.73 5.652 11.395 11.28 16.627 17.404 4.235 4.738 8.85 9.134 13.373 13.596 11.938 11.778 11.938 11.778 17.037 17.85 1.533 1.73 3.171 3.243 4.9 4.775 11.589 11.51 15.896 27.39 16.125 43.25-.124 19.612-7.229 33.478-20.562 47.625l-2.215 2.488c-7.51 8.412-15.528 16.319-23.55 24.24-6.001 5.933-6.001 5.933-11.657 12.194-5.512 6.447-11.723 12.276-17.753 18.233-7.376 7.22-7.376 7.22-14.325 14.845-5.477 6.427-11.672 12.225-17.675 18.155-5.64 5.577-11.244 11.134-16.398 17.173-12.7 14.877-12.7 14.877-22.532 16.04-6.686.26-12.575-.003-17.895-4.368-5.83-6.353-7.383-11.354-7.27-19.934.657-7.47 4.625-11.872 9.977-16.816 1.886-1.85 3.565-3.712 5.273-5.719 5.695-6.575 12.01-12.577 18.195-18.686 7.376-7.22 7.376-7.22 14.325-14.845 5.477-6.427 11.672-12.225 17.675-18.155 7.372-7.217 7.372-7.217 14.317-14.837 5.012-5.882 10.64-11.206 16.133-16.633q3.336-3.297 6.664-6.602c.5-.49.998-.981 1.512-1.487 2.414-2.397 4.708-4.842 6.871-7.464L454 193q-35.232-.106-70.464-.155-16.36-.022-32.721-.071-14.266-.046-28.534-.056-7.547-.004-15.095-.035-7.12-.03-14.237-.022-2.599-.001-5.198-.019c-20.997-.133-39.107 4.067-55.075 18.452-16.306 17.17-18.266 36.633-18.162 59.225.018 3.898.01 7.795-.004 11.693a5585 5585 0 0 0-.01 24.8c.012 9.605.01 19.21-.024 28.814-.007 3.827.01 7.655.027 11.482q-.008 3.536-.02 7.071c.01 1.053.022 2.106.034 3.192-.061 7.447-1.11 14.841-6.267 20.575-5.861 5.398-11.402 6.52-19.242 6.366-5.976-.62-9.584-2.92-13.82-7.062-5.051-7.504-5.627-13.98-5.576-22.796l-.016-3.434c-.013-3.733-.005-7.466.006-11.2q-.003-3.92-.01-7.84-.006-8.22.017-16.437c.016-6.287.011-12.574-.006-18.86-.015-6.093-.013-12.185-.004-18.277q.004-3.855-.008-7.71c-.077-36.003 7.363-65.873 32.721-92.446 22.42-21.634 50.186-29.534 80.584-29.569l5.65-.03q7.62-.038 15.24-.056c5.32-.015 10.641-.042 15.962-.068q15.093-.068 30.184-.116c11.461-.039 22.922-.088 34.383-.138q35.342-.155 70.685-.273l-2.367-2.352q-4.395-4.369-8.784-8.744l-3.785-3.765c-12.71-12.625-12.71-12.625-17.732-18.58-2.267-2.653-4.751-5.083-7.238-7.528l-1.601-1.59Q411 102.968 408.5 100.5c-12.251-12.101-12.251-12.101-17.6-18.377-4.56-5.094-9.537-9.82-14.4-14.623-12.606-12.451-12.606-12.451-17.988-18.77-2.911-3.331-6.133-6.356-9.324-9.416-5.656-5.531-8.263-10.208-8.5-18.064.078-6.702 2.429-11.02 6.687-16.062 4.913-4.094 9.112-5.631 15.5-5.688"/><path fill="#FFF" d="m115.25 148.5 2.62-.032c2.507-.024 5.013-.017 7.52 0l2.268-.023c6.978.12 12.168 2.429 17.155 7.305 3.996 5.938 6.395 11.962 5.187 19.25-2.145 7.494-6.15 12.036-12.723 16.053-2.921 1.215-5.322 1.237-8.484 1.29l-3.695.086-3.91.071c-23.395.648-44.164 3.158-61.125 21.059-13.211 15.637-16.369 32.436-16.354 52.307l-.02 4.715c-.017 4.24-.022 8.48-.024 12.72q-.001 3.986-.01 7.973-.028 13.946-.026 27.89c.002 8.626-.02 17.252-.051 25.877q-.038 11.16-.036 22.318c0 4.428-.005 8.856-.026 13.284q-.029 6.255-.005 12.511.003 2.277-.015 4.552C43.351 416.986 48.145 435.779 62 450c16.3 14.037 33.39 18.65 54.465 18.502q2.364.006 4.727.016c4.228.014 8.455.003 12.682-.014 4.453-.014 8.907-.007 13.36-.003q11.209.002 22.418-.034c8.605-.027 17.21-.029 25.814-.017 8.325.01 16.65.004 24.975-.01q5.283-.007 10.566 0 6.232.006 12.465-.028 2.27-.008 4.54 0c12.481.036 24.87-1.015 36.113-6.912l2.008-1.034C300.76 452.537 310.657 439.65 316 424c1.56-5.532 2.365-10.79 2.875-16.5.775-7.19 1.467-13.22 7.094-18.266 5.144-3.989 8.182-5.4 14.781-5.484l3.672-.078c6.398.587 10.498 3.497 14.578 8.328 6.241 8.772 4.839 19.85 3.305 30.023C358.846 442.1 350.69 459.063 338 475l-1.746 2.219C322.355 494.017 301.804 504.606 281 510l-1.976.533c-8.363 1.966-16.771 1.763-25.305 1.758q-2.604.008-5.208.02c-4.692.017-9.385.022-14.077.024q-4.412.001-8.822.01-15.428.028-30.855.026c-9.544-.002-19.088.02-28.632.051q-12.34.038-24.681.036c-4.899 0-9.798.005-14.696.026q-6.925.029-13.85.005-2.518-.004-5.037.015c-31.12.212-57.315-11.67-79.54-33.086C11.503 461.947-.067 437.023-.148 412.604l-.011-2.192q-.015-3.62-.019-7.24l-.02-5.205q-.028-8.538-.041-17.076l-.013-5.9a23956 23956 0 0 1-.041-27.743q-.015-15.955-.077-31.91-.044-12.364-.048-24.732a3147 3147 0 0 0-.036-14.736q-.035-6.949-.018-13.898.001-2.528-.02-5.057c-.113-14.612 1.744-29.15 7.679-42.665l.897-2.095c11.678-26.264 32.952-45.096 59.04-56.405 2.6-1 5.223-1.898 7.875-2.75l1.983-.642c12.497-3.774 25.329-3.776 38.267-3.858"/></svg>