<svg xmlns="http://www.w3.org/2000/svg" width="512" height="512"><path fill="#FFF" d="m148.875-.312 3.617-.051C158.841.294 162.945 3.197 167 8c4 8 4 8 4 34h170V16c6.6-13.2 6.6-13.2 15-16 7.51-.668 14.234-1.134 20.453 3.57 4.148 3.834 7.344 7.726 7.774 13.454-.01 1.153-.02 2.305-.032 3.492l-.02 3.789-.05 3.945-.027 3.992Q384.062 37.121 384 42l2.36-.048c35.254-.615 67.105 4.506 93.737 29.673 18.104 17.79 31.668 42.797 32.037 68.637q.015 3.14.013 6.278l.011 3.507q.014 4.798.017 9.596.007 5.184.022 10.367c.02 8.34.03 16.68.039 25.02l.015 11.805a52707 52707 0 0 1 .044 49.47l.002 2.556c.008 13.648.033 27.296.066 40.944q.049 21.055.054 42.112c.002 7.87.01 15.742.036 23.613q.034 10.061.02 20.122-.007 5.122.017 10.245c.168 34.959-8.786 62.251-33.002 87.748-24.957 24.27-55.73 28.992-89.043 28.878-3.976-.01-7.951.005-11.927.016-7.764.018-15.528.014-23.292.002q-9.474-.013-18.949-.006l-2.735.002-5.503.004a27597 27597 0 0 1-51.472-.023q-22.03-.026-44.061.003a26023 26023 0 0 1-56.783.014l-2.724-.002q-9.45-.003-18.902.012-11.535.018-23.069-.013c-3.915-.01-7.83-.015-11.745-.001-36.246.113-64.327-7.778-90.928-33.043C4.571 455.03-.629 424.781-.502 392.032c-.001-2.786-.009-5.572-.016-8.358-.014-6.74-.007-13.48.009-20.221.017-7.869.013-15.737.01-23.606-.006-14.049.008-28.097.032-42.146q.036-20.396.021-40.793a25606 25606 0 0 1 .006-49.314l.002-2.365q.006-8.205-.001-16.412-.009-10.013.02-20.024.016-5.098.008-10.195c-.056-33.91 7.964-61.885 32.099-86.786 22.51-22.36 51.9-30.01 82.75-29.937 4.52.02 9.041.066 13.562.125l-.08-2.443c-.104-3.686-.169-7.37-.233-11.057l-.126-3.844C127.462 17.122 127.81 11.73 133 6c5.137-4.761 8.862-6.29 15.875-6.312M78 92.5l-2.035 1.034c-15.336 8.203-25.397 22.038-30.938 38.325C41.607 144.653 43 156.288 43 170h426c0-26.213-.334-47.52-19.176-66.375-13.967-12.982-30.358-18.112-49.183-18.006l-3.916-.014a1646 1646 0 0 0-10.657.003c-3.845.007-7.69-.004-11.534-.012-7.519-.013-15.037-.01-22.555-.002q-9.17.01-18.34.005l-2.642-.002q-2.658 0-5.315-.003c-16.59-.008-33.18.002-49.771.018q-21.328.018-42.655-.003a32445 32445 0 0 0-54.895-.01l-2.631.001q-9.153.003-18.306-.009-11.163-.013-22.326.01-5.689.014-11.378.001c-4.12-.01-8.24.002-12.361.017l-3.595-.02C97.225 85.673 87.419 87.694 78 92.5M43 214C26.001 317.712 26.001 317.712 63 452c19.458 16.738 40.486 17.61 65 17.523 3.785-.01 7.57.005 11.354.016 7.393.018 14.786.014 22.18.002q9.021-.013 18.042-.006l2.603.002 5.238.004c16.333.011 32.666-.002 49-.023q20.977-.025 41.954.003a23583 23583 0 0 0 54.053.014l2.592-.002q9-.003 18 .012 10.983.017 21.965-.013c3.729-.01 7.457-.015 11.186-.001 25.497.083 46.668-1.745 65.833-20.531 48.975-56.934 17-214.951 17-235z"/><path fill="#FFF" d="M374.52 274.91c5.283 3.142 9.185 7.314 11.793 12.902 1.724 7.998.83 14.101-3.313 21.188-2.533 3.114-5.342 5.863-8.25 8.625l-2.2 2.156c-3.403 3.313-6.868 6.523-10.472 9.617-4.946 4.28-9.49 8.945-14.078 13.602-5.182 5.26-10.37 10.393-15.977 15.2-4.021 3.578-7.748 7.465-11.523 11.3-8.954 9.097-8.954 9.097-13.469 12.969-4.943 4.243-9.462 8.893-14.031 13.531-16.094 16.338-32.596 30.908-56.785 31.38-20.137-.046-35.997-6.569-50.559-20.646a324 324 0 0 1-4.258-4.363c-2.654-2.624-5.442-5.046-8.261-7.49-3.524-3.102-6.92-6.337-10.324-9.568-4.746-4.492-9.505-8.964-14.338-13.36-14.61-13.319-14.61-13.319-15.85-24.265.682-6.704 2.695-12.618 7.813-17.188 6.252-4.99 12.835-5.286 20.562-4.5 5.863 1.589 9.707 5.33 13.75 9.707 2.577 2.626 5.32 4.995 8.1 7.404 3.53 3.102 6.928 6.342 10.338 9.577q2.234 2.112 4.472 4.222l2.215 2.09A1293 1293 0 0 0 215 373l2.145 1.965c6.439 5.738 11.302 7.702 19.898 7.437 7.652-1.04 12.388-6.531 17.488-11.925 1.988-1.995 3.991-3.812 6.125-5.641 5.035-4.36 9.672-9.093 14.344-13.836 5.182-5.26 10.37-10.393 15.977-15.2 4.021-3.578 7.748-7.465 11.523-11.3 8.954-9.097 8.954-9.097 13.469-12.969 4.943-4.243 9.462-8.893 14.031-13.531 5.817-5.906 11.675-11.639 18-17l1.677-1.46c7.164-6.158 15.64-7.954 24.843-4.63"/></svg>