<svg xmlns="http://www.w3.org/2000/svg" width="512" height="512"><path fill="#FFF" d="M270.75 46.75c4.847 4.847 7.362 10.432 7.389 17.287l.016 2.42.003 2.642.015 2.82c.016 3.124.024 6.248.032 9.373l.03 6.711q.04 9.12.068 18.24c.022 6.352.05 12.703.076 19.055q.067 15.994.124 31.989.059 16.473.125 32.948l.008 2.051.041 10.19q.17 42.262.323 84.524l2.648-2.675q12.365-12.486 24.761-24.941a6283 6283 0 0 0 12.728-12.823 4326 4326 0 0 1 12.294-12.371q2.346-2.357 4.68-4.724c2.183-2.212 4.378-4.411 6.577-6.608l1.935-1.979c5.406-5.357 10.461-8.306 18.315-8.316 6.568.205 11.138 1.486 15.812 6.203 4.72 5.765 6.595 11.31 6.188 18.734-1.65 9.989-9.625 16.624-16.492 23.458l-3.22 3.24a3041 3041 0 0 1-8.715 8.727q-3.649 3.646-7.29 7.3-8.596 8.615-17.21 17.21a7747 7747 0 0 0-17.718 17.748 7826 7826 0 0 1-15.244 15.266 3790 3790 0 0 0-9.09 9.107 2011 2011 0 0 1-8.555 8.547 653 653 0 0 0-3.126 3.136c-10.887 10.989-10.887 10.989-19.305 12.195l-2.91.003-2.903.06c-9.66-1.517-15.653-8.423-22.21-15.045q-1.634-1.629-3.27-3.254a2406 2406 0 0 1-8.806-8.82c-3.074-3.088-6.158-6.166-9.241-9.245a8757 8757 0 0 1-15.496-15.53 7891 7891 0 0 0-17.91-17.927q-8.64-8.626-17.262-17.27a4833 4833 0 0 0-7.336-7.337 2670 2670 0 0 1-8.625-8.653 895 895 0 0 0-3.165-3.166 829 829 0 0 1-4.318-4.341l-2.44-2.448c-4.723-5.586-6.254-11.279-6.081-18.461 1.213-6.745 4.095-12.085 9.68-16.254 5.666-3.374 11.885-3.84 18.32-2.746 6.297 2.4 10.676 6.115 15.334 10.88l2.072 2.07a1484 1484 0 0 1 6.688 6.753q2.335 2.347 4.674 4.691a4881 4881 0 0 1 12.23 12.33c4.163 4.203 8.337 8.395 12.51 12.589A13738 13738 0 0 1 233 287l.007-3.523a66796 66796 0 0 1 .255-93.022l.007-2.051q.051-16.428.081-32.857.033-16.861.099-33.724.037-9.468.049-18.938.01-8.914.056-17.827.014-3.27.011-6.54c-.002-2.98.015-5.959.036-8.938l-.014-2.606c.09-7.635 1.844-14.405 7.413-19.974 9.834-6.801 19.81-6.575 29.75-.25M64.777 404.743l2.037-.01c2.256-.01 4.511-.005 6.767 0l4.896-.014c4.489-.012 8.977-.012 13.465-.01 4.84 0 9.679-.01 14.518-.02 9.482-.017 18.964-.022 28.447-.023q11.56-.001 23.12-.012a74885 74885 0 0 1 69.1-.025h3.574c19.116.001 38.232-.018 57.347-.046q29.433-.043 58.866-.04c11.018 0 22.037-.006 33.055-.027q14.073-.029 28.144-.009c4.787.007 9.573.007 14.36-.01q6.574-.024 13.148.004 2.378.005 4.754-.012c9.798-.064 17.077.064 24.437 7.261 3.997 5.938 6.396 11.962 5.188 19.25-2.15 7.514-6.158 11.974-12.693 16.058-3.09 1.261-5.656 1.197-8.993 1.202l-2.043.012c-2.27.01-4.538.006-6.808.002l-4.918.016c-4.513.014-9.027.016-13.54.015-4.865.002-9.73.015-14.594.027-10.64.022-21.28.03-31.92.035q-9.964.006-19.927.017a60857 60857 0 0 1-69.47.042H281.5c-19.22.004-38.439.03-57.658.068q-29.588.057-59.177.058c-11.078 0-22.156.009-33.233.038q-14.149.038-28.298.017a2328 2328 0 0 0-14.439.016q-6.61.03-13.22-.003-2.39-.005-4.78.016c-9.43.079-16.183-.346-23.198-7.079-4.392-4.785-6.016-9.884-5.806-16.346.997-7.137 3.812-12.57 9.43-17.055 4.548-2.798 8.342-3.407 13.656-3.413"/></svg>