<svg xmlns="http://www.w3.org/2000/svg" width="512" height="512"><path fill="#FFF" d="M480.91 17.534c2.862 2.705 5.642 5.471 8.403 8.278l2.837 2.792c13.045 13.118 20.274 26.977 20.413 45.521-.24 16.86-5.94 30.234-17.479 42.405l-1.828 1.942c-8.567 9.04-17.393 17.83-26.194 26.64q-3.974 3.983-7.947 7.97-9.54 9.567-19.088 19.127l-7.207 7.218a89300 89300 0 0 1-41.522 41.571 38395 38395 0 0 0-31.272 31.339 32771 32771 0 0 1-32.193 32.248 13132 13132 0 0 0-18.042 18.078 7070 7070 0 0 1-15.341 15.36q-3.917 3.909-7.817 7.834a1998 1998 0 0 1-8.489 8.487l-2.47 2.504c-7.112 7.03-13.975 10.235-23.51 12.822l-2.562.716c-2.775.774-5.554 1.536-8.332 2.298l-5.869 1.628q-6.15 1.706-12.303 3.396a5897 5897 0 0 0-15.584 4.31 9407 9407 0 0 1-12.137 3.359q-2.867.792-5.734 1.587a1378 1378 0 0 1-15.97 4.324q-2.76.736-5.514 1.497a663 663 0 0 1-8.5 2.266l-2.581.731c-6.07 1.536-9.465 1.067-15.078-1.782-3.003-3.542-4.445-6.424-5-11 .442-2.764.442-2.764 1.257-5.83l.927-3.548 1.05-3.876q.546-2.053 1.088-4.108c1.209-4.55 2.443-9.094 3.678-13.638l1.314-4.85a5136 5136 0 0 1 8.47-30.802c1.24-4.463 2.469-8.93 3.697-13.396q1.444-5.24 2.903-10.478.686-2.471 1.363-4.945.944-3.434 1.906-6.86l.542-2.005c2.845-10.023 7.54-15.981 14.823-23.183l2.794-2.81a1906 1906 0 0 1 7.668-7.659c2.765-2.754 5.519-5.52 8.274-8.284a8547 8547 0 0 1 16.213-16.205c6.308-6.29 12.606-12.591 18.903-18.893q16.867-16.874 33.757-33.724 16.364-16.328 32.703-32.682a46328 46328 0 0 1 39.442-39.436l1.893-1.89q6.577-6.573 13.149-13.151a9838 9838 0 0 1 16.063-16.042q4.097-4.081 8.182-8.176c2.961-2.969 5.933-5.926 8.907-8.883l2.562-2.58c26.174-25.902 60.87-33.222 90.383-7.532M409 45l-2.375 2.371L405 49c1.6 3.975 4.371 6.64 7.368 9.595l1.656 1.657c1.802 1.8 3.612 3.595 5.421 5.389q1.88 1.873 3.758 3.75 4.942 4.927 9.894 9.843 5.05 5.024 10.094 10.055Q453.088 99.152 463 109c9.918-4.664 18.016-15.3 21.875-25.438 2.269-7.839 1.73-15.145-1.297-22.71-2.863-5.175-6.914-9.218-11.077-13.352a228 228 0 0 1-4.384-4.527c-8.385-8.766-15.797-14.73-28.304-15.41C426.296 27.95 417.973 35.938 409 45m-25.31 25.186-1.702 1.703c-.647.645-1.293 1.29-1.96 1.953l-2.172 2.181-2.291 2.29q-3.834 3.832-7.66 7.67l-5.47 5.467q-5.903 5.904-11.802 11.811a40090 40090 0 0 1-17.065 17.077 99611 99611 0 0 0-27.684 27.703 138781 138781 0 0 1-26.898 26.918l-1.674 1.675L269 184.95q-34.505 34.52-69 69.05 1.413 1.662 2.83 3.322l1.59 1.868c2.27 2.6 4.684 5.033 7.126 7.47l1.57 1.57a3349 3349 0 0 0 5.064 5.047l3.539 3.535q4.628 4.621 9.262 9.237 4.738 4.725 9.472 9.453Q249.723 304.755 259 314c5.125-4.29 9.923-8.782 14.637-13.517l2.233-2.23q3.682-3.68 7.356-7.366l5.294-5.293q5.688-5.687 11.37-11.378 8.217-8.229 16.44-16.452 13.34-13.344 26.675-26.694a128108 128108 0 0 1 35.537-35.562Q411.775 162.258 445 129q-1.413-1.662-2.83-3.322l-1.591-1.868c-2.266-2.597-4.674-5.032-7.11-7.47l-1.564-1.57q-2.521-2.527-5.05-5.047l-3.531-3.535a8296 8296 0 0 0-7.366-7.36 7211 7211 0 0 1-9.456-9.46 8051 8051 0 0 0-7.275-7.275l-3.49-3.492a2733 2733 0 0 0-4.853-4.847l-2.792-2.789c-2.25-2.447-2.25-2.447-4.402-.779M187 280q-3.33 12.072-6.65 24.148-1.54 5.607-3.087 11.212-1.491 5.407-2.976 10.815-.568 2.066-1.139 4.131-.796 2.887-1.587 5.776l-.916 3.324c-.725 2.472-.725 2.472-.645 4.594 13.837-3.071 27.438-6.854 41.063-10.75l6.416-1.824Q225.24 329.219 233 327c-1.494-3.483-3.486-5.734-6.158-8.401l-2.599-2.608-2.81-2.788-2.876-2.875a2869 2869 0 0 0-6.025-6.001q-3.874-3.852-7.734-7.715-2.966-2.964-5.937-5.924-2.123-2.116-4.243-4.235l-2.589-2.57-2.29-2.277c-1.467-1.719-1.467-1.719-2.739-1.606"/><path fill="#FFF" d="m68.748 50.596 3.636-.02q4.871-.023 9.743-.012c2.724.003 5.448-.003 8.172-.009q9.637-.02 19.276-.001c6.61.011 13.22-.003 19.83-.03q8.553-.032 17.105-.022 5.091.007 10.183-.017c3.779-.014 7.557-.004 11.336.013l3.375-.029c6.424.061 10.371.702 15.596 4.531 3.25 3.67 3.466 7.125 3.285 11.852-.404 3.041-1.298 4.818-3.285 7.148-4.593 3.298-8.462 4.125-14.032 4.125l-3.075.007-3.356-.006-3.55.006q-3.818.006-7.637.006c-4.036.001-8.072.014-12.109.03l-2.068.007-4.187.016c-9.392.035-18.784.062-28.176.06q-9.511-.004-19.022.05-5.024.029-10.048.016c-3.748-.01-7.494.011-11.242.04l-3.307-.031C54.9 78.463 46.985 81.586 39 88h-2l-.848 1.777c-1.07 2.066-2.266 3.877-3.59 5.785-5.705 9.194-5.999 19.068-5.95 29.619l-.016 4.22c-.014 3.838-.01 7.676-.003 11.514.005 4.15-.008 8.3-.018 12.45-.017 8.12-.018 16.24-.013 24.36q.006 9.903-.002 19.807l-.003 2.851-.004 5.737a38220 38220 0 0 0 .003 53.748c.01 16.373-.003 32.747-.027 49.12q-.037 25.248-.027 50.496.006 14.163-.017 28.326-.022 12.057.002 24.113c.009 4.097.011 8.193-.004 12.29q-.02 5.637.01 11.274a564 564 0 0 1-.023 5.961c.084 10.388 1.675 21.325 8.53 29.552l1.422 1.73C41.785 478.72 48.484 481.495 56 484c2.055.095 4.112.13 6.17.131l3.938.012 4.353-.003 4.604.01q6.343.011 12.686.01 6.834.005 13.669.016 14.954.02 29.907.024l18.671.012a101025 101025 0 0 0 65.097.028h3.368q27.009.009 54.018.046 27.723.035 55.445.037 15.568-.001 31.136.025 13.259.023 26.516.012 6.766-.008 13.528.011 6.196.019 12.392 0 2.238-.004 4.476.01c13.69.074 22.642-2.157 33.026-11.381 7.83-8.973 9.449-18.63 9.385-30.218l.016-3.61q.017-4.862.006-9.724c-.001-3.405.016-6.81.032-10.214.041-9.375.052-18.75.064-28.125.01-8.607.027-17.213.068-25.82.015-3.383.024-6.767.018-10.15-.004-3.77.01-7.54.026-11.31l-.018-3.377c.044-5.547.177-9.71 3.403-14.452 3.409-3.076 5.652-4.87 10.25-5.313 5.52.46 8.277 2.654 11.894 6.727 2.983 4.668 2.404 9.982 2.358 15.336l.016 3.57q.013 4.832-.014 9.665c-.014 3.387-.007 6.774-.003 10.162q.002 8.544-.034 17.088c-.027 6.552-.029 13.103-.017 19.655.01 6.332.004 12.664-.01 18.997q-.007 4.02 0 8.037c.016 21.815-1.047 39.954-14.44 58.076l-1.328 1.832C460.488 502.795 444.788 509.213 429 512c-5.323.503-10.611.54-15.952.501q-2.308.006-4.615.017c-4.179.015-8.356.005-12.535-.01-4.525-.011-9.05.001-13.575.01-8.844.014-17.688.006-26.533-.009-10.313-.017-20.627-.013-30.94-.01-18.408.006-36.816-.008-55.224-.032q-26.756-.036-53.513-.021a43938 43938 0 0 1-64.596-.006l-3.096-.002q-10.769-.006-21.537.001-13.131.009-26.262-.02-6.693-.017-13.385-.008-6.138.01-12.276-.017a612 612 0 0 0-4.416.003c-12.407.051-24.677-1.125-35.795-7.022l-2.023-1.045C26.66 501.063 21.759 496.98 17 492l-1.914-1.855C2.964 477.622-.466 461.103-.388 444.295q-.007-2.197-.016-4.392c-.014-3.996-.01-7.992-.003-11.987.005-4.32-.008-8.64-.018-12.96-.017-8.453-.018-16.905-.013-25.358q.006-10.31-.002-20.621l-.003-2.969-.004-5.972c-.014-18.652-.009-37.304.003-55.956.01-17.046-.003-34.09-.027-51.136q-.037-26.284-.027-52.567.007-14.746-.017-29.488-.022-12.553.002-25.105c.009-4.265.011-8.53-.004-12.795q-.02-5.869.01-11.738.006-2.11-.01-4.221c-.13-18.783 5.638-33.894 18.732-47.303C32.38 55.859 49.12 50.516 68.748 50.596"/></svg>