<svg xmlns="http://www.w3.org/2000/svg" width="512" height="512"><path fill="#FFF" d="M420.572 59.379a448 448 0 0 1 7.729 7.11A165 165 0 0 0 435 72.374c46.208 40.276 72.334 105.08 76.79 165.05C515.91 307.721 493.276 374.117 447 427l-1.352 1.547C427.197 449.528 405.152 466.09 381 480l-3.406 1.992c-56.86 31.887-127.732 38.396-190.184 21.254C148.77 492.078 115.194 473.421 85 447l-1.547-1.352C62.472 427.197 45.91 405.152 32 381l-1.992-3.406C-1.88 320.734-8.388 249.862 8.754 187.41c11.179-38.678 29.805-73.163 57.008-102.95a310 310 0 0 0 4.383-4.92C111.56 32.227 175.525 4.81 237.425.21c65.618-3.845 133.176 15.343 183.147 59.169M119 81l-2.996 2.375C101.422 95.195 87.898 108.695 77 124l-1.41 1.948C40.599 174.69 27.39 234.97 36.93 294c6.352 36.12 21.197 70.293 44.07 99l2.375 2.996C95.193 410.574 108.691 424.114 124 435l1.98 1.426C144.458 449.617 164.501 459.745 186 467l2.224.752C243.334 486 304.583 479.914 356.33 454.52 369.435 447.893 381.51 440.155 393 431l2.996-2.375C410.574 416.807 424.114 403.309 435 388l1.426-1.98C449.617 367.542 459.745 347.499 467 326l.752-2.224C486 268.666 479.914 207.417 454.52 155.67 447.893 142.565 440.155 130.49 431 119l-2.375-2.996C416.807 101.426 403.309 87.886 388 77l-1.98-1.426C367.542 62.383 347.499 52.255 326 45l-2.224-.752C255.003 21.476 175.532 35.957 119 81"/><path fill="#FFF" d="m355 127.688 3.625-.051c5.53.595 9.29 3.732 13.375 7.363 3.957 11.87.973 25.051-4 36a191 191 0 0 0-1.937 6.188c-3.545 11.824-7.58 23.485-11.688 35.125-2.288 6.484-4.444 12.983-6.422 19.57-1.65 5.395-3.47 10.734-5.269 16.08a3435 3435 0 0 0-2.868 8.587l-1.517 4.55q-1.892 5.67-3.768 11.341a1275 1275 0 0 1-8.156 23.872c-2.265 6.421-4.399 12.856-6.36 19.378-3.53 11.504-7.545 22.853-11.55 34.198-1.934 5.51-3.699 11.048-5.371 16.642-1.705 5.407-3.624 10.737-5.521 16.08a287 287 0 0 0-4.76 14.639c-3.613 11.875-3.613 11.875-8.38 15.938-4.374 2.309-7.637 2.373-12.495 2.25l-2.393.021c-5.545-.06-8.866-1.07-13.089-4.836-2.463-2.745-3.242-6.288-4.331-9.748l-.783-2.421c-3.73-11.636-7.075-23.359-10.178-35.177-1.743-6.507-3.688-12.958-5.588-19.42a756 756 0 0 1-5.752-20.76c-1.512-5.681-3.237-11.286-5.05-16.878-2.48-7.689-4.635-15.192-5.774-23.219l-2.812-.293c-5.227-.749-10.167-2.432-15.188-4.02-7.69-2.387-15.375-4.644-23.168-6.671-18-4.771-35.862-10.15-53.707-15.465l-4.375-1.301-2.063-.615c-4.058-1.197-8.13-2.238-12.25-3.197-8.43-2.07-13.864-4.634-18.519-12.196-2.322-5.672-1.66-13.056.27-18.742 4.233-5.84 8.108-8.428 14.812-10.562l2.29-.768c5.4-1.796 10.838-3.475 16.288-5.115 6.398-1.972 12.733-4.136 19.078-6.268 3.842-1.29 7.687-2.57 11.531-3.85l4.512-1.503 43.906-14.636 4.425-1.475q6.137-2.048 12.279-4.08c7.757-2.572 15.506-5.147 23.191-7.93 5.28-1.91 10.598-3.6 15.973-5.223 6.44-1.99 12.82-4.165 19.21-6.312q4.461-1.495 8.927-2.982l4.42-1.473q6.136-2.048 12.279-4.08c8.863-2.939 17.689-5.937 26.468-9.118 4.422-1.544 8.893-2.9 13.383-4.23 2.812-.825 2.812-.825 5.274-1.989 3.275-1.156 6.098-1.207 9.566-1.219m-26.125 27.5-2.398.859a352 352 0 0 0-7.227 2.89c-5.963 2.424-12.085 4.23-18.25 6.063a888 888 0 0 0-22.375 7.063l-2.27.743c-3.383 1.126-6.626 2.313-9.894 3.753-3.085 1.284-6.053 2.137-9.3 2.896-4.148 1.047-8.175 2.482-12.224 3.857l-2.79.94A5710 5710 0 0 0 234 187c-7.246 2.442-14.489 4.863-21.812 7.063-3.814 1.156-7.506 2.413-11.188 3.937-4.752 1.967-9.588 3.458-14.512 4.934-3.684 1.126-7.338 2.334-10.988 3.566a436 436 0 0 1-14.312 4.563c-3.705 1.125-7.3 2.33-10.875 3.812-10.877 4.5-22.266 7.837-33.52 11.246-3.66 1.152-7.222 2.478-10.793 3.879 2.624 1.75 4.176 2.474 7.117 3.297l2.498.708 2.69.745 2.776.784q4.395 1.239 8.794 2.466 4.388 1.23 8.773 2.466 2.728.769 5.459 1.53c4.074 1.145 7.974 2.397 11.893 4.004a86 86 0 0 0 4.262.977c4.568.969 9.054 2.14 13.55 3.398l2.372.66c5.412 1.523 10.731 3.247 16.05 5.07 3.736 1.209 7.516 2.126 11.336 3.028 2.71.685 5.37 1.431 8.047 2.234l2.443.721q2.404.713 4.798 1.463c4.011 1.302 4.011 1.302 8.072.8 2.716-1.773 4.817-3.875 7.097-6.183l1.427-1.435c1.5-1.51 2.991-3.028 4.483-4.546l2.999-3.025q2.774-2.799 5.54-5.607c2.498-2.529 5.01-5.043 7.524-7.555l2.77-2.77L337 155c-3.263-.916-4.914-.98-8.125.188m17.53 11.293-2.046 2.062-2.246 2.256-2.363 2.388-2.316 2.33q-2.229 2.242-4.453 4.486a1433 1433 0 0 1-4.88 4.895 491 491 0 0 0-4.476 4.54 99 99 0 0 1-6.062 5.437c-3.009 2.538-5.532 5.262-8.008 8.316-2.063 2.4-4.311 4.578-6.555 6.809l-2.967 2.967c-21.066 21.066-21.066 21.066-22.582 22.58q-2.098 2.105-4.183 4.22C271 242 271 242 268.5 243.938c-2.923 2.412-5.106 5.13-7.5 8.063-2.36 2.477-4.655 4.737-7.375 6.813-2.978 2.481-5.35 5.217-7.844 8.175-1.643 1.856-3.36 3.44-5.219 5.075-2.86 2.7-2.86 2.7-2.863 6.183.317 3.958 1.195 7.029 2.551 10.754 2.197 6.227 4.024 12.477 5.66 18.879 1.574 6.074 3.357 12.091 5.09 18.121q.983 3.447 1.965 6.895c3.206 11.248 6.42 22.494 9.738 33.71 1.72 5.815 3.413 11.637 5.11 17.457l.953 3.271L271 395c2.445-2.17 3.525-3.872 4.465-6.992l.729-2.368.743-2.515.791-2.584A1218 1218 0 0 0 280 373c2.046-6.828 4.142-13.499 6.867-20.086 3.964-10.196 7.15-20.736 10.274-31.215.836-2.627 1.832-5.142 2.859-7.699a201 201 0 0 0 1.438-4.75c1.39-4.796 2.973-9.517 4.562-14.25q1.08-3.234 2.156-6.469c4.688-14.062 4.688-14.062 5.809-17.42q.963-2.895 1.916-5.794c1.229-3.734 2.5-7.392 4.057-11.005 2.13-5.219 3.62-10.561 5.128-15.988a154 154 0 0 1 5.872-17.074c1.914-4.714 3.404-9.492 4.863-14.363 1.466-4.829 3.091-9.604 4.699-14.387 4.655-13.63 4.655-13.63 8.5-27.5-1.24-.113-1.24-.113-2.595 1.481"/></svg>