<svg xmlns="http://www.w3.org/2000/svg" width="512" height="512"><path fill="#FFF" d="M421.5 230.375q2.868.964 5.738 1.926c4.724 1.586 9.44 3.194 14.154 4.81 3.142 1.071 6.29 2.125 9.439 3.175 3.247 1.084 6.49 2.18 9.731 3.276l3.43 1.152c18.101 6.236 32.72 16.057 41.692 33.438 4.128 8.931 6.461 16.804 6.493 26.63l.02 2.687c.02 2.939.031 5.877.041 8.816l.013 3.06q.03 8.037.044 16.074c.011 5.487.045 10.973.085 16.46.027 4.256.035 8.512.038 12.769q.008 3.029.035 6.057c.337 38.713-14.69 69.96-41.453 97.545-18.627 18.024-52.381 44.545-79.21 44.277-7.364-1.024-13.465-4.792-19.79-8.527-.675-.396-1.35-.791-2.045-1.2-18.548-10.991-35.266-24.04-50.955-38.8l-2.3-2.102c-20.862-19.755-38.342-49.615-39.798-78.866-.045-2.172-.06-4.342-.063-6.515l-.015-2.482q-.021-4.037-.027-8.074l-.009-2.807q-.022-7.355-.028-14.711a3301 3301 0 0 0-.058-15.099 2648 2648 0 0 1-.026-11.696q-.004-2.78-.024-5.56c-.133-20.125 3.18-36.81 16.836-52.553 11.93-12.04 26.41-17.044 42.137-22.16q4.803-1.573 9.605-3.148l2.454-.803a836 836 0 0 0 16.554-5.65q3.297-1.147 6.595-2.288 2.073-.725 4.138-1.47c17.461-6.296 29.534-3.492 46.529 2.359m-33.859 39.815-2.44.79-2.596.872-2.744.898c-2.894.95-5.784 1.913-8.673 2.875l-5.702 1.871A2230 2230 0 0 0 349 283l-2.55.853q-3.52 1.182-7.032 2.39l-2.074.691c-6.978 2.426-11.372 5.948-15.281 12.128-1.848 5.108-2.19 10.039-2.208 15.44l-.02 3.856-.003 4.138-.01 4.306q-.009 4.513-.007 9.025c0 3.812-.014 7.624-.031 11.436q-.015 4.452-.013 8.903a883 883 0 0 1-.013 4.209c-.15 29.664 9.515 52.496 30.055 73.813 8.84 8.545 18.913 16.081 29.187 22.812l1.788 1.183A400 400 0 0 0 386.75 462l1.898 1.245c2.92 1.797 4.922 2.761 8.38 2.712 3.457-1.113 6.607-2.535 9.784-4.27l1.951-1.06c18.17-10.146 34.61-23.235 46.237-40.627l1.703-2.516c10.667-16.7 12.78-35.089 12.695-54.39q.003-2.493.01-4.986.005-5.173-.017-10.346c-.017-4.403-.007-8.804.01-13.206.012-3.418.008-6.836 0-10.254q-.004-2.436.008-4.87c.031-9.334-.152-16.83-4.971-25.12-6.673-6.33-16.463-8.905-25.016-11.738l-3.546-1.189q-3.685-1.232-7.372-2.453c-3.76-1.247-7.515-2.511-11.27-3.778l-7.187-2.392-3.39-1.146-3.178-1.043-2.775-.923c-4.591-1.103-8.596-.933-13.063.54M206 4l3.809 1.027c31.898 9.485 58.446 32.955 74.324 61.793 15.903 29.878 19.823 64.806 10.39 97.422-9.96 32.568-31.779 60.447-61.764 76.995C221.625 247.109 210.294 251.312 198 254l-2.434.558c-7.977 1.66-15.878 1.842-24.004 1.817l-2.134-.003C139.147 256.248 111.408 246.371 88 227l-1.564-1.29c-25.042-20.972-40.067-51.23-44.124-83.46-2.902-36.89 7.454-70.471 31.063-98.937C90.745 23.02 113.508 10.218 139 3l3.57-1.035C162.492-2.742 186.445-1.794 206 4m-89 58-2.04 1.52c-15.099 11.962-25.777 32.363-28.679 51.25-2.19 25.16 3.258 47.745 18.969 67.918 14.716 17.3 35.318 27.767 57.75 30.312 24.078 1.812 46.023-6.093 64.34-21.602 14.79-13.335 26.513-32.794 27.837-53.114.424-19.49.424-19.49-4.177-38.284l-1.098-3.145c-8.207-21.672-25.141-37.372-45.757-47.093C174.643 36.655 141.93 42.677 117 62m111.297 247.352c4.774 4.62 6.84 10.267 7.016 16.836-.085 6.427-1.56 10.819-5.926 15.566-5.506 5.066-10.85 6.702-18.27 6.578-5.47-.583-10.745-1.996-16.066-3.36-17.22-4.254-36.903-3.259-54.051 1.028l-1.955.488c-20.363 5.262-38.829 15.225-54.022 29.762C83 378 83 378 80 379a142 142 0 0 0-2 4 141 141 0 0 1-3.937 4.125C61.573 400.802 53.304 418.331 48.186 436l-.59 2.008c-2.794 10.375-3.707 21.15-3.835 31.86-.01.74-.018 1.48-.027 2.242-.03 3.02-.05 6.04-.04 9.06.01 9.025-.002 17.293-5.695 24.83-6.034 5.688-11.707 6.357-19.7 6.277-6.035-.507-10.162-2.726-14.175-7.215-4.174-6.015-4.433-10.81-4.426-17.945l-.013-2.936q-.009-3.084-.002-6.168c.003-3.079-.02-6.157-.045-9.236-.053-16.158 1.415-31.798 6.049-47.34l.765-2.617C9.183 409.853 12.857 401.395 17 393l1.75-3.55C29.572 368.53 45.293 349.31 64 335l2.617-2.129C90.107 314.271 119.33 302.758 149 299l2.434-.336c22.4-2.586 57.993-3.5 76.863 10.688"/></svg>