<svg xmlns="http://www.w3.org/2000/svg" width="512" height="512"><path fill="#FFF" d="m20.875-.312 3.617-.051C30.841.294 34.945 3.197 39 8c5.37 7.829 4.554 16.31 4.499 25.422q.006 2.694.016 5.387c.015 4.926.004 9.852-.01 14.778-.011 5.316 0 10.632.01 15.947q.019 13.814.001 27.628c-.015 13.323-.005 26.646.012 39.97q.038 32.442.036 64.884v19.656a169108 169108 0 0 0 .003 47.23q.007 32.32.044 64.641.022 19.938.006 39.875-.012 13.658.007 27.314.011 7.883-.005 15.764-.016 7.215.005 14.43.004 2.61-.008 5.22c-.01 2.366-.002 4.732.01 7.098v3.982C44.33 454.33 46.436 459.363 52 464c5.498 3.755 9.647 4.125 16.258 4.125l2.23.004q3.72.003 7.44-.004 2.685 0 5.372.004 5.85.004 11.7 0a15697 15697 0 0 1 19.037.003q12.027.006 24.055.006a44465 44465 0 0 1 54.712.037l11.275.012q21.262.023 42.525.041l3.928.003c21 .018 41.999.02 62.998.02q32.331-.002 64.662.05 19.946.031 39.893.012 13.671-.012 27.342.025c5.259.013 10.518.019 15.776.002q7.225-.022 14.45.02 2.61.008 5.22-.01c17.584-.116 17.584-.116 25.127 5.65 5.684 6.038 6.367 11.706 6.27 19.703-.46 5.618-2.053 9.262-6.211 13.078-5.44 4.247-9.46 5.368-16.329 5.35l-2.271.007q-3.797.006-7.595.002l-5.476.01q-7.55.011-15.097.01c-5.422.002-10.843.01-16.265.016q-17.796.02-35.592.024l-22.22.012q-30.755.019-61.51.026h-7.967l-8.001.002h-2.004q-31.148.007-62.294.041-34.99.039-69.98.042-18.528-.001-37.054.025-15.78.023-31.56.012c-5.366-.004-10.733-.003-16.1.011q-7.374.019-14.75 0-2.663-.004-5.324.01c-19.542.09-36.107-4.278-50.588-18.038C9.294 485.51 4.526 475.743 1 464c-.18-.57-.362-1.138-.548-1.725-.642-3.23-.595-6.43-.589-9.71l-.008-2.289c-.008-2.545-.008-5.09-.009-7.635l-.013-5.512q-.017-7.591-.022-15.182-.01-8.18-.029-16.36-.034-19.763-.052-39.524l-.011-11.16a125010 125010 0 0 1-.07-85.317v-2.014c-.012-21.549-.043-43.098-.085-64.647a40329 40329 0 0 1-.075-68.346c-.004-12.42-.015-24.839-.048-37.258a8563 8563 0 0 1-.028-31.723c.005-5.396.002-10.792-.022-16.189Q-.642 42-.612 34.59q.004-2.68-.018-5.362C-.766 11.902-.766 11.902 5 6c5.137-4.761 8.862-6.29 15.875-6.312"/><path fill="#FFF" d="m404.875 127.688 3.617-.051c6.349.657 10.453 3.56 14.508 8.363 4.126 6.199 4.572 11.739 4.508 19.045l.019 3.307c.016 3.647.003 7.292-.01 10.939q.009 3.928.022 7.856c.018 6.368.014 12.735.002 19.103q-.013 7.765-.006 15.53l.002 2.235.004 4.496c.011 14.043-.002 28.085-.023 42.127q-.025 18.062.003 36.123a17433 17433 0 0 1 .012 48.685q-.003 7.752.012 15.505.018 10.44-.02 20.881-.007 3.831.006 7.663c.01 3.487-.003 6.973-.023 10.46l.027 3.061c-.08 7.15-1.555 12.53-6.281 18.007l-1.692 1.352-1.683 1.398c-5.671 3.702-11.287 4.074-17.879 3.227-7.125-2.257-11.305-5.564-15-12-.95-2.848-1.129-4.61-1.137-7.563l-.015-2.854-.002-3.14-.013-3.332q-.019-5.554-.026-11.11l-.025-7.942q-.034-11.94-.052-23.877l-.011-6.744a45686 45686 0 0 1-.071-54.017c-.013-13.018-.046-26.036-.088-39.054q-.063-20.048-.071-40.097c-.004-7.505-.015-15.009-.048-22.513-.028-6.391-.04-12.782-.028-19.173q.01-4.89-.022-9.78c-.023-3.537-.015-7.074.001-10.612l-.042-3.107c.073-6.61 1.387-10.965 5.65-16.085 5.137-4.761 8.862-6.29 15.875-6.312M244.559 128.941c5.245 3.163 9.027 7.408 11.441 13.059.252 2.221.252 2.221.254 4.692l.018 2.863-.011 3.136.011 3.339c.01 3.704.007 7.41.003 11.114l.015 7.953q.018 9.692.012 19.383-.002 7.878.005 15.755l.001 2.264.004 4.553q.014 21.355.003 42.712c-.006 13.026.006 26.051.025 39.077q.03 20.06.024 40.118c-.002 7.509 0 15.017.014 22.526q.019 9.589.002 19.178-.01 4.892.005 9.784c.01 3.536.002 7.072-.01 10.608l.022 3.122c-.052 6.817-1.122 11.093-5.584 16.448-6.02 5.083-11.18 7.095-19.137 6.754-6.846-.97-11.114-4.28-15.45-9.5-3.705-5.676-3.516-10.97-3.5-17.55l-.016-3.295a2785 2785 0 0 1-.016-10.953q-.012-3.922-.026-7.845c-.022-7.11-.03-14.219-.035-21.329q-.006-6.662-.017-13.325a27265 27265 0 0 1-.041-44.084v-2.4l-.001-2.404c-.004-12.845-.03-25.69-.068-38.535q-.057-19.795-.058-39.59c0-7.406-.009-14.811-.038-22.217a3374 3374 0 0 1-.012-20.903q.003-3.833-.02-7.665c-.021-3.493-.01-6.985.007-10.479l-.04-3.05c.083-6.988 1.686-12.44 5.655-18.255 6.977-6.665 17.477-8.4 26.559-5.059M334.75 238.75c5.728 5.728 7.368 11.711 7.397 19.624l.022 3.976.008 4.358.02 4.593q.028 7.541.041 15.082l.013 5.2q.029 12.218.041 24.437.015 14.084.077 28.167.044 10.898.048 21.797c.002 4.335.011 8.67.036 13.005q.035 6.124.018 12.248-.001 2.239.02 4.477c.077 8.971.125 18.19-6.241 25.218-5.837 5.425-11.41 6.534-19.242 6.38-5.976-.62-9.584-2.92-13.82-7.062-5.721-8.5-5.62-16.558-5.576-26.443q-.007-2.303-.016-4.605c-.014-4.151-.009-8.302.001-12.453.008-4.353 0-8.707-.004-13.06q-.007-10.965.016-21.93c.016-8.44.01-16.878-.006-25.317q-.02-10.889-.007-21.776.008-6.495-.005-12.989-.012-6.106.015-12.213.006-2.235-.004-4.47c-.036-8.909.237-16.027 5.148-23.744 9.285-9.285 21.334-9.287 32-2.5M163 238c4.745 4.12 7.73 8.747 8.257 15.107l.01 3.553.014 1.988c.013 2.19.011 4.381.01 6.572q.008 2.361.02 4.722c.018 4.27.022 8.541.024 12.812q.001 4.005.01 8.01.028 13.98.026 27.96c-.002 8.68.02 17.358.051 26.037q.038 11.188.036 22.375c0 4.452.005 8.903.026 13.354q.029 6.284.005 12.566-.003 2.3.015 4.6c.067 9.066-.056 16.19-6.25 23.367l-1.691 1.352-1.684 1.398c-5.671 3.702-11.287 4.074-17.879 3.227-7.125-2.257-11.305-5.564-15-12-1.124-3.373-1.137-5.938-1.154-9.495l-.013-2.008c-.014-2.224-.02-4.449-.026-6.674l-.025-4.78c-.026-5.237-.041-10.474-.055-15.711l-.017-5.41q-.033-11.256-.051-22.512-.023-16.123-.107-32.246-.056-11.34-.063-22.68c-.004-4.515-.016-9.029-.048-13.543q-.044-6.374-.025-12.748 0-2.334-.025-4.668c-.1-9.377.361-16.054 7.052-23.03 8.483-7.78 19.116-6.895 28.557-1.495"/></svg>