<svg xmlns="http://www.w3.org/2000/svg" width="512" height="512"><path fill="#EC6223" d="m229.488-.177 3.778-.039 4.047-.022 2.1-.013q5.524-.03 11.05-.044 4.494-.014 8.988-.062C277.364-.544 294.432.006 312 4l3.535.746a180 180 0 0 1 7.902 1.941l2.814.75C367.59 18.856 404.045 40.516 435 70l1.815 1.728c8.337 7.998 15.983 16.212 22.866 25.495a520 520 0 0 0 4.124 5.46c6.368 8.428 12 17.124 17.195 26.317l1.1 1.91c14.98 26.168 24.211 55.388 28.9 85.09l.512 3.24c.45 3.463.633 6.761.665 10.248l.039 3.778q.013 2.024.022 4.046l.013 2.1q.03 5.526.044 11.05.014 4.495.062 8.99c.187 17.912-.363 34.98-4.357 52.548l-.746 3.535a179 179 0 0 1-1.942 7.902l-.748 2.814C495.83 357.861 481.057 387.108 461 413l-2.078 2.723C453.652 422.48 447.908 428.799 442 435c-.858.9-.858.9-1.732 1.82-8.009 8.348-16.233 15.993-25.53 22.883a278 278 0 0 0-5.105 3.926C378.353 487.787 340.732 503.03 302 510l-2.843.52c-8.391 1.424-16.554 1.801-25.055 1.816l-4.219.02q-4.4.017-8.799.015-4.432 0-8.865.04c-17.799.163-34.762-.46-52.219-4.411l-3.536-.746a180 180 0 0 1-7.901-1.942l-2.814-.748C144.41 493.143 107.955 471.482 77 442l-1.815-1.728c-8.34-8-15.986-16.217-22.87-25.504a438 438 0 0 0-4.085-5.381c-6.389-8.407-11.93-17.15-17.09-26.36a437 437 0 0 0-3.19-5.558C13.891 352.454 5.457 324.24 1 296l-.512-3.24c-.45-3.463-.633-6.761-.665-10.248l-.039-3.778-.022-4.047-.013-2.1q-.03-5.524-.044-11.05-.014-4.494-.062-8.988C-.544 234.639-.007 217.563 4 200l.762-3.567a187 187 0 0 1 1.988-7.996l.761-2.837C16.27 153.889 30.98 125.03 51 99l2.082-2.73C58.354 89.516 64.093 83.199 70 77l1.732-1.82c7.996-8.335 16.21-15.979 25.491-22.86a520 520 0 0 0 5.46-4.125c8.428-6.368 17.124-12 26.317-17.195l1.91-1.1C157.078 14.92 186.298 5.689 216 1l3.24-.512c3.463-.45 6.761-.633 10.248-.665"/><path fill="#FFF" d="M416.227 119.29c2.09 2.016 3.476 4.116 4.773 6.71l2 1c5.927 10.187 8.008 22.365 5.313 33.957-3.572 10.64-10.468 18.566-17.66 26.93-2.664 3.105-5.174 6.31-7.66 9.558-2.696 3.457-5.471 6.847-8.243 10.243a1249 1249 0 0 0-16.398 20.585 1436 1436 0 0 1-4.164 5.29c-4.304 5.448-8.563 10.913-12.688 16.5-3.652 4.905-7.509 9.58-11.484 14.222A325 325 0 0 0 342 274c-3.025 3.82-6.148 7.546-9.312 11.25-4.247 4.98-8.328 10.063-12.345 15.229-4.349 5.573-8.843 11.022-13.349 16.47A1037 1037 0 0 0 294 333l-4 5a4519 4519 0 0 0-5.824 7.29 1398 1398 0 0 1-9.184 11.405l-1.63 2-3.362 4.12c-2.71 3.327-5.392 6.67-8 10.08-7.869 10.282-15.975 20.251-29.348 22.789-14.575 1.738-25.947-1.016-37.59-9.934L193 384l-2-1v-2l-1.68-.742c-2.785-1.51-5.015-3.35-7.445-5.383-3.499-2.904-7.003-5.795-10.562-8.625a1286 1286 0 0 1-11.004-8.884c-5.731-4.672-11.482-9.313-17.309-13.866q-3.504-2.745-7-5.5l-2.066-1.627q-3.225-2.552-6.434-5.123l-1.996-1.572c-9.046-7.28-16.153-15.997-17.988-27.791-.559-6.726-.64-12.456 1.484-18.887l.781-2.457c4.354-12.218 11.97-18.667 23.235-24.606 10.274-4.813 21.76-3.778 32.16-.203 6.24 2.797 11.338 7.2 16.574 11.516l4.273 3.496 2.074 1.699a995 995 0 0 0 9.602 7.72 1040 1040 0 0 1 4.883 3.92c4.708 3.799 9.452 7.46 14.418 10.915 5.577-6.525 11.13-13.044 16.352-19.86a379 379 0 0 1 5.21-6.577c3.848-4.791 7.612-9.644 11.375-14.5 4.614-5.95 9.276-11.84 14.07-17.645a556 556 0 0 0 5.743-7.106 959 959 0 0 1 7.29-9.039c5.159-6.318 10.286-12.643 15.21-19.148 3.675-4.824 7.562-9.335 11.664-13.797 2.611-2.914 4.99-5.966 7.363-9.074 4.653-6.088 9.521-12.01 14.361-17.95 4.67-5.73 9.31-11.478 13.862-17.304a1826 1826 0 0 1 12.563-15.875l1.699-2.148 1.586-1.97 1.406-1.76L358 120h2l1-3c17.219-12.964 38.92-11.191 55.227 2.29"/></svg>