<svg xmlns="http://www.w3.org/2000/svg" width="512" height="512"><path fill="#FFF" d="M411.5 117.375c3.843 2.865 6.148 5.485 8.5 9.625l1.465 1.336c1.998 2.166 2.694 4.263 3.66 7.039l1.008 2.836c2.884 9.277 2.765 17.868-1.133 26.789l-1.078 2.48c-3.73 7.606-9.036 13.504-14.625 19.766-3.813 4.289-7.246 8.802-10.707 13.379-2.922 3.842-5.973 7.576-9.027 11.313-8.252 10.108-16.283 20.368-24.188 30.75A588 588 0 0 1 350 262q-1.64 1.995-3.277 3.992c-5.44 6.63-10.9 13.239-16.473 19.758-3.915 4.588-7.631 9.294-11.277 14.101-5.202 6.823-10.722 13.386-16.193 19.994-7.298 8.835-14.49 17.749-21.538 26.785-4.34 5.543-8.826 10.963-13.316 16.385-3.012 3.641-5.987 7.298-8.863 11.048-8.289 10.706-16.094 18.795-30.063 20.75-11.935.893-24.142-2.893-33.437-10.438-1.336-1.237-2.666-2.484-3.918-3.805-2.029-1.937-4.222-3.461-6.52-5.07a182 182 0 0 1-12.437-9.812c-4.982-4.279-10.064-8.388-15.246-12.422-5.214-4.066-10.344-8.23-15.46-12.419a470 470 0 0 0-11.73-9.265C120.56 324.134 111.286 315.656 109 303c-.892-12.162.272-23.487 8.309-33.195 7.515-8.019 16.413-14.842 27.691-15.805 18.945.024 29.365 8.904 43.288 20.487a502 502 0 0 0 16.087 12.763l2.18 1.663c4.94 4.285 4.94 4.285 10.824 6.087 3.662-1.397 5.338-3.924 7.559-7q1.445-1.923 2.898-3.84l1.546-2.054c2.795-3.637 5.744-7.145 8.68-10.668a550 550 0 0 0 14.383-18.133c3.458-4.51 7.073-8.893 10.669-13.294q5.264-6.449 10.386-13.011c4.553-5.83 9.197-11.584 13.873-17.316a893 893 0 0 0 8.69-10.809c3.17-3.986 6.478-7.838 9.812-11.687 4.247-4.91 8.287-9.91 12.201-15.09 3.458-4.553 7.08-8.954 10.736-13.348a505 505 0 0 0 14-17.625c3.729-4.91 7.462-9.81 11.313-14.625l2.07-2.594C358 122 358 122 361 121l.895-1.898c2.523-4.797 9.553-6.475 14.355-8.415 12.87-2.359 24.304-.53 35.25 6.688"/></svg>