<svg xmlns="http://www.w3.org/2000/svg" width="500" height="500"><path fill="#FFF" d="m320 9 2.968.958C359.732 21.922 391.592 38.604 420 65l3.938 3.52C433.926 77.543 442.27 86.994 450 98l1.688 2.39c3.854 5.482 7.607 11.026 11.312 16.61l2.207 3.281C481.973 146.233 491.967 176.675 497 207l.487 2.748c10.709 61.867-4.415 129.954-40.612 181.315C434.025 422.804 404.964 448.695 371 468l-2.18 1.24c-52.828 29.68-120.853 37.537-179.424 21.815C140.855 477.435 95.561 452.086 63 413c-.45-.532-.901-1.063-1.366-1.61-43.44-51.349-63.877-115.353-59.12-182.442C5.957 187.82 18.752 151.11 40 116l1.501-2.492c7.092-11.73 14.6-21.805 24.38-31.42 3.049-2.997 6-5.991 8.744-9.275 4.182-4.928 9.054-9.131 13.86-13.433a186 186 0 0 0 4.171-3.954c6.876-6.597 14.29-11.438 22.436-16.275a176 176 0 0 0 5.013-3.17C144.091 20.422 171.271 11.168 199 5l2.272-.511C238.902-3.797 283.208-3.1 320 9M184 129c-5.558 8.206-6.698 15.155-6 25 .632 2.907 1.64 5.362 3 8l.926 1.95c3.014 5.578 7.353 8.963 12.3 12.823 3.211 2.578 6.029 5.393 8.895 8.34 2.43 2.44 5.012 4.668 7.621 6.914 2.752 2.405 5.444 4.873 8.133 7.348A1184 1184 0 0 0 230 209.5a1455 1455 0 0 1 12.54 11.414q4.705 4.32 9.46 8.586c4.2 3.768 8.364 7.573 12.515 11.394 4.163 3.827 8.381 7.588 12.622 11.329C279 254 279 254 280 256l-2.055.668c-3.804 1.72-6.791 4.087-10.07 6.644a381 381 0 0 1-18.25 13.125c-7.09 4.8-14.07 9.724-20.996 14.758A1170 1170 0 0 1 213.5 302q-10.033 7.059-19.956 14.274c-3.49 2.534-6.988 5.047-10.544 7.488-9.419 6.489-17.611 12.61-20.5 24.254-1.267 7.34.186 14.86 3.828 21.351 5.127 7.151 11.865 12.836 20.672 14.633 1.725.141 3.457.22 5.188.25l2.667.078c8.222-.858 14.182-4.324 20.645-9.265q2.371-1.764 4.746-3.524l2.402-1.796c3.595-2.664 7.251-5.237 10.915-7.805l4.226-2.977 6.315-4.44q3.168-2.229 6.333-4.459l2.122-1.494c5.137-3.627 10.23-7.31 15.316-11.005a692 692 0 0 1 18.75-13.125 438 438 0 0 0 19.532-14.062c5.12-3.879 10.367-7.536 15.679-11.146 5.344-3.641 10.61-7.382 15.851-11.168l2.287-1.648c8.919-6.46 15.936-12.013 18.026-23.414.816-8.96-.084-15.824-5.578-23.086-1.741-2.047-3.548-3.989-5.422-5.914l-1.727-1.809c-3.48-3.567-7.142-6.864-10.914-10.117-2.958-2.6-5.846-5.271-8.734-7.949q-6.991-6.48-14.09-12.84a1145 1145 0 0 1-8.66-7.91c-3.237-2.977-6.486-5.935-9.812-8.812-4.132-3.582-8.132-7.301-12.143-11.018-4.097-3.794-8.234-7.54-12.393-11.268A1186 1186 0 0 1 260 154.5q-6.75-6.201-13.574-12.32a856 856 0 0 1-4.883-4.422A745 745 0 0 0 234 131l-2.687-2.426c-7.56-6.56-15.64-11.527-25.997-10.953-8.543 1.398-15.634 4.782-21.316 11.379"/></svg>