<svg xmlns="http://www.w3.org/2000/svg" width="512" height="512"><path fill="#FFF" d="m244.32-.203 2.586-.022C319.424-.688 385.18 22.92 437.29 74.055 444.652 81.372 451.783 88.671 458 97l1.293 1.7c6.435 8.464 12.342 17.109 17.707 26.3l1.085 1.83c20.705 35.017 33.89 76.627 34.118 117.49l.022 2.586C512.67 316.785 491.084 382.038 442 433l-1.916 1.998C430.94 444.486 421.643 453.226 411 461l-3.453 2.574C399.356 469.612 390.842 474.971 382 480l-1.915 1.104c-23.437 13.415-49.163 21.752-75.522 27.209l-2.142.446c-15.26 2.934-30.548 3.62-46.046 3.553l-2.786-.006c-64.09-.24-128.754-24.544-174.589-70.181A560 560 0 0 1 76 439l-2.375-2.375L71 434l-1.922-1.816C62.308 425.666 56.622 418.502 51 411l-1.318-1.756C43.178 400.512 37.382 391.462 32 382l-1.104-1.915C17.48 356.648 9.144 330.922 3.688 304.563l-.447-2.142C.307 287.16-.38 271.873-.312 256.375l.006-2.786C-.106 200.476 16.15 147.838 48 105l1.354-1.826C56.024 94.27 63.274 85.998 71 78l1.815-1.881C80.478 68.219 88.216 60.666 97 54l1.718-1.311C107.176 46.261 115.817 40.36 125 35l1.83-1.085C161.847 13.21 203.457.025 244.32-.203M210 39l-2.966.617C177.485 46.02 149.244 58.98 125 77l-1.766 1.294c-7.475 5.516-14.391 11.546-21.171 17.894l-2.115 1.979C67.5 129.042 46.52 171.4 38 215l-.54 2.756c-4.7 25.466-4.426 53.854.54 79.244l.586 2.998C44.982 331.447 57.652 361.3 77 387l1.302 1.764c5.385 7.273 11.217 14.054 17.385 20.673l1.835 1.971c4.258 4.49 8.753 8.6 13.478 12.592l1.764 1.496C142.37 450.317 177.108 466.594 215 474l2.756.54c25.466 4.7 53.854 4.426 79.244-.54l2.998-.586c31.456-6.398 61.29-19.073 87.002-38.414l1.748-1.286c7.482-5.519 14.404-11.549 21.19-17.901l2.114-1.98C444.5 382.958 465.48 340.6 474 297l.54-2.756c4.703-25.48 4.405-53.838-.54-79.244l-.57-2.966c-6.275-31.42-19.227-61.35-38.43-87.034l-1.29-1.757c-5.517-7.478-11.547-14.397-17.897-21.18l-1.98-2.115C382.886 67.425 340.637 46.69 297 38l-2.625-.54C267.175 32.114 236.99 33.34 210 39"/><path fill="#FFF" d="M232.834 129.23c3.339 1.867 5.616 3.845 8.316 6.546l1.459 1.447c1.6 1.59 3.19 3.192 4.78 4.794q1.725 1.721 3.452 3.44a3615 3615 0 0 1 9.327 9.341c3.252 3.264 6.512 6.52 9.77 9.776q8.204 8.202 16.393 16.42 9.469 9.5 18.96 18.979 9.13 9.124 18.248 18.259 3.88 3.886 7.765 7.769 4.572 4.57 9.13 9.152 1.675 1.681 3.355 3.358 2.291 2.287 4.57 4.586l2.584 2.592c3.377 3.794 4.36 6.572 4.432 11.623l.086 2.739c-1.39 8.894-8.887 14.828-14.946 20.886l-3.234 3.269a2926 2926 0 0 1-8.771 8.82 5302 5302 0 0 0-5.492 5.514 11259 11259 0 0 1-19.195 19.248c-5.959 5.962-11.9 11.943-17.831 17.932a4671 4671 0 0 1-15.351 15.42 2055 2055 0 0 0-9.15 9.2q-4.288 4.341-8.623 8.638-1.58 1.575-3.141 3.17c-7.646 7.798-13.907 11.581-24.915 12.29-5.024-.182-7.807-1.394-11.812-4.438-3.285-4.235-5.128-7.826-5.375-13.188l-.148-2.167c1.672-8.451 9.14-14.673 14.995-20.458l2.87-2.87c2.577-2.579 5.164-5.148 7.752-7.715 2.71-2.692 5.413-5.393 8.116-8.092q7.668-7.652 15.352-15.288c5.834-5.8 11.66-11.61 17.485-17.42A34032 34032 0 0 1 310 257c-1.46-3.363-3.308-5.55-5.903-8.123l-2.468-2.464-2.713-2.676-2.853-2.84a3294 3294 0 0 0-6.147-6.1 4633 4633 0 0 1-9.719-9.66q-12.06-12.006-24.142-23.993c-6.258-6.21-12.513-12.422-18.758-18.646a3586 3586 0 0 0-9.662-9.589q-3.01-2.986-6.011-5.983a1017 1017 0 0 0-4.117-4.068c-9.931-9.946-9.931-9.946-9.945-17.233.242-5.737 1.93-10.244 6.133-14.234 5.89-4.245 12.447-5.067 19.139-2.16"/></svg>