<svg xmlns="http://www.w3.org/2000/svg" width="512" height="512"><path fill="#FFF" d="m239.613-.336 3.796-.02q3.954-.015 7.909-.015c3.947-.004 7.893-.04 11.84-.078 20.682-.093 40.843 1.78 60.717 7.762 1.03.3 2.061.602 3.123.913C357.418 17.286 387.176 30.987 412 51l2.816 2.238c16.498 13.286 32.33 27.935 44.91 45.044a268 268 0 0 0 3.965 5.183C471.557 113.68 477.951 124.63 484 136l1.438 2.703c16.049 30.66 26.831 66.146 26.898 100.91l.02 3.796q.015 3.954.015 7.909c.004 3.947.04 7.893.078 11.84.093 20.603-1.747 40.727-7.699 60.53l-.906 3.097c-15.402 51.668-46.232 100.663-90.117 132.937a309 309 0 0 0-5.262 4.005c-37.665 28.828-88.273 48.612-136 48.574l-3.758.013q-3.908.008-7.817.002c-3.919-.003-7.837.02-11.755.045-18.911.05-36.994-1.32-55.322-6.173l-3.026-.782c-9.077-2.392-17.982-5.155-26.787-8.406l-2.061-.751C145.055 489.994 128.862 481.133 114 471l-3.117-2.105a564 564 0 0 1-16.695-11.832l-3.02-2.215L89 453v-2l-3-1v-2l-2.187-.687c-3.377-1.576-5.37-3.522-7.813-6.313v-2l-3-1a174 174 0 0 1-4-5l-2.5-2.5c-2.38-2.38-4.408-4.868-6.5-7.5l-1.875-1.812c-7.791-8.021-13.815-18.083-19.875-27.438l-1.142-1.752c-1.74-2.71-3.313-5.41-4.749-8.295-1.214-2.768-1.214-2.768-3.359-4.703a225 225 0 0 1-3.687-7.625l-1.075-2.327q-1.097-2.384-2.189-4.773a356 356 0 0 0-2.85-6.01C6.896 332.274-.28 301.139-.336 272.388l-.02-3.796q-.015-3.954-.015-7.909c-.004-3.947-.04-7.893-.078-11.84C-.557 224.6 2.958 202.158 10 179l.628-2.114C13.838 166.182 18.258 156.093 23 146l.965-2.067C31.343 128.263 40.278 113.603 51 100q1.47-1.92 2.934-3.844 1.5-1.953 3.004-3.906l1.433-1.884C59.534 88.873 60.761 87.431 62 86h2l.836-1.793c3.016-5.719 7.891-9.989 12.762-14.121a201 201 0 0 0 5.523-4.984l1.687-1.578a813 813 0 0 0 3.272-3.085C92.16 56.624 96.487 53.284 101 50l1.938-1.436A242.5 242.5 0 0 1 136 28l2.552-1.34C169.356 10.634 204.703-.27 239.613-.335M108.258 91.93c-2.023 1.854-4.093 3.62-6.195 5.382C92.476 105.704 84.463 115.727 77 126l-2.355 3.207C56.744 154.372 44.842 183.767 39 214l-.492 2.4c-10.776 54.424 1.995 114.57 32.381 160.644 6.375 9.44 13.31 18.32 21.04 26.698 1.855 2.023 3.621 4.093 5.383 6.195 8.391 9.587 18.414 17.6 28.688 25.063l3.207 2.355C154.372 455.256 183.767 467.158 214 473l2.4.492c54.457 10.782 114.524-2.026 160.642-32.377 6.551-4.417 12.775-9.2 18.958-14.115l5-3.812c5.413-4.232 9.83-9.104 14.313-14.282 2.129-2.405 4.416-4.635 6.687-6.906 5.619-5.792 5.619-5.792 9-13h2a107 107 0 0 0 4.563-6.5l1.345-2.052c32.669-50.434 45.188-109.759 33.616-169.001-2.748-12.823-6.431-25.36-11.524-37.447l-1.14-2.887c-4.916-12.272-10.67-23.942-18.294-34.758C440 134 440 134 439 131h-2l-.75-2.137c-1.411-3.232-3.175-5.826-5.25-8.675l-2.125-2.958L427 115h-2l-1-3h-2l-.875-1.812c-1.172-2.381-1.172-2.381-3.125-5.188h-2l-.787-1.784c-1.297-2.37-2.652-3.83-4.62-5.67l-2.003-1.874-2.09-1.922-2.09-1.969C401.192 88.3 401.192 88.3 397 87v-2c-1.546-1.401-1.546-1.401-3.578-2.785-.75-.53-1.498-1.061-2.27-1.608l-2.402-1.67-2.355-1.681C381.57 73.82 381.57 73.82 376 72v-2c-80.559-48.47-182.233-46.291-267.742 21.93"/><path fill="#FFF" d="M152.65 208.429c5.647 2.976 9.817 7.512 14.254 12.021q1.45 1.45 2.9 2.898c2.608 2.607 5.203 5.226 7.796 7.847 2.718 2.743 5.448 5.475 8.176 8.208q7.734 7.756 15.448 15.533a11861 11861 0 0 0 17.6 17.688A26114 26114 0 0 1 255 309c3.341-1.453 5.516-3.277 8.072-5.858l2.43-2.439 2.638-2.68 4.255-4.283q2.284-2.301 4.562-4.608 4.76-4.81 9.535-9.606 13.57-13.645 27.109-27.318 7.479-7.554 14.982-15.086a2698 2698 0 0 0 9.457-9.545c2.426-2.456 4.865-4.898 7.303-7.342l2.614-2.667c5.534-5.517 10.962-10.607 19.168-11.005 6.645.75 10.553 3.415 14.875 8.437 3.15 4.78 3.952 9.398 3 15-1.977 4.558-4.307 7.683-7.807 11.188l-1.457 1.471a1028 1028 0 0 1-4.83 4.822l-3.464 3.481q-4.696 4.713-9.41 9.408c-3.287 3.28-6.568 6.568-9.85 9.855a13062 13062 0 0 1-16.549 16.533 10495 10495 0 0 0-19.118 19.124 11849 11849 0 0 1-16.42 16.428q-4.909 4.899-9.805 9.809a3080 3080 0 0 1-9.224 9.21q-1.695 1.687-3.38 3.383a868 868 0 0 1-4.625 4.608l-2.611 2.608c-3.833 3.242-7.354 4.368-12.325 4.447l-2.43.086c-8.73-1.493-14.652-8.966-20.616-14.93l-3.264-3.229a2918 2918 0 0 1-8.807-8.76 5292 5292 0 0 0-5.509-5.485 11239 11239 0 0 1-19.232-19.179 5504 5504 0 0 0-17.908-17.807q-7.72-7.65-15.405-15.336a2047 2047 0 0 0-9.188-9.137q-4.338-4.286-8.631-8.616a375 375 0 0 0-3.164-3.136c-7.84-7.687-12.756-14.872-13.471-26.096.232-4.72 1.372-8.176 4.5-11.75 6.573-5.751 13.283-7.846 21.65-4.571"/></svg>