<svg xmlns="http://www.w3.org/2000/svg" width="512" height="512"><path fill="#FFF" d="m206 4 3.809 1.027c31.898 9.485 58.446 32.955 74.324 61.793 15.903 29.878 19.823 64.806 10.39 97.422-9.96 32.568-31.779 60.447-61.764 76.995C221.625 247.109 210.294 251.312 198 254l-2.434.558c-7.977 1.66-15.878 1.842-24.004 1.817l-2.134-.003C139.147 256.248 111.408 246.371 88 227l-1.564-1.29c-25.042-20.972-40.067-51.23-44.124-83.46-2.902-36.89 7.454-70.471 31.063-98.937C90.745 23.02 113.508 10.218 139 3l3.57-1.035C162.492-2.742 186.445-1.794 206 4m-89 58-2.04 1.52c-15.099 11.962-25.777 32.363-28.679 51.25-2.19 25.16 3.258 47.745 18.969 67.918 14.716 17.3 35.318 27.767 57.75 30.312 24.078 1.812 46.023-6.093 64.34-21.602 14.79-13.335 26.513-32.794 27.837-53.114.424-19.49.424-19.49-4.177-38.284l-1.098-3.145c-8.207-21.672-25.141-37.372-45.757-47.093C174.643 36.655 141.93 42.677 117 62M320.345 217.467l3.51-.027c3.785-.022 7.57-.016 11.356-.006q2.978-.005 5.955-.014 9.344-.024 18.688.004c6.383.016 12.765 0 19.149-.032q8.28-.04 16.561-.025 4.92.008 9.839-.018c26.11-.125 26.11-.125 38.597 5.651l3.438 1.553c9.503 4.49 16.915 11.392 24.562 18.447l1.8 1.65a760 760 0 0 1 6.77 6.258 120 120 0 0 0 8.68 7.405c7.659 6.618 13.531 17.9 15.75 27.687l.519 2.194c.558 3.255.613 6.326.621 9.629l.01 2.041q.01 3.375.011 6.751l.015 4.85q.019 6.584.024 13.167.005 4.12.012 8.237.02 12.903.027 25.805.007 14.865.05 29.726.034 11.508.034 23.015 0 6.862.025 13.727.023 6.465.01 12.93-.002 2.36.013 4.72c.072 12.176-1.084 23.281-7.183 34.02l-1.08 1.939C489.038 494.683 473.112 504.296 456 510c-2.001.108-4.006.157-6.01.174l-3.81.04-4.188.026-4.406.04a7530 7530 0 0 1-40.355.217c-9.927.033-19.853.092-29.78.187-6.995.065-13.99.098-20.986.11-4.169.007-8.336.028-12.504.082-33.175.417-33.175.417-47.961-8.876l-2.852-1.667c-2.188-1.32-4.15-2.745-6.148-4.333l-2.285-1.762c-6.01-4.947-9.925-10.48-13.715-17.238l-1.473-2.574c-6.075-11.282-5.817-22.88-5.786-35.385l-.01-5.424c-.01-4.886-.006-9.772 0-14.659.005-5.126 0-10.253-.002-15.38q-.005-12.912.01-25.824.015-14.903-.003-29.805-.013-12.822-.006-25.644.007-7.646-.003-15.292-.007-7.19.01-14.38.004-2.631-.002-5.261c-.027-11.824.268-22.596 5.765-33.31l1.057-2.072c8.513-15.943 23.569-26.536 40.492-32.097 6.549-1.971 12.49-2.468 19.296-2.426M292.75 259.25c-6.64 10.434-7.483 19.533-7.429 31.575q-.015 2.673-.036 5.346c-.031 4.812-.03 9.624-.022 14.436.004 4.03-.007 8.061-.018 12.092-.025 9.516-.024 19.032-.007 28.548.018 9.787-.009 19.573-.057 29.36q-.058 12.645-.043 25.29c.005 5.023 0 10.045-.03 15.068-.03 4.728-.023 9.454.009 14.181q.01 2.588-.019 5.173c-.116 11.508.986 22.27 9.265 31.142 7.902 7.586 16.033 11.644 27.03 11.68 1.07.005 2.14.01 3.241.017l3.525.003 3.737.015q5.064.018 10.129.024l6.34.012q9.933.02 19.868.027 11.437.007 22.873.05 8.86.034 17.72.034 5.283 0 10.564.025c3.935.02 7.87.015 11.804.008l3.494.028c12.849-.066 21.84-3.528 31.312-12.384 2.154-2.859 3.638-5.702 5-9l1.545-2.741c2.51-5.915 1.798-12.43 1.704-18.731q-.015-2.204-.028-4.407c-.026-3.973-.07-7.946-.119-11.918-.047-4.157-.076-8.315-.108-12.472-.062-7.866-.14-15.732-.223-23.597-.095-8.958-.171-17.915-.247-26.873Q473.29 333.63 473 306l-3.849-.012c-4.764-.022-9.527-.077-14.29-.14a718 718 0 0 0-6.157-.044c-14.136-.044-25.48-.21-36.704-9.804-1.547-2.035-1.547-2.035-2.75-4.062l-1.234-2.036c-1.61-3.014-2.147-5.553-2.221-8.914l-.06-2.427-.051-2.604-.063-2.678q-.098-4.233-.183-8.466l-.131-5.74q-.16-7.036-.307-14.073a5766 5766 0 0 0-32.862-.26c-5.088-.025-10.175-.06-15.263-.117a1732 1732 0 0 0-14.764-.097q-2.799-.014-5.598-.055c-17.279-.242-31.056 2.072-43.763 14.779M438 254l-1 24h28l-5-5-1.738-1.773c-6.344-6.454-12.88-11.955-20.262-17.227M228.297 309.352c4.774 4.62 6.84 10.267 7.016 16.836-.085 6.427-1.56 10.819-5.926 15.566-5.506 5.066-10.85 6.702-18.27 6.578-5.47-.583-10.745-1.996-16.066-3.36-17.22-4.254-36.903-3.259-54.051 1.028l-1.955.488c-20.363 5.262-38.829 15.225-54.022 29.762C83 378 83 378 80 379a142 142 0 0 0-2 4 141 141 0 0 1-3.937 4.125C61.573 400.802 53.304 418.331 48.186 436l-.59 2.008c-2.794 10.375-3.707 21.15-3.835 31.86-.01.74-.018 1.48-.027 2.242-.03 3.02-.05 6.04-.04 9.06.01 9.025-.002 17.293-5.695 24.83-6.034 5.688-11.707 6.357-19.7 6.277-6.035-.507-10.162-2.726-14.175-7.215-4.174-6.015-4.433-10.81-4.426-17.945l-.013-2.936q-.009-3.084-.002-6.168c.003-3.079-.02-6.157-.045-9.236-.053-16.158 1.415-31.798 6.049-47.34l.765-2.617C9.183 409.853 12.857 401.395 17 393l1.75-3.55C29.572 368.53 45.293 349.31 64 335l2.617-2.129C90.107 314.271 119.33 302.758 149 299l2.434-.336c22.4-2.586 57.993-3.5 76.863 10.688"/><path fill="#FFF" d="m361.832 337.832 4.326-.01q4.52-.009 9.04-.007c3.832 0 7.665-.014 11.497-.031q4.465-.015 8.929-.013 2.117 0 4.235-.013c14.149-.071 24.293 1.236 36.141 9.242l2.066 1.371C444.2 352.994 449.806 361.345 451 369c.867 12.084-.162 20.848-8.25 30.25-9.8 10.166-20.375 15.334-34.674 15.857-3.61.059-7.22.084-10.83.096l-2 .009q-5.247.022-10.494.028c-3.572.006-7.142.03-10.713.058-2.783.019-5.565.024-8.348.026-1.944.004-3.888.023-5.832.042-14.44-.036-29.193-2.413-40.195-12.503-8.023-8.983-11.141-17.8-10.91-29.722.332-4.242 1.28-7.396 3.246-11.141l1.184-2.426c5.513-10.292 14.75-17.022 25.816-20.574 7.58-1.274 15.165-1.164 22.832-1.168M342.5 370.688c-1.873 4.135-1.91 6.005-.5 10.312 2.806 3.441 4.519 4.771 8.943 5.454 3.755.176 7.491.189 11.248.14q2.088-.003 4.176 0 4.364-.004 8.727-.052c3.722-.04 7.442-.044 11.164-.037 2.871.004 5.742-.009 8.614-.026q2.058-.01 4.115-.009a485 485 0 0 0 5.757-.05l3.303-.026c4.18-.558 6.786-2.305 9.828-5.144 1.725-3.45 1.152-5.593.125-9.25-3.085-3.942-5.13-5.316-10-6a122 122 0 0 0-5.597-.145l-3.328-.02-3.567-.003-3.695-.01q-3.865-.007-7.731-.007c-3.935-.002-7.87-.02-11.805-.04q-3.76-.005-7.52-.005l-3.554-.022c-10.326-.243-10.326-.243-18.703 4.94M332.613 434.482l3.453-.02c3.749-.018 7.497-.007 11.247.007q3.922-.004 7.844-.012 8.211-.01 16.422.022c6.312.021 12.624.014 18.936-.008 6.094-.02 12.187-.018 18.28-.006q3.876.004 7.75-.01c3.615-.01 7.228.005 10.842.027l3.218-.024c6.286.071 11.179.86 16.395 4.542 3.08 3.31 4.278 6 4.625 10.437-.216 4.407-1.742 6.816-4.629 10.055-6.417 4.848-12.546 4.945-20.312 4.912l-3.393.02c-3.69.02-7.379.015-11.068.01q-3.858.007-7.715.015-8.079.013-16.157-.003c-6.21-.011-12.42.003-18.631.03-5.994.024-11.987.027-17.98.02q-3.813 0-7.625.019c-3.557.015-7.113.004-10.67-.013l-3.166.029c-7.594-.076-12.89-1.663-18.716-6.594-2.695-3.34-2.918-6.667-2.833-10.878.467-3.565 1.88-5.43 4.27-8.059 6.186-4.39 12.241-4.574 19.613-4.518"/></svg>