<svg xmlns="http://www.w3.org/2000/svg" width="512" height="512"><path fill="#FEFEFE" d="M338.48-.556c2.987-.006 5.971-.06 8.957-.118 33.534-.294 63.253 15.025 87.125 37.861C456.959 60.125 469.965 92.051 471 124l.121 3.05c.716 34.492-13.052 66.975-36.621 91.783-23.308 23.917-54.806 37.498-88.215 38.37C310.18 257.66 278.401 247.31 252 222l-2.676-2.45c-21.48-20.324-36.062-51.663-37.45-81.238-1.013-38.565 9.695-72.255 36.314-100.753C264.454 20.53 283.332 9.332 306 3l2.657-.814c9.86-2.7 19.657-2.744 29.823-2.742M280 70l-2.43 2.328c-15.82 16.094-20.845 37.973-20.817 59.907.3 22.485 10.298 41.578 26.1 57.156 14.215 13.397 33.565 22.4 53.147 23.609l2.746.195c22.28.835 43.963-8.312 60.445-22.98C415.29 175.25 425.097 153.029 426 131l.121-2.785C426.618 105.563 417.523 84.357 402 68c-16.92-15.987-40.382-25.739-63.738-25.25C315.449 44.498 295.979 53.884 280 70M93.733 216.725l3.492-.015c3.795-.014 7.59-.013 11.384-.01l5.94-.01a6779 6779 0 0 1 18.665-.006c6.39.006 12.778-.006 19.168-.027q8.265-.027 16.53-.02 4.92.002 9.84-.015c3.666-.013 7.331-.006 10.997.006l3.231-.023c17.834.123 35.115 7.665 48.336 19.618 15.691 16.564 17.837 35.237 17.83 56.948q.003 2.603.01 5.207.01 7.04.011 14.083l.006 8.814q.013 15.398.012 30.795.001 14.316.026 28.634.019 12.322.018 24.645-.002 7.347.013 14.692.014 6.914.003 13.827-.003 2.525.007 5.05c.07 20.748-3.281 37.312-17.69 53.144-3.954 3.735-8.408 6.703-12.937 9.688l-2.107 1.395c-10.42 6.635-19.144 8.45-31.476 8.388q-2.229.011-4.458.027c-4.011.022-8.021.02-12.032.01-3.362-.005-6.724.002-10.086.01-7.94.017-15.88.013-23.82-.004a4056 4056 0 0 0-24.474.032q-10.55.039-21.1.025c-4.187-.005-8.375-.003-12.562.018q-5.916.026-11.83-.012a348 348 0 0 0-4.307.01c-18.966.156-34.511-7.434-48.228-20.442-14.883-15.316-17.618-34.025-17.55-54.549q-.008-2.343-.02-4.688c-.018-4.192-.017-8.384-.01-12.576q.001-5.281-.01-10.563-.02-12.472-.001-24.946c.011-8.534-.003-17.068-.03-25.602q-.032-11.058-.022-22.114.006-6.574-.017-13.15-.021-6.186.008-12.371.005-2.25-.01-4.499c-.118-18.008 3.495-34.223 16.454-47.462a278 278 0 0 1 10.813-9.714 190 190 0 0 0 5.25-4.79c9.033-8.532 18.057-15.888 29.187-21.558l1.98-1.013 1.938-.948 1.693-.83c7.363-2.79 14.137-3.127 21.935-3.109M107 245l-.028 3.421c-.04 4.231-.106 8.462-.18 12.692q-.042 2.735-.063 5.47c-.19 23.203-.19 23.203-7.854 30.792-8.452 6.43-18.058 7.744-28.332 7.941l-2.736.063q-4.31.098-8.62.183l-5.857.131q-7.165.16-14.33.307-.2 19.642-.391 39.286-.09 9.13-.182 18.257c-.13 12.833-.248 25.666-.343 38.499a2854 2854 0 0 1-.215 19.427c-.053 3.889-.09 7.777-.122 11.666a646 646 0 0 1-.077 5.346C37.5 447.7 37.529 455.661 42 464l1.625 3.687C48.225 475.305 57.827 479.445 66 482c3.441.795 6.623 1.129 10.152 1.14l3.08.018 3.344.003 3.55.015q5.814.021 11.628.027l4.02.009q9.448.02 18.897.027 10.866.007 21.732.05 8.425.034 16.85.034 5.018 0 10.037.025c3.743.017 7.485.015 11.228.008l3.302.028c13.163-.07 22.974-3.16 32.93-11.759 6.536-7.625 9.49-14.872 9.517-25.06l.014-2.17c.013-2.38.011-4.76.01-7.14q.008-2.57.02-5.141c.018-4.645.022-9.29.024-13.935q.001-4.36.01-8.721.028-15.233.026-30.467c-.002-9.443.02-18.885.051-28.327q.038-12.188.036-24.376c0-4.844.005-9.689.026-14.533q.029-6.843.005-13.686-.003-2.498.015-4.995C226.588 280.744 225 270.003 219 259c-14.668-13.514-30.915-14.311-49.793-14.195l-5.4.008q-7.056.014-14.11.05c-4.814.02-9.628.03-14.441.04q-14.128.032-28.256.097m-52.125 25.437-1.722 1.576c-2.969 2.682-2.969 2.682-5.153 5.987h26v-23c-5.295 0-15.067 11.71-19.125 15.437M325.883 296.797l2.207-.022c53.664-.401 99.316 15.089 137.973 52.913C477.622 361.29 486.557 374.46 494 389l1.16 2.246c4.38 8.57 8.252 17.214 11.215 26.379l.686 2.091c.734 2.413 1.351 4.831 1.939 7.284l.816 3.38c2.749 12.59 2.641 25.237 2.575 38.071-.016 3.768 0 7.534.02 11.301q-.004 3.615-.013 7.228l.019 3.39c-.06 6.585-.456 11.484-5.17 16.493l-1.81 1.45-1.816 1.488c-3.852 2.85-7.76 2.42-12.371 2.449-1.199.03-1.199.03-2.422.063-6.543.043-10.712-1.246-15.515-5.938-5.76-7.61-5.725-16.324-5.794-25.53-.326-35.191-8.03-69.993-33.207-96.161-1.466-1.882-1.904-3.354-2.312-5.684l-2.207-.227c-3.537-.98-4.92-2.534-7.48-5.148-21.158-19.851-51.826-29.992-80.5-30.062l-3.36-.012c-10.353.14-20.066 2.01-30.117 4.355-7.934 1.778-14.902 1.654-22.336-1.906-5.478-4.504-9.505-9.931-10.203-17.078-.17-7.884 1.73-14.374 7.156-20.258 11.582-9.416 28.46-11.773 42.93-11.867"/><path fill="#FEFEFE" d="m116.938 336.734 3.886-.005q4.039-.005 8.077.01c3.412.012 6.824.005 10.236-.007 3.308-.009 6.617-.003 9.926.002l3.65-.012c16.167.088 28.892 2.27 40.951 13.606 6.85 7.836 10.72 16.706 10.547 27.082-.869 10.665-4.705 18.207-11.461 26.277-13.277 11.165-28.085 12.465-44.797 12.481l-3.78.01q-3.949.007-7.898.007-4.014 0-8.029.02c-3.89.02-7.778.024-11.668.025l-3.58.022c-15.904-.043-30.08-2.494-41.807-13.94L69 400l-1.848-1.937c-6.17-7.279-7.837-16.994-7.488-26.344C60.901 361.707 65.541 354.643 73 348c3.202-2.313 6.479-4.219 10-6l3.313-1.75c9.89-3.352 20.277-3.55 30.624-3.516m-21.84 33.676c-1.874 2.714-1.684 5.223-1.59 8.43.355 2.526.355 2.526 3.305 4.66 4.263 2.006 7.273 2.633 11.94 2.677l3.58.039 3.874.022 3.98.025q4.172.022 8.344.032c3.555.011 7.108.046 10.663.085 3.4.033 6.8.037 10.2.046l3.855.053c7.263-.018 11.513-.241 16.751-5.479.563-3.098.656-5.914 0-9-2.765-3.172-6.063-4.688-10-6-1.788-.103-3.58-.148-5.37-.161l-3.328-.03-3.599-.012-3.703-.017q-3.884-.014-7.768-.02c-3.952-.01-7.904-.04-11.857-.072q-3.774-.01-7.547-.016l-3.574-.038c-7.1.02-12.315.446-18.156 4.776M78.786 433.86l2.91-.018 3.172-.003 3.357-.015q5.502-.021 11.005-.027l7.654-.017q7.002-.015 14.005-.019a5745 5745 0 0 0 20.561-.05c5.95-.025 11.9-.033 17.85-.035q3.788-.004 7.573-.024c3.538-.017 7.075-.015 10.612-.008l3.142-.028c6.518.037 13.888.267 18.996 4.836 3.963 4.635 4.774 7.497 4.377 13.548-1.294 4.242-2.343 6.447-5.75 9.312-7.094 3.684-13.322 3.982-21.183 3.963l-3.27.015c-3.555.014-7.11.013-10.664.01l-7.439.014q-7.79.01-15.58.002c-6.642-.006-13.285.01-19.929.034-5.12.015-10.24.016-15.36.013q-3.672 0-7.345.015c-3.43.013-6.859.006-10.288-.006l-3.042.023c-7.517-.055-14.172-.924-20.088-5.833-3.415-4.243-4.542-6.905-4.375-12.539.743-4.805 3.611-7.482 7.313-10.336 4.055-2.28 7.171-2.811 11.786-2.827"/></svg>