<svg xmlns="http://www.w3.org/2000/svg" width="512" height="512"><path fill="#FFF" d="m178.03 156.725 5.662-.015c5.091-.013 10.182-.014 15.273-.012q6.4 0 12.8-.008 15.11-.016 30.223-.006c10.355.006 20.711-.006 31.067-.027q13.387-.027 26.776-.02c5.316.001 10.631-.001 15.947-.015q7.504-.018 15.008.002 2.736.004 5.47-.009c23.34-.098 44.55 4.157 61.931 20.947 16.719 16.869 20.151 38.517 20.079 61.375l.005 4.133q.005 4.29-.01 8.581c-.012 3.62-.005 7.24.007 10.86q.009 4.256 0 8.51c-.002 1.969.004 3.938.01 5.906-.105 20.56-4.107 40.786-18.583 56.436-15.146 14.623-33.002 21.802-53.99 21.777l-2.412.01q-3.97.01-7.94.011l-5.718.015q-7.75.019-15.497.024l-9.702.012q-15.204.02-30.408.027-17.499.007-34.998.05-13.56.034-27.12.034-8.082 0-16.164.025-7.614.023-15.228.01-2.776-.002-5.553.013c-14.07.071-28.854-.153-41.465-7.184l-2.007-1.061C124.45 343.318 118.46 338.882 113 333l-1.578-1.527c-15.329-15.778-17.572-37.034-17.59-57.922l-.01-4.154q-.009-4.335-.007-8.671c0-3.66-.014-7.319-.031-10.978q-.015-4.288-.013-8.575c-.001-1.99-.012-3.981-.023-5.972.054-21.818 4.65-41.837 20.314-57.951 17.905-17.637 39.932-20.562 63.969-20.525m-53.897 37.486c-10.19 13.512-11.292 27.317-11.301 43.621l-.01 4.326a4154 4154 0 0 0-.007 9.04c0 3.832-.014 7.665-.031 11.497q-.015 4.464-.013 8.929a900 900 0 0 1-.013 4.235c-.092 18.39 2.91 33.638 16.242 47.141 10.502 9.244 23.285 13.157 37.082 13.14l2.415.01q3.993.01 7.986.011l5.737.015q7.785.019 15.571.024 4.87.004 9.739.012 15.249.02 30.498.027 17.576.007 35.15.05 13.604.034 27.207.034 8.115 0 16.231.025 7.641.023 15.282.01 2.793-.002 5.587.013c17.194.086 33.598-1.998 46.706-14.398 12.873-14.04 15.131-29.558 15.11-47.993l.013-4.291q.01-4.474.002-8.948c-.006-3.782.01-7.563.034-11.345.015-2.95.016-5.901.013-8.852q0-2.089.015-4.177c.107-16.649-2.568-33.02-14.401-45.558-14.995-13.72-30.544-15.113-49.914-15.084l-5.74-.015a5057 5057 0 0 0-15.52-.012q-6.493 0-12.986-.008-15.327-.016-30.652-.006c-10.52.006-21.038-.006-31.557-.027q-13.577-.027-27.155-.02c-5.397.001-10.794-.001-16.191-.015q-7.617-.018-15.233.002-2.784.004-5.568-.009c-19.29-.08-37.214 3.068-50.328 18.596"/><path fill="#FFF" d="M47 246c4.386 1.569 8.515 3.562 12.688 5.625l3.376 1.582C68.961 256.069 73.456 258.394 77 264c.735 4.001.388 5.418-1.875 8.813-2.549 2.623-3.442 3.1-7.062 3.562C62.58 276.352 57.782 273.421 53 271l1 2c.294 2.139.584 4.278.848 6.42C60.449 324.022 79.358 363.315 110 396l1.393 1.496C129.033 416.291 150.654 430.281 174 441l1.993.92c21.011 9.56 44.92 15.634 68.05 16.256l2.564.072q2.598.064 5.196.094c5.654.186 8.848.961 13.197 4.658 1.579 3.158 1.82 6.607 1 10-2.006 2.873-3.578 4.7-7.103 5.445-2.61.163-5.159.142-7.772.055l-2.93-.056C201.166 477.067 154.515 459.638 118 430l-2.355-1.797C102.429 417.887 89.983 405.481 80 392l-1.364-1.82C70.776 379.626 64.02 368.698 58 357l-1.191-2.304C44.306 330.22 37.809 304.098 34 277l-2.812 1.965C27.59 281.262 26.168 281.78 22 281c-3.486-2.001-5.304-3.22-6.762-6.95-.384-2.78-.195-4.39.762-7.05 3.27-4.149 7.035-7.542 11-11l2.371-2.148A168 168 0 0 1 35 249l1.723-1.687c3.484-2.009 6.431-2.03 10.277-1.313M260.875 33.5l2.93.056c18.086.53 35.79 3.583 53.195 8.444l2.52.701C363.118 55.211 404.775 83.538 432 120l1.373 1.83c7.855 10.547 14.615 21.476 20.627 33.17l1.093 2.124C467.471 181.514 474.367 207.979 478 235l3.305-1.996c2.66-1.607 3.592-2.002 6.82-2.066 3.75 1.385 5.497 2.845 7.875 6.062.799 3.528.825 5.673-1.121 8.805-5.683 6.83-16.357 19.42-25.274 20.672-6.312-.17-11.743-3.358-17.293-6.102l-3.376-1.582c-5.897-2.862-10.392-5.187-13.936-10.793-.735-4.001-.388-5.418 1.875-8.812 2.549-2.624 3.442-3.1 7.063-3.563 5.481.023 10.28 2.954 15.062 5.375l-1-2a456 456 0 0 1-.848-6.42c-6.612-52.65-32.794-101.559-74.485-134.832C368.834 87.08 353.808 78.376 338 71l-3.406-1.613c-20.602-9.314-44.006-14.94-66.637-15.563l-2.564-.072a377 377 0 0 0-5.196-.094c-5.654-.186-8.848-.961-13.197-4.658-1.579-3.158-1.82-6.607-1-10 4.121-5.903 8.246-5.722 14.875-5.5"/></svg>