<svg xmlns="http://www.w3.org/2000/svg" width="512" height="512"><path fill="#FFF" d="m52.175 404.869 2.167-.007q3.603-.006 7.206-.002l5.211-.01q7.17-.011 14.337-.01 7.729-.005 15.457-.016 16.902-.02 33.806-.024l21.108-.012q29.22-.019 58.44-.026h7.566l7.598-.002h3.807q30.532-.009 61.066-.046 31.346-.035 62.692-.037 17.601.001 35.201-.025 14.988-.023 29.976-.012 7.646.008 15.29-.011 7.005-.019 14.01 0 2.528.004 5.057-.01c17.48-.084 32.55 3.435 45.576 15.897 12.365 13.628 15.054 28.227 14.429 45.92-.876 12.848-7.855 24.123-17.085 32.787-6.75 5.741-13.627 9.178-22.09 11.777l-1.71.54c-3.16.635-6.184.588-9.407.591l-2.185.007q-3.642.006-7.284.002l-5.26.01q-7.244.011-14.487.01c-5.204.002-10.408.01-15.612.016q-17.077.02-34.153.024l-21.322.012q-29.51.019-59.02.026h-7.644l-11.521.003q-30.844.008-61.69.045-31.659.035-63.319.037-17.778-.001-35.557.025-15.14.023-30.28.012-7.725-.008-15.449.011-7.074.019-14.15 0-2.555-.004-5.111.01c-8.684.04-16.65-.093-24.839-3.381l-2.742-1c-12.713-5.96-22.666-16.728-27.57-29.813-4.201-12.283-4.886-27.465.054-39.625 7.705-15.696 18.008-26.088 34.75-31.835 4.98-1.443 9.49-1.853 14.683-1.858M40.427 255.866l2.286-.007q3.813-.009 7.626-.006l5.506-.011q7.583-.014 15.164-.017 8.172-.007 16.342-.022c13.162-.02 26.323-.03 39.484-.039l18.59-.015a130234 130234 0 0 1 77.824-.044h2.013q32.292-.014 64.584-.065 34.147-.052 68.293-.057c12.408-.002 24.815-.01 37.223-.036q15.85-.034 31.7-.02c5.39.004 10.78.002 16.171-.017q7.407-.026 14.814-.001 2.675.004 5.35-.014c13.435-.084 24.19 1.356 34.603 10.505l1.836 1.52c6.488 5.821 11.571 14.705 12.341 23.504.428 14.927-1.016 26.255-11.177 37.976-12.96 12.168-26.64 13.3-43.636 13.26l-5.42.012c-4.953.01-9.905.008-14.857.004-5.346-.002-10.692.007-16.037.014q-15.702.018-31.404.012a35955 35955 0 0 0-36.58.01q-34.61.014-69.22.003c-21.105-.006-42.21.006-63.315.025q-32.512.03-65.026.024-18.25-.005-36.501.014-15.537.019-31.073.002-7.926-.011-15.85.005-7.26.014-14.52-.007-2.621-.004-5.242.008c-15.877.068-29.294-2.172-41.397-13.234C.878 317.904-.887 305.664-.195 291.238.538 282.83 4.542 276.212 10 270l1.52-1.836c7.592-8.46 17.784-12.322 28.907-12.298m-8.47-128.123 2.386-.01c2.642-.01 5.284-.005 7.926 0l5.736-.014c5.258-.012 10.515-.012 15.773-.01 5.669 0 11.337-.01 17.006-.02q16.662-.024 33.324-.023 13.542-.001 27.084-.012a87189 87189 0 0 1 83.046-.024q32.548 0 65.095-.042 36.57-.047 73.139-.046c12.908.001 25.815-.005 38.723-.026q16.485-.028 32.97-.009c5.607.007 11.214.007 16.822-.01q7.702-.023 15.403.004 2.784.005 5.568-.012c11.876-.066 22.378.278 31.51 8.808 7.394 8.223 9.114 16.937 8.845 27.715-.475 8.385-4.088 15.39-10.313 20.988-6.879 5.173-13.315 7.306-21.957 7.257l-2.386.01c-2.642.01-5.284.005-7.926 0l-5.736.014c-5.258.012-10.515.012-15.773.01-5.669 0-11.337.01-17.006.02q-16.662.023-33.324.023-13.542.001-27.084.012c-21.426.014-42.851.027-64.277.026h-2.076l-16.693-.002q-32.548 0-65.095.042c-24.38.03-48.76.048-73.139.046q-19.361-.004-38.723.026-16.485.029-32.97.009c-5.607-.007-11.214-.007-16.822.01q-7.702.023-15.403-.004-2.784-.005-5.568.012c-11.876.066-22.378-.278-31.51-8.808-7.394-8.223-9.114-16.937-8.844-27.715C.162 147.603 3.775 140.598 10 135c6.879-5.173 13.315-7.306 21.957-7.257M24.453 20.494l2.474-.019c2.73-.015 5.46-.002 8.19.01q2.97-.008 5.94-.02c5.435-.02 10.87-.013 16.306-.003 5.863.007 11.727-.009 17.59-.022 11.487-.021 22.973-.021 34.459-.013a20385 20385 0 0 0 32.03-.004l6.065-.004a43062 43062 0 0 1 75.789.006q33.656.021 67.31-.022a45814 45814 0 0 1 83.71-.033h2.006q14.985.004 29.971-.02a9615 9615 0 0 1 34.09.004c5.797.012 11.595.015 17.392-.004q7.964-.024 15.926.014 2.879.008 5.757-.011c19.239-.12 19.239-.12 26.542 5.647 5.82 6.208 6.47 12.184 6.41 20.406-.692 6.064-3.467 10.067-8.039 13.992-4.96 3.506-9.385 3.748-15.245 3.736l-2.47.007q-4.131.009-8.262.006l-5.955.011q-8.21.014-16.42.017-8.843.007-17.687.022-20.361.027-40.722.037l-20.119.015a151131 151131 0 0 1-73.181.042h-2.166l-13.041.005q-34.953.013-69.906.064a58714 58714 0 0 1-82.003.058h-2.017q-15.08.006-30.158.035-17.152.034-34.303.02c-5.836-.004-11.672-.002-17.508.017q-8.011.026-16.023.001a789 789 0 0 0-5.8.014c-2.628.015-5.254.006-7.881-.01l-2.277.031c-6.352-.083-11.722-2.05-16.286-6.561l-1.379-2.027-1.433-2.036C-1.094 48.471-.414 42.1 0 36c2.059-6.068 6.037-10.114 11.647-13.117 4.358-2.112 8.018-2.447 12.806-2.39"/></svg>