<svg xmlns="http://www.w3.org/2000/svg" width="512" height="512"><path fill="#FFF" d="m238.02-.434 4.291-.015q4.474-.013 8.948.003c3.782.011 7.563-.009 11.345-.038 2.95-.019 5.901-.018 8.852-.012q2.089 0 4.177-.019c18.482-.143 33.586 5.363 47.05 18.136 9.399 9.652 9.399 9.652 11.228 15.084 1.097 3.121 2.135 5.617 4.089 8.295 4.012 1.704 7.93 1.753 12.25 1.875q3.537.255 7.07.543l3.474.263c25.255 2.512 48.677 19.052 64.613 37.99 14.913 18.509 22.744 41.223 22.74 64.87l.011 3.506q.014 4.798.017 9.596.007 5.184.022 10.367c.02 8.34.03 16.68.039 25.02l.015 11.805a52707 52707 0 0 1 .046 52.026c.008 13.648.033 27.296.066 40.944q.049 21.055.054 42.112c.002 7.87.01 15.742.036 23.613q.034 10.061.02 20.122-.007 5.122.017 10.245c.168 34.959-8.786 62.251-33.002 87.748-21.783 21.182-49.995 29.014-79.605 28.873q-2.916.008-5.832.02c-5.223.019-10.446.012-15.67 0-5.5-.01-11-.001-16.502.005a9697 9697 0 0 1-27.697-.022c-10.63-.021-21.26-.014-31.891.008q-13.762.026-27.523.01a4578 4578 0 0 0-16.376.006q-7.703.017-15.405-.02-2.805-.007-5.608.006c-31.919.138-58.018-11.192-81.024-33.043-23.784-24.459-28.984-54.707-28.857-87.456-.001-2.786-.009-5.572-.016-8.358-.014-6.74-.007-13.48.009-20.221.017-7.869.013-15.737.01-23.606-.006-14.049.008-28.097.032-42.146q.036-20.396.021-40.793a25606 25606 0 0 1 .006-49.314l.002-2.365q.006-8.205-.001-16.412-.009-10.013.02-20.024.016-5.098.008-10.195c-.056-33.91 7.964-61.885 32.099-86.786 15.299-15.197 37.24-26.994 58.93-28.292 11.088-.008 11.088-.008 21.049-3.82 2.402-3.246 3.406-7.02 4.58-10.832 4.56-11.298 18.106-19.236 28.335-24.473C218.389.393 227.487-.464 238.02-.434M217.19 52.121c-2.712 4.278-3.49 8.331-4.066 13.316-.75 5.342-1.76 8.414-5.125 12.563v2c-1.31.71-2.653 1.36-4 2l-3.11 1.543c-6.82 2.534-14.454 1.922-21.64 1.957-13.225.066-25.219.86-37.25 7l-2.035 1.034c-15.117 8.085-25.66 21.931-30.827 38.175-3.063 12.29-2.567 24.736-2.542 37.32l-.02 7.879c-.018 6.365-.019 12.73-.014 19.096q.006 7.77-.002 15.538l-.003 2.243-.004 4.512c-.014 14.07-.009 28.14.003 42.21.01 12.841-.003 25.682-.027 38.522q-.037 19.833-.027 39.665c.003 7.408.001 14.816-.017 22.225q-.022 9.459.002 18.918.014 4.815-.004 9.63c-.093 24.28 2.73 44.387 20.517 62.533 16.372 14.083 34.527 17.626 55.453 17.518q2.685.008 5.368.02c4.81.019 9.62.012 14.43 0 5.063-.01 10.127-.001 15.191.005q12.75.01 25.5-.022c9.788-.021 19.576-.014 29.365.008q12.667.026 25.336.01c5.026-.006 10.052-.007 15.078.006q7.092.017 14.184-.02a629 629 0 0 1 5.166.006c21.576.101 40.088-5.004 55.929-20.531 16.308-18.959 17.601-39.323 17.518-63.256q.008-3.94.02-7.88c.018-6.358.015-12.717.003-19.076q-.013-7.76-.006-15.52l.002-2.242.004-4.51c.011-14.057-.002-28.114-.023-42.171q-.025-18.044.003-36.088a17467 17467 0 0 0 .014-46.525l-.002-2.232q-.003-7.74.012-15.48.018-10.44-.02-20.881-.007-3.817.006-7.633c.071-22.559-1.964-43.3-18.271-60.445-16.107-16.117-35.002-19.465-56.79-19.572-18.494-.132-18.494-.132-25.283-5.864-4.658-5.59-5.933-10.596-6.916-17.654-1.008-6.297-3.492-10.269-8.146-14.721-6.464-4.654-12.644-4.57-20.332-4.586l-3.273-.02q-3.42-.015-6.84-.015c-3.47-.004-6.939-.04-10.409-.078q-3.333-.009-6.666-.012l-3.116-.043c-9.34.058-16.295 2.254-22.298 9.625"/><path fill="#FFF" d="m260.833 169.823 2.701-.02c2.95-.02 5.9-.031 8.849-.041l3.06-.013q8.022-.03 16.043-.044a3172 3172 0 0 0 16.523-.085c4.248-.027 8.497-.035 12.745-.038q3.045-.008 6.088-.035c23.083-.199 23.083-.199 30.067 6.203 5.467 5.8 6.557 11.423 6.404 19.242-.621 5.976-2.92 9.584-7.063 13.82-6.745 4.54-12.638 5.634-20.568 5.576l-2.714.016c-2.937.013-5.874.005-8.812-.006q-3.081.003-6.163.01-6.446.005-12.89-.017c-5.495-.017-10.99-.007-16.483.01-4.24.012-8.48.008-12.72 0q-3.038-.003-6.075.008c-2.836.008-5.671-.004-8.507-.02l-2.51.018c-7.564-.082-14.3-1.899-19.808-7.407-4.235-6.124-5.755-11.572-5-19 1.416-5.652 3.748-10.75 8.672-14.156 6.152-3.681 11.123-3.998 18.16-4.021M259.345 340.71l2.83-.02c3.084-.02 6.167-.024 9.25-.026l6.446-.02q6.754-.017 13.51-.015c5.76 0 11.52-.027 17.28-.061 4.437-.022 8.875-.026 13.313-.025q3.184-.005 6.369-.027a837 837 0 0 1 8.924-.002l2.637-.034c6.74.07 11.975 1.826 17.12 6.266l1.351 1.691 1.398 1.684c3.702 5.671 4.074 11.287 3.227 17.879-2.257 7.125-5.564 11.305-12 15-2.702.9-4.29 1.132-7.065 1.154l-2.502.026-2.735.013-2.888.025q-4.74.035-9.478.055l-3.271.017q-8.572.039-17.145.06c-5.897.017-11.794.062-17.69.112-4.54.034-9.079.046-13.618.051q-3.26.01-6.52.046a712 712 0 0 1-9.14.024l-2.703.05c-6.993-.07-11.696-2.28-16.772-7.076-4.35-4.824-5.992-9.872-5.782-16.346.997-7.137 3.812-12.57 9.43-17.055 5.383-3.312 10.066-3.453 16.224-3.447M253.2 255.74l2.514-.022 2.733.007 2.898-.015c3.164-.014 6.327-.013 9.49-.01l6.6-.014q6.917-.01 13.835-.002c5.907.006 11.813-.01 17.72-.034 4.544-.015 9.087-.016 13.63-.013q3.267 0 6.533-.015c3.048-.013 6.094-.006 9.141.006l2.721-.023c6.444.054 10.561 1.375 15.61 5.582 5.083 6.02 7.095 11.18 6.754 19.137-.97 6.846-4.28 11.114-9.5 15.45-5.302 3.46-10.083 3.523-16.224 3.517l-2.83.02c-3.084.019-6.167.023-9.25.025l-6.446.02q-6.754.017-13.51.015c-5.76 0-11.52.027-17.28.061-4.437.022-8.875.026-13.313.025a1029 1029 0 0 0-6.369.027c-2.975.02-5.949.014-8.924.002l-2.637.034c-7.37-.076-12.615-2.094-17.908-7.27-3.997-5.938-6.396-11.962-5.188-19.25 2.136-7.462 6.152-12.225 12.849-16.058 2.315-1.014 3.838-1.196 6.35-1.203M181.887 172.66c4.581 2.905 8.127 7.293 10.113 12.34.864 7.382 1.127 14.284-3.512 20.387-5.086 5.513-9.64 8.228-17.238 8.988-5.91-.192-11.659-2.125-16.148-6.023-5.356-5.983-6.57-11.402-6.415-19.344.621-5.976 2.92-9.584 7.063-13.82 8.517-5.733 16.74-7.088 26.137-2.528M180.746 257.059c5.09 3.167 9.365 7.154 11.254 12.941.876 7.432.85 13.443-3 20-4.245 5.094-9.07 8.433-15.68 9.387-6.264.251-11.245-.589-16.32-4.387-4.443-4.176-7.473-8.386-8.371-14.543-.18-7.166 1.132-12.59 5.371-18.457 7.076-6.735 17.6-8.467 26.746-4.941M181.375 343.063c5.52 3.08 8.605 6.878 10.625 12.937.826 8.134.911 14.628-4.277 21.227-3.907 4.021-7.918 6.578-13.649 6.976-7.849.109-12.537-.255-18.699-5.39-5.083-6.02-7.095-11.18-6.754-19.137.97-6.846 4.28-11.114 9.5-15.45 7.209-4.705 15.536-4.67 23.254-1.163"/></svg>