<svg xmlns="http://www.w3.org/2000/svg" width="512" height="512"><path fill="#FFF" d="M251.13-.521c4.055.022 8.109.009 12.163-.014C294.21-.685 321.424 3.245 346 24l2.46 2.055C364.725 40.115 377.47 59.782 382 81v4l2.896-.063C419.466 84.247 446.949 87.8 475 110l1.996 1.523c5.504 4.399 9.722 9.922 14.004 15.477l1.883 2.441c12.21 16.619 19.455 37.214 19.384 57.866l.014 2.994c.013 3.285.011 6.57.01 9.855q.008 3.55.02 7.1c.018 6.41.022 12.822.024 19.234q.001 6.019.01 12.038.027 19.946.026 39.89v4.339c-.001 11.592.018 23.183.046 34.774q.043 17.903.04 35.807c0 6.687.006 13.375.027 20.062q.029 9.446.005 18.891a1112 1112 0 0 0 .015 6.896c.165 33.477-9.96 60.184-33.016 84.458-24.957 24.27-55.73 28.992-89.043 28.878-3.976-.01-7.951.005-11.927.016-7.764.018-15.528.014-23.292.002q-9.474-.013-18.949-.006l-2.735.002-5.503.004a27597 27597 0 0 1-51.472-.023q-22.03-.026-44.061.003a26023 26023 0 0 1-59.507.012q-9.45-.003-18.902.012-11.535.018-23.069-.013c-3.915-.01-7.83-.015-11.745-.001-36.246.113-64.327-7.778-90.928-33.043C5.873 456.368-.633 427.156-.533 395.983q-.011-3.543-.027-7.088c-.022-6.366-.02-12.731-.01-19.097q.005-5.985-.004-11.968l-.003-2.018-.006-4.06c-.016-12.645-.007-25.288.01-37.932.014-11.518 0-23.035-.03-34.553a10850 10850 0 0 1-.027-39.695l.001-2.01c.002-4.63-.008-9.26-.022-13.89a2736 2736 0 0 1 .012-18.77q.008-3.42-.01-6.839C-.752 178.518 1.668 160.42 11 143l1.398-2.844C16.05 132.976 20.771 127.093 26 121l2.375-3.125C45.43 99.195 70.168 88.015 95 85c2.781-.122 5.556-.117 8.34-.098l2.324.005c2.425.005 4.849.018 7.273.03l4.963.014q6.05.017 12.1.049l.425-3.757c.356-2.837.772-5.447 1.774-8.138l.717-1.938.771-1.98.812-2.106c10.303-26.114 30.917-47.564 56.59-58.93l2.098-.901 1.847-.817C197.327 5.499 199.637 4.74 202 4l3.295-1.074c14.863-4.295 30.513-3.534 45.836-3.447m-44.38 50.146-2.023 1.045C198.664 53.935 193.748 58.014 189 63l-1.95 1.96C182.153 70.169 176 77.615 176 85h160c-2.489-12.443-11.565-22.93-21.718-30.236-13.61-8.995-27.233-11.905-43.286-11.967l-3.501-.017q-3.663-.014-7.325-.02c-3.696-.01-7.39-.04-11.086-.072-21.864-.123-21.864-.123-42.334 6.937M58.578 149.915C33.63 178.55 43 222.381 43 256h426c3.681-44.534 3.681-44.534-6.625-92.25l-1.045-2.023c-3.267-6.066-7.35-10.968-12.33-15.727l-1.855-1.914c-14.55-14.085-34.392-16.246-53.636-16.22l-3.706-.007q-5.054-.007-10.107-.004-5.465-.002-10.93-.01-10.695-.012-21.388-.012-8.7 0-17.397-.006-24.7-.013-49.399-.012h-5.376q-21.565-.002-43.132-.023-22.18-.023-44.36-.02-12.437.001-24.875-.014-10.59-.014-21.183-.005-5.394.007-10.79-.005c-27.829-.063-51.764.762-72.288 22.166M43 299l-.25 55.5-.11 17.436c-.014 5.22-.014 5.22-.022 10.439q-.01 3.45-.04 6.9C42.372 413.652 45.138 433.776 63 452c19.458 16.738 40.486 17.61 65 17.523 3.785-.01 7.57.005 11.354.016 7.393.018 14.786.014 22.18.002q9.021-.013 18.042-.006l2.603.002 5.238.004c16.333.011 32.666-.002 49-.023q20.977-.025 41.954.003a23583 23583 0 0 0 56.645.012q9-.003 18 .012 10.983.017 21.965-.013c3.729-.01 7.457-.015 11.186-.001 25.497.083 46.668-1.745 65.833-20.531 16.339-18.994 17.604-39.303 17.39-63.281q-.008-3.341-.012-6.683c-.02-8.179-.076-16.357-.128-24.536L469 299H278l-1 25c-4.338 11.567-4.338 11.567-6.625 13.063L268 338l-1.758.785c-6.386 2.693-11.797 3.205-18.43 1.028-5.624-2.35-9.064-6.454-11.812-11.813-2.35-9.4-1.613-19.318-2-29z"/></svg>