<svg xmlns="http://www.w3.org/2000/svg" width="512" height="512"><path fill="#FFF" d="m148.875-.312 3.617-.051C158.841.294 162.945 3.197 167 8c4 8 4 8 4 34h170V16c6.6-13.2 6.6-13.2 15-16 7.51-.668 14.234-1.134 20.453 3.57 4.148 3.834 7.344 7.726 7.774 13.454-.01 1.153-.02 2.305-.032 3.492l-.02 3.789-.05 3.945-.027 3.992Q384.062 37.121 384 42l2.36-.048c35.254-.615 67.105 4.506 93.737 29.673 18.104 17.79 31.668 42.797 32.037 68.637q.015 3.14.013 6.278l.011 3.507q.014 4.798.017 9.596.007 5.184.022 10.367c.02 8.34.03 16.68.039 25.02l.015 11.805a52707 52707 0 0 1 .044 49.47l.002 2.556c.008 13.648.033 27.296.066 40.944q.049 21.055.054 42.112c.002 7.87.01 15.742.036 23.613q.034 10.061.02 20.122-.007 5.122.017 10.245c.168 34.959-8.786 62.251-33.002 87.748-24.957 24.27-55.73 28.992-89.043 28.878-3.976-.01-7.951.005-11.927.016-7.764.018-15.528.014-23.292.002q-9.474-.013-18.949-.006l-2.735.002-5.503.004c-17.158.011-34.315-.002-51.472-.023q-22.03-.026-44.061.003a26023 26023 0 0 1-56.783.014l-2.724-.002q-9.45-.003-18.902.012-11.535.018-23.069-.013c-3.915-.01-7.83-.015-11.745-.001-36.246.113-64.327-7.778-90.928-33.043C4.571 455.03-.629 424.781-.502 392.032c-.001-2.786-.009-5.572-.016-8.358-.014-6.74-.007-13.48.009-20.221.017-7.869.013-15.737.01-23.606-.006-14.049.008-28.097.032-42.146q.036-20.396.021-40.793a25606 25606 0 0 1 .006-49.314l.002-2.365q.006-8.205-.001-16.412-.009-10.013.02-20.024.016-5.098.008-10.195c-.056-33.91 7.964-61.885 32.099-86.786 22.51-22.36 51.9-30.01 82.75-29.937 4.52.02 9.041.066 13.562.125l-.08-2.443c-.104-3.686-.169-7.37-.233-11.057l-.126-3.844C127.462 17.122 127.81 11.73 133 6c5.137-4.761 8.862-6.29 15.875-6.312M78 92.5l-2.035 1.034c-15.336 8.203-25.397 22.038-30.938 38.325C41.607 144.653 43 156.288 43 170h426c0-26.213-.334-47.52-19.176-66.375-13.967-12.982-30.358-18.112-49.183-18.006l-3.916-.014c-3.552-.013-7.105-.007-10.657.003-3.845.007-7.69-.004-11.534-.012-7.519-.013-15.037-.01-22.555-.002q-9.17.01-18.34.005l-2.642-.002q-2.658 0-5.315-.003c-16.59-.008-33.18.002-49.771.018q-21.328.018-42.655-.003a32445 32445 0 0 0-54.895-.01l-2.631.001q-9.153.003-18.306-.009-11.163-.013-22.326.01-5.689.014-11.378.001c-4.12-.01-8.24.002-12.361.017l-3.595-.02C97.225 85.673 87.419 87.694 78 92.5M43 214C26.001 317.712 26.001 317.712 63 452c19.458 16.738 40.486 17.61 65 17.523 3.785-.01 7.57.005 11.354.016 7.393.018 14.786.014 22.18.002q9.021-.013 18.042-.006l2.603.002 5.238.004c16.333.011 32.666-.002 49-.023q20.977-.025 41.954.003a23583 23583 0 0 0 54.053.014l2.592-.002q9-.003 18 .012 10.983.017 21.965-.013c3.729-.01 7.457-.015 11.186-.001 25.497.083 46.668-1.745 65.833-20.531 48.975-56.934 17-214.951 17-235z"/><path fill="#FFF" d="m191.75 255.563 3.547-.122c9.752 1.472 16.38 9.84 22.984 16.547q1.597 1.605 3.194 3.207a3001 3001 0 0 1 8.325 8.4c2.837 2.867 5.683 5.727 8.528 8.587A8439 8439 0 0 1 255 309c3.677-1.541 5.983-3.759 8.765-6.586l1.391-1.405q1.49-1.506 2.973-3.018 2.353-2.396 4.719-4.78c4.48-4.519 8.947-9.051 13.411-13.587q4.103-4.165 8.223-8.313a783 783 0 0 0 3.116-3.166 809 809 0 0 1 4.378-4.43l2.507-2.545c6.042-5.209 11.363-5.763 19.099-5.584 6.3.763 10.108 3.78 14.293 8.351 3.727 5.371 5.002 10.56 4.125 17.063-2.227 9.47-8.593 15.377-15.328 21.914a2003 2003 0 0 0-3.346 3.32c-2.913 2.89-5.844 5.763-8.779 8.63-3 2.94-5.984 5.896-8.969 8.85A4570 4570 0 0 1 288 341c4.636 5.63 9.663 10.735 14.877 15.83 1.99 1.948 3.972 3.906 5.953 5.863 3.675 3.63 7.353 7.254 11.047 10.862q3.878 3.79 7.724 7.61 1.459 1.442 2.931 2.87c6.766 6.562 10.824 11.262 11.906 20.84-.277 5.844-2.232 11.585-6.086 16.023-4.922 4.406-9.493 6.39-16.164 6.477l-2.958.086c-9.945-1.42-16.049-8.753-22.73-15.57l-3.261-3.279a2357 2357 0 0 1-8.503-8.601c-2.895-2.937-5.803-5.862-8.709-8.788A6631 6631 0 0 1 257 374c-3.627 1.528-5.9 3.68-8.642 6.478l-2.772 2.812-1.469 1.503q-2.29 2.34-4.594 4.667a4002 4002 0 0 0-13.059 13.268q-3.991 4.07-8.008 8.118a566 566 0 0 0-3.028 3.088c-11.782 12.106-11.782 12.106-20.553 13.597-8.372-.09-13.646-1.374-19.687-7.281-4.009-5.955-6.367-11.943-5.188-19.25 2.363-8.87 8.98-14.624 15.328-20.816q1.675-1.661 3.346-3.325c2.915-2.896 5.845-5.777 8.779-8.655 2.999-2.947 5.983-5.91 8.969-8.87A5506 5506 0 0 1 224 342c-4.988-6.054-10.454-11.487-16.07-16.957q-2.954-2.904-5.903-5.81a1973 1973 0 0 0-9.256-9.064c-2.523-2.453-5.03-4.92-7.53-7.397-1.4-1.38-2.816-2.746-4.233-4.11-6.286-6.259-10.912-12.614-11.508-21.724.974-7.67 3.664-12.917 9.719-17.747 4.27-2.855 7.325-3.532 12.531-3.628"/></svg>