<svg xmlns="http://www.w3.org/2000/svg" width="512" height="512"><path fill="#FFF" d="M112.117-.518q2.916-.008 5.832-.02c5.223-.019 10.446-.012 15.67 0 5.5.01 11 .001 16.502-.005q13.849-.01 27.697.022c10.63.021 21.26.014 31.891-.008q13.762-.026 27.523-.01a4705 4705 0 0 0 16.376-.006q7.702-.017 15.405.02 2.805.008 5.608-.006C301.171-.646 325.4 6.602 346 24l2.46 2.055C365.144 40.478 376.587 59.648 382 81v4l2.896-.063C419.466 84.247 446.949 87.8 475 110l1.996 1.523c5.504 4.399 9.722 9.922 14.004 15.477l1.883 2.441c12.876 17.525 19.444 38.408 19.384 60.039l.014 3.702q.014 5.047.01 10.096c0 3.64.01 7.279.02 10.918q.023 10.68.023 21.36.001 8.684.012 17.367.026 24.647.025 49.293v5.365c-.001 14.357.018 28.714.046 43.071q.043 22.14.04 44.279c0 8.28.005 16.559.027 24.838q.029 10.572.009 21.142c-.006 3.593-.007 7.185.01 10.777.02 3.902.007 7.803-.009 11.705l.032 3.408c-.093 10.7-3.33 19.527-9.526 28.199l-2.125 3.062c-6.462 7.412-17.369 13.196-27.133 14.161-14.025.875-23.804-1.001-35.781-8.52l-2.094-1.312c-9.304-5.877-18.388-12.086-27.492-18.266l-5.234-3.547-2.65-1.804a315 315 0 0 0-5.576-3.665c-5.333-3.465-9.997-7.044-14.583-11.46-23.568-21.527-56.243-17.03-86.047-16.309-10.143.243-20.287.342-30.432.432l-4.545.04-2.246.02q-6.495.061-12.988.213c-29.497.673-54.86-4.44-78.074-24.045l-2.46-2.055c-12.376-10.7-20.95-23.66-28.174-38.187l-1.348-2.707L133 379l-1.498 1.013q-7.885 5.334-15.775 10.663l-5.847 3.953c-10.257 6.94-20.534 13.848-30.9 20.625l-2.46 1.617c-13.513 8.788-26.82 12.53-42.95 9.48-7.106-2.16-12.839-5.678-18.57-10.351l-1.93-1.516C6.705 408.884 1.662 399.348 0 391a99 99 0 0 1-.134-5.112l-.014-3.146v-3.453l-.01-3.672q-.014-5.047-.017-10.096-.007-5.445-.022-10.888c-.02-8.77-.03-17.54-.039-26.31L-.25 315.92a58079 58079 0 0 1-.044-51.979l-.002-2.688c-.008-14.347-.033-28.693-.066-43.04q-.049-22.12-.054-44.24c-.002-8.273-.01-16.545-.036-24.818Q-.487 138.578-.473 128c.004-3.59.002-7.182-.017-10.773-.183-35.45 8.406-62.976 33.002-88.872C54.295 7.173 82.507-.659 112.117-.518M57.645 65.738c-14.536 19.281-15.232 38.659-15.1 61.965q.005 4.17 0 8.342-.003 8.936.032 17.872c.033 8.613.043 17.226.048 25.839q.015 20.967.073 41.934.056 20.353.082 40.706l.003 2.54.016 12.615c.041 34.816.111 69.633.201 104.449 3.51.943 3.51.943 6.938.214l1.879-1.302 2.182-1.48 2.349-1.659 2.51-1.718q2.7-1.85 5.387-3.72c3.812-2.652 7.647-5.271 11.481-7.892q3.011-2.058 6.019-4.122c10.112-6.933 20.315-13.727 30.551-20.476q4.27-2.82 8.534-5.65l5.275-3.48 2.378-1.581 2.252-1.478 1.922-1.27L135 325l1.587-1.037c6.288-3.702 12.329-3.525 19.476-3.477l3.92-.022q4.203-.022 8.406-.011c4.445.01 8.89-.007 13.334-.028 7.044-.03 14.088-.042 21.132-.045q18.87-.011 37.74-.085 6.605-.024 13.209-.019 3.135 0 6.27-.01 3.79-.011 7.581.002c20.797-.098 39.137-4.306 54.595-19.018 15.15-15.894 19.064-33.79 19.025-55.056l.015-4.695c.013-4.221.014-8.443.012-12.664q0-5.308.008-10.615.016-12.534.006-25.067c-.006-8.587.006-17.174.027-25.761q.026-11.104.02-22.208c-.001-4.408.001-8.816.015-13.223q.018-6.225-.002-12.448-.004-2.267.009-4.535C341.48 96.01 337.717 80.966 326 66l-2.312-3.188c-12.098-12.66-28.862-19.57-46.242-20.273-3.967-.083-7.931-.077-11.9-.057q-2.683-.008-5.367-.02c-4.81-.019-9.62-.012-14.43 0-5.063.01-10.127.001-15.191-.005q-12.75-.01-25.5.022c-9.788.021-19.576.014-29.365-.008q-12.667-.026-25.336-.01c-5.026.006-10.052.007-15.078-.006a1939 1939 0 0 0-14.184.02 629 629 0 0 1-5.166-.006c-22.517-.105-43.016 5.52-58.284 23.27M384 128l-.002 2.175q-.021 26.335-.13 52.672c-.035 8.49-.06 16.981-.064 25.473q-.003 11.115-.065 22.232c-.02 3.915-.034 7.83-.025 11.745.04 22.177-1.038 42.774-11.714 62.703l-1.398 2.844C366.952 315.02 362.22 320.906 357 327l-1.969 2.555C339.657 348.063 312.497 359.672 289 362c-3.753.161-7.504.185-11.26.205l-3.372.03q-5.494.047-10.99.081l-7.637.063q-9.009.074-18.019.138-10.262.076-20.525.16-21.098.17-42.197.323.951 2.17 1.907 4.337l1.072 2.44c1.872 4.076 4.383 7.614 7.021 11.223l1.332 1.84c9.539 12.123 25.264 19.86 40.378 21.95 5.2.476 10.437.335 15.654.32h4.053q4.35.002 8.699-.002a3986 3986 0 0 1 16.142.023l4.77.013c10.687.028 21.376.048 32.064.031q10.834-.019 21.668.032c3.815.017 7.628.024 11.443.004q5.389-.025 10.778.022c1.928.01 3.855-.01 5.783-.032 12.43.161 21.367 5.862 31.338 12.744l2.498 1.697c2.68 1.821 5.352 3.652 8.025 5.483q4.255 2.895 8.512 5.786 2.937 1.994 5.871 3.99c10.846 7.374 21.76 14.646 32.68 21.911l5.559 3.702Q458.622 464.76 465 469l4-2a102211 102211 0 0 0 .165-119.287l.002-2.536q.021-20.292.064-40.584.043-20.839.051-41.678.005-12.847.042-25.694.023-8.823.017-17.646-.004-5.082.017-10.164c.344-23.551.344-23.551-6.983-45.661l-1.045-2.023c-3.267-6.066-7.35-10.968-12.33-15.727l-1.855-1.914c-14.268-13.811-33.837-16.313-52.77-16.149l-3.043.014q-3.666.018-7.332.049"/></svg>