<svg xmlns="http://www.w3.org/2000/svg" width="512" height="512"><path fill="#FFF" d="M202.074 71.648c5.291 2.686 7.833 7.103 9.66 12.532a190 190 0 0 1 1.844 7.332l.656 2.699q.678 2.805 1.34 5.614c.677 2.867 1.37 5.73 2.067 8.591l1.312 5.47.625 2.59c.28 1.196.28 1.196.568 2.417l.501 2.117C221 123 221 123 221 127l3.723-.656c11.41-1.86 22.662-2.654 34.214-2.656l3.835-.016c8.9.065 17.447.967 26.228 2.328l.397-1.675q2.055-8.642 4.138-17.276.774-3.222 1.539-6.446c.734-3.092 1.48-6.182 2.227-9.271l.682-2.905c2.142-8.766 2.142-8.766 5.017-12.427h2v-2c5.245-3.313 9.96-3.885 16-3 4.425 2.212 7.195 4.948 10 9 2.43 7.29.471 14.218-1.406 21.406l-.74 2.925c-.776 3.059-1.565 6.114-2.354 9.169l-1.59 6.25A4186 4186 0 0 1 321 135l2.01.851c17.382 7.402 34.583 15.067 49.99 26.149 5.551-7.841 10.909-15.8 16.2-23.82 2.516-3.81 5.045-7.61 7.6-11.393a643 643 0 0 0 3.368-5.08c6.272-9.184 6.272-9.184 12.832-10.707 5.998-.762 9.354.11 14.305 3.586 3.618 3.018 4.528 5.686 5.57 10.227.72 8.027-4.122 14.47-8.562 20.687a3260 3260 0 0 0-3.47 4.969l-1.866 2.672c-3.623 5.24-7.14 10.552-10.664 15.859l-2.107 3.166q-1.86 2.795-3.716 5.592A3852 3852 0 0 1 399 183l1.797.823c2.164 1.156 3.673 2.338 5.453 4.013l1.826 1.708 1.924 1.831 2.002 1.89c8.692 8.237 17.31 16.538 24.998 25.735l2.059 2.29c7.127 8.239 10.77 17.058 10.25 28.062-1.775 15.228-12.42 25.242-22.844 35.52a871 871 0 0 0-5.291 5.276A245 245 0 0 1 400 309a1337 1337 0 0 0-5.125 4.313C383.036 322.976 370.337 331.55 357 339l-2.506 1.406C332.375 352.691 309.819 361.044 285 366l-2.182.44c-49.074 9.36-101.956-7.348-142.468-34.816C129.346 324.02 118.73 316.195 109 307a637 637 0 0 0-4.187-3.625C101.032 300.082 97.508 296.579 94 293q-4.216-4.237-8.488-8.418c-23.45-23.038-23.45-23.038-23.95-38.644.39-9.691 3.099-16.663 9.438-23.938l2.145-2.473C77.592 214.504 82.209 209.693 87 205c2.556-2.544 5.097-5.1 7.613-7.684 5.149-5.252 10.28-10.169 16.387-14.316-3.47-6.747-7.595-12.838-12.012-18.984-1.752-2.659-2.83-5.078-3.988-8.016l-2-1c-2.338-3.068-4.39-6.335-6.5-9.562l-1.8-2.674c-3.77-5.756-7.27-11.182-6.38-18.338 2.1-5.514 3.86-10.11 9.493-12.739 5.883-1.268 10.76-1.304 16.085 1.606 4.303 3.495 7.08 8.361 10.017 13.002 1.603 2.519 3.287 4.982 4.96 7.455 3.345 5.041 6.647 10.11 9.938 15.188l1.419 2.188c2.32 3.59 4.599 7.191 6.768 10.874 4.235-2.039 8.315-4.152 12.313-6.625 11.822-7.166 24.035-13.446 36.976-18.316 2.588-.802 2.588-.802 3.711-2.059-.29-1.841-.29-1.841-.896-4.026-.22-.855-.44-1.71-.668-2.59l-.745-2.825-1.513-5.897q-1.207-4.658-2.423-9.315c-.78-2.99-1.547-5.983-2.314-8.976l-.738-2.782c-1.64-6.437-2.852-12.335-.578-18.776 5.255-7.883 12.7-11.056 21.95-8.165M90 232c-3.855 4.337-7 7.95-7 14 1.185 6.374 3.873 9.645 8.375 14.188l1.976 2.045c2.203 2.27 4.425 4.518 6.649 6.767l5.055 5.172c8.293 8.436 16.498 16.684 25.945 23.828q1.905 1.511 3.805 3.027c9.93 7.853 20.223 14.67 31.195 20.973l2.043 1.202C185.77 333.571 205.736 340.674 226 344l2.105.346c51.223 8.002 100.874-11.429 141.98-40.946 8.268-6.043 16.173-12.438 23.708-19.377 1.928-1.767 3.895-3.461 5.894-5.148 4.135-3.61 8.037-7.453 11.938-11.312l1.92-1.882c8.728-8.182 8.728-8.182 12.392-18.993-.981-11.281-13.835-20.902-21.547-28.56a1117 1117 0 0 1-5.265-5.276c-6.731-6.74-13.614-12.98-21.125-18.852l-3.32-2.68C298.956 132.05 208.106 133.608 90 232"/><path fill="#FFF" d="M289.828 203.14c10.97 9.394 18.595 22.364 20.172 36.86 1.268 16.434-3.648 30.91-14.375 43.438-10.79 11.262-24.912 17.386-40.437 17.875-15.486-.357-28.825-6.213-39.973-16.946-10.703-11.44-15.634-25.497-15.422-41.094.981-15.517 7.92-28.712 19.207-39.273 20.51-17.763 49.738-16.823 70.828-.86m-58.765 20.747c-6.55 6.945-9.27 14.548-9.063 24.113 1.495 11.233 6.35 18.388 14.938 25.527 6.715 4.796 14.996 6.147 23.085 5.07C270.57 276.354 277.772 270.724 284 262c4.725-8.584 4.696-17.94 2.07-27.176-2.989-7.888-9.634-14.832-17.007-18.89-13.983-5.836-27.421-2.35-38 7.953"/></svg>