<svg xmlns="http://www.w3.org/2000/svg" width="512" height="512"><path fill="#FFF" d="m78.313 227.063 2.175.097c5.106 1.708 8.392 4.864 11.035 9.527 1.51 3.22 2.912 6.471 4.29 9.75 4.55 10.325 9.432 19.548 16.187 28.563l2.387 3.297C123.444 290.613 133.762 301.8 146 311l2.988 2.348C171.022 330.24 197.686 340.805 225 345l2.15.35c43.23 6.839 94.432-.15 130.663-26.35q2.596-1.995 5.187-4 2.747-1.941 5.5-3.875c6.765-4.921 13.517-10.312 18.691-16.926L389 292h2l.828-1.772c1.146-2.179 2.401-3.955 3.93-5.88l1.634-2.082 1.733-2.204c9.192-11.913 15.92-23.857 21.895-37.656 2.57-5.846 5.215-11.155 10.98-14.406 4.626-1.382 8.13-1.261 12.75.125 4.42 2.55 7.609 4.952 9.25 9.875.816 7.498-.72 13.222-3.812 20l-1.218 2.742c-4.219 9.241-9.335 17.82-14.97 26.258l-1.27 1.909C423.575 302.52 412.791 314.627 401 326a44.6 44.6 0 0 0 4.857 9.543l1.74 2.63 1.872 2.8 1.927 2.909q3.047 4.594 6.104 9.18 3.054 4.594 6.104 9.192 1.895 2.859 3.8 5.713l1.739 2.62 1.529 2.295c3.429 5.468 4.13 9.685 3.328 16.118-1.272 3.7-3.198 6.312-6.187 8.875-5.309 2.123-9.882 2.624-15.438 1.188-7.083-4.33-11.147-11.015-15.437-17.958-2.184-3.499-4.455-6.929-6.75-10.355l-1.263-1.887-2.583-3.858q-3.489-5.217-6.967-10.442l-2.54-3.81L375 348c-2.949.62-5.237 1.56-7.836 3.074l-2.203 1.265-2.336 1.349C349.628 361.03 336.099 366.186 322 371c1.788 8.396 3.666 16.76 5.79 25.078l.946 3.714q.934 3.644 1.89 7.283c4.864 18.965 4.864 18.965.62 26.234-2.557 3.47-5.195 5.34-9.246 6.691-6.03.511-11.21.016-16-4-3.21-4.999-4.925-9.518-6.219-15.285l-.56-2.358c-.584-2.471-1.153-4.945-1.721-7.42a3816 3816 0 0 0-2.281-9.722l-.557-2.372C293 391.827 291.066 384.908 289 378l-3.82.438c-20.305 2.204-39.902 1.884-60.18-.438l-.594 2.777A1387 1387 0 0 1 221 396l-.44 1.933q-1.493 6.547-3.036 13.083a784 784 0 0 0-1.03 4.451 716 716 0 0 1-1.494 6.361l-.875 3.747c-1.956 5.955-5.052 9.82-10.125 13.425-3.456 1.728-7.214 1.357-11 1-4.171-1.574-7.298-3.429-10-7-3.334-9.366-.974-17.87 1.504-27.215l.735-2.84a2936 2936 0 0 1 2.323-8.882q1.17-4.479 2.334-8.959.721-2.777 1.453-5.552l.657-2.52.583-2.22c.485-1.827.485-1.827.411-3.812l-2.073-.715c-16.2-5.622-31.503-11.141-45.622-21.098-2.175-1.392-2.175-1.392-4.312-.95-3.45 1.322-4.78 4.758-6.555 7.825a1197 1197 0 0 1-2.653 4.395l-1.382 2.284c-2.656 4.276-5.548 8.388-8.428 12.515-2.118 3.038-4.212 6.08-6.202 9.205-8.547 13.366-8.547 13.366-15.222 15.219-5.37.786-8.925.404-13.551-2.68l-2.25-1.375c-4.094-3.802-4.038-8.466-4.309-13.734 1.774-9.179 9.1-17.38 14.246-25.016q1.21-1.803 2.418-3.607 2.367-3.533 4.74-7.061 4.118-6.129 8.218-12.27l1.207-1.799c1.346-2.011 2.647-3.971 3.73-6.138h-2c-1.48-1.504-1.48-1.504-3.187-3.562-2.293-2.71-4.608-5.253-7.188-7.688-4.11-4.007-7.362-8.632-10.707-13.273-1.68-2.538-1.68-2.538-3.918-3.477a149 149 0 0 1-3-5 2874 2874 0 0 0-4.062-6.187C58.358 251.923 58.358 251.923 61 238c1.359-3.824 3.215-6.412 6.5-8.875 3.688-1.66 6.767-2.343 10.813-2.062"/></svg>