<svg xmlns="http://www.w3.org/2000/svg" width="512" height="512"><path fill="#FFF" d="m391 4 3.176 1.133C405.832 9.606 415.032 16.425 424 25l2.625 2.375c12.678 14.013 21.478 31.92 21.51 51.066l.013 3.89v4.254q.003 2.267.01 4.535.014 6.226.017 12.454.007 6.717.022 13.436c.02 10.816.03 21.631.039 32.447l.015 15.292a88280 88280 0 0 1 .046 67.363c.008 17.694.033 35.389.066 53.083q.049 27.27.054 54.54c.002 10.201.01 20.403.036 30.605q.034 13.035.02 26.072c-.004 4.429-.002 8.858.017 13.287q.026 6.098.001 12.196-.004 2.19.014 4.382c.18 23.365-7.998 44.263-24.048 61.352-19.514 18.832-42.796 24.93-69.242 24.64C335.24 511.75 319.04 502.459 304 490a2198 2198 0 0 0-3.871-3.14q-4.086-3.311-8.156-6.637A680 680 0 0 0 281 471.5c-5.74-4.482-11.397-9.06-17.04-13.664A801 801 0 0 0 251 447.5c-5.74-4.482-11.397-9.06-17.04-13.664A801 801 0 0 0 221 423.5c-5.74-4.483-11.399-9.06-17.041-13.666a759 759 0 0 0-12.897-10.272c-6.096-4.754-12.067-9.652-18.024-14.58a869 869 0 0 0-13.413-10.88 695 695 0 0 1-6.187-5.016c-7.608-6.23-15.292-12.329-23.134-18.263a440 440 0 0 1-12.373-9.747c-5.037-4.11-9.823-7.81-15.646-10.76-3.63-2.09-6.843-4.722-10.128-7.306-4.057-3.186-8.195-6.222-12.407-9.197l-3.52-2.512a617 617 0 0 0-5.867-4.133c-10.636-7.711-17.021-19.318-19.613-32.043l-.508-2.49C47.034 255.578 48.112 235.747 56 220c2.5-2.875 2.5-2.875 5-5l1.785-2.363c2.473-2.944 4.978-4.783 8.153-6.95 7.315-5.073 14.376-10.454 21.425-15.89 4.204-3.228 8.432-6.38 12.793-9.395 4.37-3.029 8.504-6.258 12.594-9.652q2.085-1.712 4.172-3.422l2.076-1.701c2.97-2.414 5.983-4.773 9.002-7.127a888 888 0 0 0 15-12 992 992 0 0 1 16.71-13.336c4.474-3.502 8.889-7.072 13.29-10.664a992 992 0 0 1 16.71-13.336c4.474-3.502 8.889-7.072 13.29-10.664a992 992 0 0 1 16.71-13.336c4.474-3.502 8.889-7.072 13.29-10.664a992 992 0 0 1 16.71-13.336c4.474-3.502 8.889-7.072 13.29-10.664a949 949 0 0 1 16.709-13.332 558 558 0 0 0 11.303-9.107C307.86 18.319 319.646 9.661 334 4l3.336-1.32C353.952-2.758 374.703-2.195 391 4m-67.998 59.357c-2.962 2.43-5.978 4.79-9.002 7.143-5.073 3.958-10.08 7.991-15.062 12.063-5.788 4.727-11.656 9.315-17.598 13.847-4.517 3.475-8.915 7.097-13.328 10.703A767 767 0 0 1 255 117.5a891 891 0 0 0-15 12 992 992 0 0 1-16.71 13.336c-4.474 3.502-8.889 7.072-13.29 10.664a992 992 0 0 1-16.71 13.336c-4.474 3.502-8.889 7.072-13.29 10.664a992 992 0 0 1-16.71 13.336c-4.474 3.502-8.889 7.072-13.29 10.664a1110 1110 0 0 1-15.5 12.438l-1.758 1.386a210 210 0 0 1-9.18 6.801c-8.518 6.348-14.275 16.166-16.246 26.531-1.58 11.707 1.02 22.559 7.684 32.344 3.361 4.362 6.905 7.748 11.313 11.063q1.87 1.437 3.738 2.878l1.96 1.509c3.373 2.629 6.679 5.341 9.989 8.05a886 886 0 0 0 15 12c5.74 4.482 11.397 9.06 17.04 13.664A801 801 0 0 0 187 340.5c5.74 4.482 11.397 9.06 17.04 13.664A801 801 0 0 0 217 364.5c5.74 4.482 11.397 9.06 17.04 13.664A801 801 0 0 0 247 388.5c5.74 4.482 11.397 9.06 17.04 13.664A801 801 0 0 0 277 412.5c5.74 4.482 11.397 9.06 17.04 13.664a872 872 0 0 0 14.67 11.67 574 574 0 0 1 11.252 9.055c3.325 2.73 6.674 5.43 10.038 8.111l1.86 1.484c9.976 7.85 20.21 13.472 33.32 12.899 13.343-1.811 24.33-7.947 32.82-18.383 6.723-10.562 7.297-21.173 7.26-33.372l.012-4.355c.01-3.972.008-7.944.004-11.915-.002-4.291.007-8.581.014-12.872q.018-12.598.012-25.196-.002-10.242.005-20.484l.001-2.947.004-5.927q.014-27.782.003-55.563c-.006-16.934.006-33.869.025-50.803q.03-26.1.024-52.197c-.002-9.764 0-19.528.014-29.292a8628 8628 0 0 0 .002-24.936q-.011-6.357.005-12.715.014-5.828-.007-11.654-.004-2.1.008-4.201c.077-14.466-2.583-26.624-12.761-37.383-8.19-7.585-18.465-12.23-29.75-12.626-16.584.832-27.688 10.699-39.873 20.795"/></svg>