<svg xmlns="http://www.w3.org/2000/svg" width="512" height="512"><path fill="#080502" d="m256.25-.562 2.965.011C274.636-.464 289.138.566 304 5l2.349.665C325.379 11.17 347.12 21.626 359 38c2.24 4.073 2.306 7.387 2 12-.906 3.037-2.19 5.869-3.5 8.75l-1.189 2.692c-1.42 3.194-2.863 6.377-4.311 9.558l-1.755 3.867a6270 6270 0 0 1-11.139 24.363 6182 6182 0 0 0-10.418 22.832l-.91 2.001c-10.865 23.918-21.712 47.844-32.466 71.812l-1.514 3.368q-3.99 8.895-7.887 17.832-2.167 4.964-4.345 9.924a1131 1131 0 0 0-2.096 4.826 1133 1133 0 0 1-2.939 6.734l-.857 2.013c-2.732 6.16-6.342 11.61-12.674 14.428-5.821.809-11.217.845-16.562-1.687-4.53-4.299-7.322-8.738-9.766-14.446l-.927-2.11q-.989-2.256-1.969-4.516c-1.769-4.079-3.563-8.148-5.354-12.218l-1.115-2.538c-3.68-8.369-7.485-16.68-11.307-24.985-6.283-13.671-12.436-27.397-18.51-41.162-3.222-7.294-6.497-14.555-9.885-21.773-3.283-6.994-6.476-14.029-9.667-21.065l-1.94-4.272-3.993-8.807q-2.486-5.483-4.977-10.963-1.906-4.196-3.808-8.393-.894-1.974-1.792-3.947c-10.954-24.092-10.954-24.092-8.365-32.618C156.894 31.553 164.84 26.662 172 22l2.336-1.527C199.199 4.903 227.204-.832 256.25-.562"/><path fill="#F9D900" d="M317 59q2.466 1.66 4.938 3.313C327.714 66.36 333.013 71.013 338 76c.04 1.666.043 3.334 0 5h-3a371 371 0 0 1-3.422-3.559c-8.494-7.758-19.298-8.064-30.258-7.867-6.25.38-11.095 3.168-16.32 6.426l-2.2.945c-2.308 1.353-2.736 2.632-3.8 5.055q-1.456 2.01-2.937 4c-5.931 8.882-7.102 18.636-5.063 29 2.739 10.081 8.622 18.292 17.54 23.785 6.39 3.155 13.424 4.433 20.46 5.215-5.187 11.522-5.187 11.522-8 17l-3.437-1.812c-10.615-5.224-20.124-7.057-31.75-3.625-10.686 3.958-18.063 11.398-23.016 21.507-3.38 8.185-3.01 19.45-.297 27.805 3.73 8.721 9.797 16.138 18.5 20.125a106 106 0 0 0 9 3c-1.774 6.231-4.007 11.834-8 17-3.139 1.57-5.539 1.352-9 1-4.545-3.702-6.669-7.813-8.988-13.04l-1.055-2.31a799 799 0 0 1-2.17-4.816 949 949 0 0 0-3.344-7.373q-1.061-2.343-2.119-4.688l-1.013-2.225C232.972 208.536 232 206.334 232 203h-2l-1.102-2.824c-3.78-9.617-7.97-18.98-12.386-28.324l-1.387-2.977-1.242-2.633C213 164 213 164 213 161l3.656-.664c12.338-2.228 12.338-2.228 22.344-9.336l2.102-1.965c7.426-7.467 10.033-15.68 10.398-26.097-.412-12.07-5.19-20.96-13.875-29.188L235 92l-1.746-1.309c-8.546-5.702-19.743-5.71-29.566-3.754C197.14 88.852 192.238 92.768 187 97l-3 2c-2.339-2.339-3.048-4.635-4.133-7.71-1.19-3.141-2.683-6.118-4.195-9.114-.87-2.82-.592-4.385.328-7.176 5.278-7.294 13.576-12.129 21-17l2.332-1.574c3.728-2.449 7.364-4.247 11.586-5.684 2.093-.709 2.093-.709 4.07-1.672C244.424 35.581 291.131 38.588 317 59"/><path fill="#FCDDAF" d="m263 8 2.475.125C291.605 9.572 316.114 16.333 338 31l2.848 1.605L343 34v2l1.688.688c3.096 1.757 5.081 3.523 7.312 6.312.754 6.155-1.094 10.068-3.937 15.313-.374.714-.747 1.43-1.131 2.166A636 636 0 0 1 344 66l-1 2c-4.296-.477-6.073-3.006-9-6-13.987-11.64-30.558-19.295-48-24l-3.328-.973c-30.269-7.567-63.086-.682-89.64 14.719-5.947 3.67-11.382 8.088-16.656 12.662C172.2 68 172.2 68 170 68c-9.507-19.014-9.507-19.014-9-25 2.775-4.15 6.267-6.978 10.313-9.812l1.849-1.304C199.242 13.897 231.492 6.397 263 8"/><path fill="#E82F49" d="M226.75 94.875Q229.885 96.923 233 99v2l1.75.688c2.867 1.672 4.387 3.584 6.25 6.312v3h2c2.21 9.51 2.452 19.416-2.57 27.984-1.896 2.673-3.962 4.864-6.43 7.016l-1.875 2.125C225.059 154.36 216.84 153.307 208 153l-.883-2.203a248 248 0 0 0-8.707-18.984c-1.592-3.176-3.053-6.391-4.469-9.649a305 305 0 0 0-2.039-4.578l-1.09-2.398-.98-2.145L189 111l-.816-1.984C188 107 188 107 189.266 104.816c9.355-10.626 23.718-16.66 37.484-9.941M325 81l1 3c1.933 1.092 1.933 1.092 4 2l2 2c-.266 5.824-2.275 10.42-4.746 15.637l-1.125 2.43c-1.18 2.544-2.373 5.082-3.567 7.62l-2.392 5.15c-5.665 12.187-5.665 12.187-8.17 17.163-9.55.82-16.225-.19-24-6-5.006-4.576-8.744-10.256-10-17-.095-2.699-.14-5.365-.125-8.062l-.012-2.182c.006-3.183.123-5.715 1.137-8.756h2l.188-2.125c1.761-6.233 6.393-9.714 11.78-12.84C303.744 73.545 314.63 75.448 325 81"/><path fill="#E92F49" d="M293 165a100 100 0 0 1 4 3c-.646 2.913-1.577 5.468-2.824 8.176a292 292 0 0 0-4.07 9.367c-3.562 8.63-7.265 17.089-11.563 25.379-1.66 3.313-3.113 6.66-4.543 10.078-10.512-1.411-16.233-6.506-22.555-14.754C246.937 199.24 246.87 191.07 248 183c2.796-8.738 9.087-15.88 17.191-20.156 9.503-3.672 18.93-2.576 27.809 2.156"/><path fill="#B81A39" d="M312 77c5.348.535 9.358 2.467 14 5v2l1.875.875C330 86 330 86 332 88c-.266 5.824-2.275 10.42-4.746 15.637l-1.125 2.43c-1.18 2.544-2.373 5.082-3.567 7.62l-2.392 5.15c-5.665 12.187-5.665 12.187-8.17 17.163a609 609 0 0 1-6.312.125l-3.551.07C299 136 299 136 296 134h8q3.072-6.504 6.134-13.013 1.039-2.205 2.08-4.41c1.984-4.2 3.95-8.408 5.888-12.63a655 655 0 0 1 2.583-5.513l1.448-3.2 1.274-2.758c.845-2.505.845-2.505-.335-4.936-2.876-4.239-6.724-6.952-11.072-9.54zM285 163c5.288.415 8.117 1.352 12 5-.646 2.913-1.577 5.468-2.824 8.176a292 292 0 0 0-4.07 9.367c-3.562 8.63-7.265 17.089-11.563 25.379-1.66 3.313-3.113 6.66-4.543 10.078l-9-2 2-1a291 291 0 0 0 2-6c1.37-3.243 2.847-6.435 4.316-9.633l1.263-2.77a7177 7177 0 0 1 5.338-11.68 6243 6243 0 0 0 3.9-8.55l1.224-2.664 1.133-2.489.998-2.179c.812-1.995 1.361-3.935 1.828-6.035l-4-2z"/><path fill="#D6BB93" d="M315 19c8.35 3.162 15.586 7.057 23 12l2.816 1.586L343 34v2l1.688.688c3.096 1.757 5.081 3.523 7.312 6.312.754 6.155-1.094 10.068-3.937 15.313-.374.714-.747 1.43-1.131 2.166A636 636 0 0 1 344 66l-1 2c-2.886-.398-3.822-.79-5.75-3.062L336 63c2.75-5.875 2.75-5.875 5-7 1.555-4.509 2.096-8.887 1.688-13.625C337.656 32.312 324.822 25.709 315 21z"/><path fill="#DCB206" d="M300 51c7.628 2.126 13.504 5.517 20 10l2.898 1.988C334.47 71.151 334.47 71.151 338 76c.438 2.938.438 2.938 0 5h-3l-5-5c-3.166-1.793-3.166-1.793-6-3v-3c-5.485-6.294-12.474-10.837-19.528-15.168A235 235 0 0 1 300 52z"/><path fill="#0D0903" d="M241 77c4.927.118 8.077.25 12 3.438 2.94 3.767 3.298 5.787 3 10.562l-2 2c-2.437 0-2.437 0-5-1a402 402 0 0 1-3-6q-2.495-1.01-5-2c-.875-2.5-.875-2.5-1-5z"/><path fill="#120D04" d="m230 61 1 5-1.68.664c-4.969 2.115-4.969 2.115-7.82 6.586L221 76c-2.375.125-2.375.125-5 0l-2-2c.08-4.855.275-7.054 3.25-10.937 4.42-3.316 7.489-3.416 12.75-2.063"/><path fill="#0B0802" d="M259 132c4.745.269 8.215 1.08 12 4 2.56 3.413 2.234 6.86 2 11-1 1-1 1-3.437 1.188C267 148 267 148 265 146l-.812-2.5c-.955-2.746-.955-2.746-3.75-3.5L258 139c-.937-2.5-.937-2.5-1-5z"/><path fill="#E6B904" d="M262 226c2.763.523 5.326 1.109 8 2-1.774 6.231-4.007 11.834-8 17-2.957 1.478-5.742 1.06-9 1l2-1c.723-1.98 1.378-3.986 2-6a709 709 0 0 1 2.625-6.875l1.352-3.492z"/><path fill="#0D0903" d="M263 51c4.981.082 7.062.221 10.938 3.438 3.254 4.043 3.25 6.388 3.062 11.562-1 1-1 1-3.562 1.063L271 67l-1.125-2.812c-1.619-3.414-1.619-3.414-5-4.75C262 58 262 58 261 55.438 261 53 261 53 263 51"/><path fill="#DFB405" d="m299 143 10 1c-5.187 11.522-5.187 11.522-8 17l-8-4 1.875-2.562c2.23-3.323 4.125-7.34 4.125-11.438"/><path fill="#180506" d="M258 196q3.012.43 6 1c.625 2.375.625 2.375 1 5l-2 2c-4.556-.556-4.556-.556-6-2-.125-2.5-.125-2.5 0-5z"/><path fill="#1B0407" d="M293 103c1 1 1 1 1.125 3.5C294 109 294 109 293 110c-2.437.188-2.437.188-5 0l-2-2c.25-2.562.25-2.562 1-5 2.503-1.251 3.403-.838 6 0"/><path fill="#140305" d="M271 170h5q.57 3.49 1 7c-1 1-1 1-3.5 1.125C271 178 271 178 270 177q.43-3.51 1-7"/><path fill="#0F0303" d="M300.188 119.375 302 120c.625 1.813.625 1.813 1 4l-2 3-6-1c-.187-2.375-.187-2.375 0-5 3-2 3-2 5.188-1.625"/><path fill="#0F0403" d="M230 119c2.688.875 2.688.875 5 2v5l-6 1c-2-3-2-3-2-6z"/><path fill="#120404" d="M309 86h6v7h-6c-1.125-4.75-1.125-4.75 0-7"/><path fill="#060101" d="M221 136c2.125.375 2.125.375 4 1 .625 2.375.625 2.375 1 5l-2 2c-2.125-.375-2.125-.375-4-1-.625-2.375-.625-2.375-1-5z"/><path fill="#020000" d="M203 103h5c.625 2.375.625 2.375 1 5l-2 2c-2.125-.375-2.125-.375-4-1-1.125-3.75-1.125-3.75 0-6"/><path fill="#BF233B" d="M198 98c-1.408 3.215-3.103 5.322-5.625 7.75l-1.914 1.86L189 109c0-3.74.934-4.453 3.375-7.187l1.898-2.168C196 98 196 98 198 98"/></svg>