<svg xmlns="http://www.w3.org/2000/svg" width="512" height="512"><path fill="#FFF" d="m343.203 278.596 3.106-.02c3.385-.02 6.77-.015 10.156-.01l7.065-.015q7.402-.014 14.806.003c6.323.011 12.645-.009 18.968-.038 4.864-.018 9.727-.018 14.59-.012q3.497 0 6.994-.019c3.26-.015 6.52-.004 9.78.013l2.914-.029c5.629.062 9.001.685 13.418 4.531 2.822 4.476 3.037 7.703 3.062 12.937.275 6.157 1.881 10.519 4.52 16.06 6.49 13.746 7.828 25.425 7.535 40.448q-.012 3.357-.014 6.715-.02 6.95-.129 13.9c-.091 5.931-.12 11.861-.127 17.793-.01 4.597-.04 9.193-.078 13.79q-.027 3.283-.04 6.566a798 798 0 0 1-.116 9.127l-.004 2.711c-.13 5.431-.884 8.722-4.609 12.953-3.589 2.55-6.036 3.376-10.42 3.388l-3.258.03-3.544-.014-3.757.02q-5.088.022-10.177.012c-2.836-.003-5.671.003-8.507.009q-10.035.02-20.072.001c-6.896-.011-13.79.003-20.686.03q-8.89.032-17.782.022-5.305-.006-10.61.017c-3.945.018-7.89.004-11.835-.013l-3.538.029c-6.052-.055-10.198-.171-14.814-4.531-3.773-4.406-3.469-9.02-3.5-14.55l-.05-2.9a1079 1079 0 0 1-.095-9.507l-.029-3.305q-.075-8.688-.102-17.376c-.021-5.919-.104-11.835-.2-17.752a1103 1103 0 0 1-.09-13.805 410 410 0 0 0-.083-6.53c-.294-15.12 2.386-26.383 8.914-40.05 2.725-5.87 3.103-10.822 3.118-17.276.175-4.42 1.334-6.547 4.117-9.949 4.68-3.847 9.433-3.431 15.203-3.404m-10.813 9.382c-2.017 3.83-2.017 3.83-1.39 12.022h110c.627-8.192.627-8.192-1.39-12.022-3.96-3-7.517-2.678-12.364-2.625l-2.997-.027a825 825 0 0 0-9.812.01q-3.407-.005-6.814-.015-7.143-.009-14.284.027c-6.107.029-12.213.012-18.32-.018-4.691-.018-9.382-.012-14.073 0q-3.377.006-6.755-.011c-3.147-.013-6.291.006-9.437.034l-2.828-.03c-4.08.066-6.223.144-9.536 2.655M330 307c-3.6 6.801-6.298 13.794-9 21h20l2.5-8.813.791-2.764.615-2.193.635-2.237c.571-2.14.571-2.14.459-4.993zm24 0c-3.683 10.268-3.683 10.268-5 21h20c.819-7.06 1.091-13.892 1-21zm23 0-1 21h20l-.438-9.938-.13-3.136-.116-2.453-.11-2.524c0-1.952 0-1.952-1.206-2.949a237 237 0 0 0-8.563-.063zm25 0a838 838 0 0 0-.063 5.437l-.035 3.06c.117 4.181.636 8.345 1.098 12.503h20c-.636-5.09-1.255-9.551-2.5-14.438l-.781-3.12c-.486-2.368-.486-2.368-1.719-3.442a210 210 0 0 0-8.063-.063l-2.298.014q-2.82.02-5.639.049m24 0a143.6 143.6 0 0 0 5 21h20q-1.964-4.97-3.938-9.938l-1.13-2.865-1.084-2.724-1-2.524c-.691-1.915-.691-1.915-1.848-2.949a210 210 0 0 0-8.063-.063l-2.298.014q-2.82.02-5.639.049m-107 28c-.286 10.518-.286 10.518 4.687 18.937 3.425 1.574 6.66 1.737 10.313 1.063 2.81-1.794 4.51-3.019 6-6 .071-2.374.084-4.75.062-7.125L340 335zm28 0c-.286 10.518-.286 10.518 4.687 18.937 3.425 1.574 6.66 1.737 10.313 1.063 2.81-1.794 4.51-3.019 6-6 .071-2.374.084-4.75.062-7.125L368 335zm28 0c-.286 10.518-.286 10.518 4.687 18.937 3.425 1.574 6.66 1.737 10.313 1.063 2.81-1.794 4.51-3.019 6-6 .071-2.374.084-4.75.062-7.125L396 335zm28 0c-.286 10.518-.286 10.518 4.687 18.937 3.425 1.574 6.66 1.737 10.313 1.063 2.81-1.794 4.51-3.019 6-6 .071-2.374.084-4.75.062-7.125L424 335zm28 0c-.454 10.28-.454 10.28 4.687 18.875 3.41 1.659 6.642 1.802 10.313 1.125 2.81-1.794 4.51-3.019 6-6 .071-2.374.084-4.75.062-7.125L452 335zm-63.938 40.625c-1.356 3.032-1.357 5.315-1.25 8.625L366 390h17v-16l-6.813-.25-3.832-.14c-3.342.077-3.342.077-5.293 2.015M390 374v16h16l.25-5.75.14-3.234c-.165-3.073-.165-3.073-2.015-5.391-3.07-2.1-4.94-2.035-8.625-1.875zm-24 23-.188 5.75-.105 3.234c.335 3.448.633 4.785 3.293 7.016 3.428.485 3.428.485 7.187.25L383 413v-16zm24 0v16l6.312.25 3.551.14c3.15-.1 3.15-.1 5.043-2.015 1.398-3.035 1.39-5.296 1.281-8.625L406 397zM83.203 278.596l3.106-.02c3.385-.02 6.77-.015 10.156-.01l7.065-.015q7.402-.014 14.806.003c6.323.011 12.645-.009 18.968-.038 4.864-.018 9.727-.018 14.59-.012q3.497 0 6.994-.019c3.26-.015 6.52-.004 9.78.013l2.914-.029c5.629.062 9.001.685 13.418 4.531 2.822 4.476 3.037 7.703 3.062 12.937.275 6.157 1.881 10.519 4.52 16.06 6.49 13.746 7.828 25.425 7.535 40.448q-.012 3.357-.014 6.715-.02 6.95-.129 13.9c-.091 5.931-.12 11.861-.127 17.793-.01 4.597-.04 9.193-.078 13.79q-.027 3.283-.04 6.566a798 798 0 0 1-.116 9.127l-.004 2.711c-.13 5.431-.884 8.722-4.609 12.953-3.589 2.55-6.036 3.376-10.42 3.388l-3.258.03-3.544-.014-3.757.02q-5.088.022-10.177.012c-2.836-.003-5.671.003-8.507.009q-10.035.02-20.072.001c-6.896-.011-13.79.003-20.686.03q-8.89.032-17.782.022-5.305-.006-10.61.017c-3.945.018-7.89.004-11.835-.013l-3.538.029C64.762 439.476 60.616 439.36 56 435c-3.773-4.406-3.469-9.02-3.5-14.55l-.05-2.9a1079 1079 0 0 1-.095-9.507l-.029-3.305q-.075-8.688-.102-17.376c-.021-5.919-.104-11.835-.2-17.752a1103 1103 0 0 1-.09-13.805 410 410 0 0 0-.083-6.53c-.294-15.12 2.386-26.383 8.914-40.05 2.725-5.87 3.103-10.822 3.118-17.276.175-4.42 1.334-6.547 4.117-9.949 4.68-3.847 9.433-3.431 15.203-3.404m-10.813 9.382c-2.017 3.83-2.017 3.83-1.39 12.022h110c.627-8.192.627-8.192-1.39-12.022-3.96-3-7.517-2.678-12.364-2.625l-2.997-.027a825 825 0 0 0-9.812.01q-3.407-.005-6.814-.015-7.143-.009-14.284.027c-6.107.029-12.213.012-18.32-.018-4.691-.018-9.382-.012-14.073 0q-3.377.006-6.755-.011c-3.147-.013-6.291.006-9.437.034l-2.828-.03c-4.08.066-6.223.144-9.536 2.655M70 307c-3.6 6.801-6.298 13.794-9 21h20l2.5-8.813.791-2.764.615-2.193.635-2.237c.571-2.14.571-2.14.459-4.993zm24 0c-3.683 10.268-3.683 10.268-5 21h20c.819-7.06 1.091-13.892 1-21zm23 0-1 21h20l-.438-9.938-.13-3.136-.116-2.453-.11-2.524c0-1.952 0-1.952-1.206-2.949a237 237 0 0 0-8.563-.063zm25 0a838 838 0 0 0-.063 5.437l-.035 3.06c.117 4.181.636 8.345 1.098 12.503h20c-.636-5.09-1.255-9.551-2.5-14.438l-.781-3.12c-.486-2.368-.486-2.368-1.719-3.442a210 210 0 0 0-8.063-.063l-2.298.014q-2.82.02-5.639.049m24 0a143.6 143.6 0 0 0 5 21h20q-1.965-4.97-3.938-9.938l-1.13-2.865-1.084-2.724-1-2.524c-.691-1.915-.691-1.915-1.848-2.949a210 210 0 0 0-8.063-.063l-2.298.014q-2.82.02-5.639.049M59 335c-.286 10.518-.286 10.518 4.687 18.937 3.425 1.574 6.66 1.737 10.313 1.063 2.81-1.794 4.51-3.019 6-6 .071-2.374.084-4.75.062-7.125L80 335zm28 0c-.286 10.518-.286 10.518 4.687 18.937 3.425 1.574 6.66 1.737 10.313 1.063 2.81-1.794 4.51-3.019 6-6 .071-2.374.084-4.75.062-7.125L108 335zm28 0c-.286 10.518-.286 10.518 4.687 18.937 3.425 1.574 6.66 1.737 10.313 1.063 2.81-1.794 4.51-3.019 6-6 .071-2.374.084-4.75.062-7.125L136 335zm28 0c-.286 10.518-.286 10.518 4.687 18.937 3.425 1.574 6.66 1.737 10.313 1.063 2.81-1.794 4.51-3.019 6-6 .071-2.374.084-4.75.062-7.125L164 335zm28 0c-.454 10.28-.454 10.28 4.687 18.875 3.41 1.659 6.642 1.802 10.313 1.125 2.81-1.794 4.51-3.019 6-6 .071-2.374.084-4.75.062-7.125L192 335zm-63.938 40.625c-1.356 3.032-1.357 5.315-1.25 8.625L106 390h17v-16l-6.813-.25-3.832-.14c-3.342.077-3.342.077-5.293 2.015M130 374v16h16l.25-5.75.14-3.234c-.165-3.073-.165-3.073-2.015-5.391-3.07-2.1-4.94-2.035-8.625-1.875zm-24 23-.188 5.75-.105 3.234c.335 3.448.633 4.785 3.293 7.016 3.428.485 3.428.485 7.187.25L123 413v-16zm24 0v16l6.312.25 3.551.14c3.15-.1 3.15-.1 5.043-2.015 1.398-3.035 1.39-5.296 1.281-8.625L146 397zM213.203 72.596l3.106-.02c3.385-.02 6.77-.015 10.156-.01l7.065-.015q7.402-.014 14.806.003c6.323.011 12.645-.009 18.968-.038 4.864-.018 9.727-.018 14.59-.012q3.497 0 6.994-.019c3.26-.015 6.52-.004 9.78.013l2.914-.029c5.629.062 9.001.685 13.418 4.531 2.822 4.476 3.037 7.703 3.062 12.937.275 6.157 1.881 10.519 4.52 16.06 6.49 13.746 7.828 25.425 7.535 40.448q-.012 3.358-.014 6.715-.02 6.95-.129 13.9c-.091 5.931-.12 11.861-.127 17.793-.01 4.597-.04 9.193-.078 13.79q-.027 3.283-.04 6.566a798 798 0 0 1-.116 9.127l-.004 2.711c-.13 5.431-.884 8.722-4.609 12.953-3.589 2.55-6.036 3.376-10.42 3.388l-3.258.03-3.544-.014-3.757.02q-5.088.022-10.177.012c-2.836-.003-5.671.003-8.507.009q-10.035.02-20.072.001c-6.896-.011-13.79.003-20.686.03q-8.89.032-17.782.022c-3.537-.003-7.073 0-10.61.017-3.945.018-7.89.004-11.835-.013l-3.538.029c-6.052-.055-10.198-.171-14.814-4.531-3.773-4.406-3.469-9.02-3.5-14.55l-.05-2.9a1079 1079 0 0 1-.095-9.507l-.029-3.305q-.075-8.688-.102-17.376c-.021-5.919-.104-11.835-.2-17.752a1103 1103 0 0 1-.09-13.805 410 410 0 0 0-.083-6.53c-.294-15.12 2.386-26.383 8.914-40.05 2.725-5.87 3.103-10.822 3.118-17.276.175-4.42 1.334-6.547 4.117-9.949 4.68-3.847 9.433-3.431 15.203-3.404M203 82c-2.832 3.647-2.832 3.647-2 12h110c.776-8.3.776-8.3-1.813-12-4.19-3.832-8.898-3.154-14.26-3.161l-2.815-.015q-4.614-.021-9.23-.027l-6.407-.017q-6.722-.015-13.442-.02c-5.743-.006-11.485-.03-17.227-.058-4.413-.019-8.826-.024-13.239-.026q-3.175-.004-6.351-.024c-2.962-.017-5.922-.015-8.883-.008l-2.652-.028c-4.71.032-7.881.285-11.681 3.384m-3 18a9868 9868 0 0 0-4.5 10.437l-1.3 3.01-1.231 2.862-1.143 2.65c-.889 1.828-.889 1.828-.826 3.041h20l2.5-8.75.791-2.737.615-2.185c.21-.733.42-1.466.635-2.222.6-2.398.6-2.398.459-6.106zm24 0q-1.259 4.373-2.5 8.75l-.723 2.5-.683 2.422c-.21.733-.42 1.466-.635 2.222-.6 2.398-.6 2.398-.459 6.106h20c.87-7.391 1.087-14.557 1-22zm23 1a81 81 0 0 0-.316 4.691l-.127 2.862-.12 3.01-.13 3.021q-.159 3.708-.307 7.416h20l-.438-9.875-.13-3.109-.116-2.446-.11-2.507c-.088-2.125-.088-2.125-1.206-4.063q-3.969-.04-7.938-.063l-2.287-.025c-3.687-.377-3.687-.377-6.775 1.088m24-1 2 22h20c-.704-5.63-1.475-10.174-3.063-15.5L288 100zm25 0c.613 7.657 2.813 14.664 5 22h20q-1.967-4.938-3.938-9.875l-1.13-2.84-1.084-2.715-1-2.507c-.823-2.075-.823-2.075-1.848-4.063zm-107 28c-.477 10.794-.477 10.794 4.687 19.937 3.425 1.574 6.66 1.737 10.313 1.063 2.81-1.794 4.51-3.019 6-6 .072-2.554.093-5.073.062-7.625L210 128zm28 0c-.477 10.794-.477 10.794 4.687 19.937 3.425 1.574 6.66 1.737 10.313 1.063 2.81-1.794 4.51-3.019 6-6 .072-2.554.093-5.073.062-7.625L238 128zm28 0c-.477 10.794-.477 10.794 4.687 19.937 3.425 1.574 6.66 1.737 10.313 1.063 2.81-1.794 4.51-3.019 6-6 .072-2.554.093-5.073.062-7.625L266 128zm28 0c-.477 10.794-.477 10.794 4.687 19.937 3.425 1.574 6.66 1.737 10.313 1.063 2.81-1.794 4.51-3.019 6-6 .072-2.554.093-5.073.062-7.625L294 128zm28 0c-.559 10.817-.559 10.817 4.687 19.875 3.41 1.659 6.642 1.802 10.313 1.125 2.81-1.794 4.51-3.019 6-6 .072-2.554.093-5.073.062-7.625L322 128zm-63.406 41.625c-2.06 3.07-2.003 4.961-1.844 8.625L236 184h17v-16l-6.25-.25-3.516-.14c-3.264.144-3.264.144-5.64 2.015M260 168v16h16l.25-5.75.14-3.234c-.165-3.073-.165-3.073-2.015-5.391-3.07-2.1-4.94-2.035-8.625-1.875zm-24 23c-.653 7.943-.653 7.943 1.75 15.25 5.09 2.74 9.523 2.065 15.25 1.75v-17zm24 0v17c7.41.613 7.41.613 14.187-1.75 2.834-5.08 2.13-9.49 1.813-15.25zM343 153c2.909-.405 5.122-.519 7.708 1.01 1.88 1.49 3.653 3.051 5.417 4.678l1.983 1.783C369.487 170.855 378.728 182.01 387 195l1.125 1.736c12.155 18.987 21.08 44.463 21 67.202l.008 2.277C409 268 409 268 408 269c-2.5.125-2.5.125-5 0-1.934-1.934-1.535-4.886-1.849-7.488-2.227-18.156-7.135-35.076-15.151-51.512l-1.426-2.937C378.461 195.215 370.224 184.575 361 175l-2.762-2.883c-5.784-5.972-5.784-5.972-12.425-10.93C343 159 343 159 342.563 155.688zM169 153c.254 2.785.254 2.785 0 6-1.66 1.809-1.66 1.809-4.062 3.438-29.524 21.985-47.662 56.81-53.383 92.746a234 234 0 0 0-1.18 9.316C110 268 110 268 109 269c-2.5.125-2.5.125-5 0-1.576-1.576-1.172-3.13-1.191-5.316.418-37.373 21.057-74.126 47.191-99.684a223 223 0 0 1 6.875-6.312l1.586-1.44c3.564-3.023 5.903-3.767 10.539-3.248M214 417c4.673.45 9.222 1.199 13.83 2.105 21.011 4.062 42.656 3.848 63.428-1.617 2.921-.52 4.9-.264 7.742.512v5c-5.247 2.089-10.312 3.702-15.89 4.66l-2.212.382c-8.208 1.31-16.353 1.46-24.648 1.396l-2.356-.006c-30.192-.113-30.192-.113-40.894-6.432a100 100 0 0 1 0-5z"/></svg>