<svg xmlns="http://www.w3.org/2000/svg" width="512" height="512"><path fill="#FFF" d="M407 114c2.907 2.638 5.687 5.393 8.46 8.17l2.438 2.417q3.959 3.934 7.907 7.882l5.543 5.523q5.804 5.785 11.595 11.58 6.651 6.65 13.326 13.275a5098 5098 0 0 1 12.91 12.875q2.72 2.718 5.452 5.425c21.76 21.59 37.552 42.948 37.932 74.666-.114 14.915-2.937 27.762-9.688 41.062l-.96 1.906c-8.135 14.745-22.04 26.685-33.794 38.469l-5.464 5.491a9091 9091 0 0 1-11.399 11.426q-6.562 6.572-13.096 13.172a4037 4037 0 0 1-12.71 12.762q-2.686 2.691-5.36 5.396c-2.492 2.52-5 5.023-7.512 7.523l-2.19 2.235c-6.106 6.02-12.773 10.836-21.577 11.245-6.37-.369-11.678-2.64-16.458-6.934-4.507-5.209-6.07-11.384-5.726-18.164 2.218-14.357 19.352-26.494 29.077-36.153q3.969-3.942 7.93-7.894 11.257-11.219 22.528-22.423 6.917-6.878 13.822-13.767 2.628-2.619 5.262-5.232 3.668-3.642 7.324-7.294l2.202-2.175 2.009-2.013 1.747-1.737c1.546-1.802 2.503-3.554 3.47-5.714l-2.499.016q-87.558.546-175.119.941-10.673.048-21.345.1c-19.92.095-39.84.178-59.761.22-8.216.017-16.433.04-24.65.082q-10.4.053-20.801.059c-3.499.002-6.997.01-10.496.035-3.767.025-7.533.024-11.3.017l-3.28.039c-7.505-.052-14.863-1.092-20.692-6.217-5.157-5.52-6.549-11.266-6.37-18.698.711-5.901 2.986-10.206 7.063-14.469 8.235-5.384 15.384-5.56 25.006-5.524q2.096-.008 4.19-.02c3.825-.018 7.65-.017 11.474-.014 4.129 0 8.258-.016 12.388-.03q10.725-.034 21.449-.04c10.337-.006 20.674-.029 31.012-.056q25.158-.063 50.316-.095 24.437-.03 48.873-.084l3.044-.006 15.118-.034q62.69-.138 125.38-.222-1.87-2.37-3.747-4.733l-2.107-2.662c-3.272-3.972-6.868-7.566-10.534-11.172l-2.412-2.4q-2.568-2.55-5.14-5.093a3561 3561 0 0 1-8.133-8.073 13732 13732 0 0 0-20.175-20.026 9370 9370 0 0 1-17.1-16.982 2304 2304 0 0 0-5.393-5.344 2366 2366 0 0 1-7.518-7.465l-2.253-2.21c-5.536-5.547-8.916-10.096-8.925-18.215.194-6.844 1.28-11.502 6.203-16.371C384.99 103.04 396.323 105.267 407 114"/><path fill="#FFF" d="M122.554-.45c2.95.017 5.901.006 8.852-.004 2.862-.007 5.724.001 8.586.014 2.01.006 4.021.002 6.032-.002l3.705.038 3.24.016C159.035.388 163.128 3.413 167 8c4.184 5.983 5.018 11.814 4 19-1.797 6.179-5.658 10.513-11 14-3.595 1.67-6.409 2.25-10.363 2.255l-3.179.021-3.415-.003-7.252.063q-5.68.035-11.36.045C100.307 43.444 79.174 45.218 61 63c-16.713 19.508-17.61 40.45-17.523 65 .01 3.785-.005 7.57-.016 11.354-.018 7.393-.014 14.786-.002 22.18a8093 8093 0 0 1 .004 20.645l-.004 5.238c-.011 16.333.002 32.666.023 49q.025 20.977-.003 41.954a23583 23583 0 0 0-.012 56.645q.003 9-.012 18-.017 10.983.013 21.965c.01 3.729.015 7.457.001 11.186C43.39 410.765 44.82 432.418 63 451c19.552 16.75 40.377 17.561 65 17.5 4.917-.012 9.833.002 14.75.031l3.368-.034c7.606.05 12.982 1.138 18.905 6.25l1.352 1.69 1.398 1.684c3.702 5.671 4.074 11.287 3.227 17.879-2.257 7.125-5.564 11.305-12 15-3.208 1.07-5.557 1.146-8.93 1.177l-3.706.039-4.024.022-2.063.013q-5.43.03-10.858.044-4.441.014-8.882.062c-36.615.388-65.193-7.235-92.182-32.869-24.27-24.957-28.992-55.73-28.878-89.043.01-3.976-.005-7.951-.016-11.927-.018-7.764-.014-15.528-.002-23.292a8925 8925 0 0 0 .004-21.684l-.004-5.503a27597 27597 0 0 1 .023-51.472q.025-22.03-.003-44.061a26023 26023 0 0 1-.012-59.507q.003-9.45-.012-18.902-.017-11.535.013-23.069c.01-3.915.015-7.83.001-11.745-.113-36.246 7.778-64.327 33.043-90.928C57.762 3.8 88.948-.712 122.554-.45"/></svg>