<svg xmlns="http://www.w3.org/2000/svg" width="512" height="512"><path fill="#FFF" d="M144.618-.631c2.713-.002 5.425-.012 8.138-.022 6.55-.018 13.101-.01 19.652.008q7.995.02 15.99.015l2.314-.002q2.328 0 4.655-.003c13.668-.008 27.335.008 41.003.038q19.825.044 39.651.02a18277 18277 0 0 1 47.982.003l2.302.003q7.975.007 15.95-.005 9.734-.012 19.467.024 4.953.02 9.905.008c17.327-.042 34.007.657 50.123 7.732l2.086.89C435.298 13.165 445.026 20.252 454 29l2.625 2.5L459 34l1.758 1.773c13.048 13.765 19.873 30.843 24.176 49.051l.888 3.73q1.014 4.27 2.02 8.542 1.229 5.208 2.47 10.414a3846 3846 0 0 1 8.259 35.373 1742 1742 0 0 0 3.987 17.108c5.498 23.042 10.487 45.517 10.383 69.31l-.004 2.567c-.117 13.95-1.978 27.984-8.687 40.445l-.898 1.814c-1.544 2.99-3.15 5.628-5.303 8.232-5.81 7.088-7.196 12.09-6.986 21.139l-.013 3.631a636 636 0 0 0 .069 9.77c.037 3.44.025 6.88.017 10.319-.007 6.52.023 13.04.069 19.562q.122 17.444.115 34.887c0 3.407.01 6.813.044 10.22.3 31.978-5.114 57.524-25.364 83.113l-1.523 1.996c-4.4 5.507-9.928 9.712-15.477 14.004l-2.266 1.813c-17.517 13.23-38.556 19.345-60.257 19.327l-3.5.01q-4.79.01-9.58.01c-3.45.002-6.899.01-10.348.016q-11.306.02-22.613.024l-14.136.012q-19.592.019-39.185.026h-5.068l-5.089.002h-2.55q-20.431.009-40.862.046-21.008.035-42.014.037-11.783-.001-23.564.025-10.038.023-20.074.012-5.113-.006-10.226.011C107.054 512.477 80.495 506.684 57 486l-3.125-2.375C35.611 466.95 23.273 441.574 21 417c-.124-4.058-.093-8.112-.062-12.17l.027-7.526.02-4.012q.024-6.237.017-12.475L21 378.683l-.007-8.704c-.005-8.209.005-16.417.057-24.625q.064-9.806.024-19.611a662 662 0 0 1 .031-10.354c.936-16.939.936-16.939-5.53-31.926A147 147 0 0 0 11 279c-1.553-2.362-2.626-4.666-3.812-7.25l-1.583-3.328c-4.881-12.425-6.616-25.132-6.71-38.379l-.023-2.638c.014-27.065 7.135-53.51 13.316-79.7 1.687-7.161 3.311-14.336 4.935-21.512a6213 6213 0 0 1 4.264-18.642l.452-1.97c8.236-35.829 8.236-35.829 14.849-48.706l1.02-2C48.342 34.779 65.845 19.318 86 9.25l2.06-1.07c17.902-8.497 37.145-8.905 56.557-8.81M84 65c-8.293 9.924-12.395 21.07-15.098 33.57q-.66 2.943-1.323 5.886-.742 3.315-1.477 6.63a1879 1879 0 0 1-3.723 16.241 5336 5336 0 0 0-6.558 28.614 2929 2929 0 0 1-3.806 16.599 2134 2134 0 0 0-3.74 16.385 693 693 0 0 1-1.415 6.12c-4.612 19.582-8.326 42.885 1.89 61.268 7.03 10.768 16.328 17.129 28.827 20.09 6.131 1.07 12.215 1.028 18.423.972l3.867.035c14.203-.043 26.26-2.805 36.883-12.66 8.845-9.533 11.51-20.024 13.188-32.625.93-6.382 2.73-9.973 7.5-14.375 5.924-4.046 11.54-4.66 18.562-3.75 5.085 1.655 8.895 3.785 12.5 7.75 2.3 4.985 3.224 9.857 3.852 15.297 1.554 12.74 6.67 23.527 16.777 31.668 7.771 5.528 16.477 8.372 26.022 8.446l3.036.03 3.254.012 3.39.017q3.552.014 7.104.02c3.59.01 7.18.04 10.77.073l6.924.015 3.211.038c13.409-.04 24.414-3.36 34.45-12.436 8.463-8.844 11.19-18.343 12.635-30.205.953-7.486 3.155-12.747 9.075-17.725 5.825-3.379 11.338-3.853 18-3 5.944 1.78 9.51 4.971 13 10 2.002 4.105 2.414 8.077 2.813 12.563C364.29 249.73 369.073 259.017 379 268c10.964 8.569 23.517 9.498 37 9.375l3.867.035c14.203-.043 26.26-2.805 36.883-12.66 11.57-12.471 12.91-26.515 12.654-42.824-.471-11.704-3.264-23.033-5.893-34.407-.787-3.426-1.545-6.858-2.308-10.29q-1.922-8.612-3.891-17.213a3326 3326 0 0 1-4.461-19.796 6815 6815 0 0 0-4.78-21.294q-.68-3.027-1.357-6.056c-.845-3.777-1.71-7.55-2.576-11.322l-.739-3.325c-4.27-18.349-12.776-34.334-28.711-44.973-13.153-7.906-25.65-10.629-40.875-10.375l-3.174.027q-3.82.035-7.639.098l-.004 2.552q-.026 11.96-.128 23.92c-.034 4.097-.06 8.195-.064 12.294-.004 3.962-.033 7.923-.077 11.885a388 388 0 0 0-.013 4.513c.02 8.787-.33 16.5-5.714 23.836-5.49 5.144-11.518 5.353-18.7 5.273-5.396-.447-9.199-1.956-12.859-5.992-3.715-4.968-4.568-8.82-4.646-15.047l-.03-2.104q-.047-3.368-.081-6.735l-.057-4.161c-.068-5.14-.128-10.281-.19-15.421L320 43H192c-.091 22.96-.091 22.96-.118 45.922-.036 4.466-.036 4.466-.06 6.564a299 299 0 0 0-.002 4.347c.045 8.132-.025 14.847-5.188 21.525-4.858 4.888-9.458 5.878-16.257 6.08-6.481-.225-10.084-1.52-15.062-5.688-4.442-5.281-5.683-10.078-5.745-16.879l-.031-2.042c-.03-2.202-.04-4.404-.049-6.606l-.054-4.611c-.047-4.026-.077-8.052-.104-12.078-.03-4.117-.076-8.232-.121-12.348-.086-8.062-.153-16.124-.209-24.186-3.655-.046-7.31-.073-10.965-.098l-3.107-.04C114.866 42.763 97.598 50.37 84 65m86 227a363 363 0 0 0-3.687 3.938c-9.154 9.211-20.96 16.089-33.313 20.062l-2.473.82c-10.39 2.926-20.866 2.565-31.576 2.461-3.274-.031-6.547-.04-9.82-.047l-6.307-.03-2.933-.014-2.783-.029-2.411-.02c-3.598-.188-7.125-.666-10.697-1.141a14694 14694 0 0 0-.104 33.201q-.014 7.71-.047 15.422a4416 4416 0 0 0-.039 14.92q-.005 2.827-.021 5.653c-.134 24.027 2.045 45.1 19.274 63.492 13.902 13.33 30.909 18.469 49.859 18.452l3.304.01q5.475.01 10.948.011l7.856.015q10.668.02 21.336.024l13.338.012q18.488.019 36.974.026h4.782l4.801.002h2.406q19.278.009 38.556.046 19.821.035 39.644.037 11.117-.001 22.234.025 9.47.023 18.94.012 4.824-.006 9.648.011c22.989.245 22.989.245 44.561-6.996l2.023-1.045c6.066-3.267 10.968-7.35 15.727-12.33l1.914-1.855c16.44-16.983 16.246-40.23 16.184-62.25l-.005-5.805q-.006-7.588-.024-15.175-.014-7.764-.02-15.526-.016-15.195-.049-30.389l-3.684.489c-3.136.391-6.213.648-9.377.688l-2.753.039-2.905.022-3.079.025q-3.218.02-6.434.032-3.247.017-6.493.062c-16.062.22-31.11-.272-45.587-8.107l-1.989-1.037c-8.967-4.8-16.825-10.706-23.699-18.213l-2.75 2.438c-16.104 13.683-34.208 24.553-55.92 24.739l-3.967.039q-2.13.012-4.261.022l-2.197.013q-5.765.03-11.531.044c-3.925.011-7.848.045-11.772.085-3.057.027-6.113.035-9.17.038q-2.165.008-4.33.035c-22.662.277-43.696-7.243-60.5-22.652A217 217 0 0 1 171 292z"/></svg>