<svg xmlns="http://www.w3.org/2000/svg" width="512" height="512"><path fill="#FFF" d="M179.238 48.906c3.95 2.639 6.294 5.517 7.762 10.094v10h138V59c2.251-5.369 4.647-8.61 10-11 5.627-.75 10.34-.8 15.5 1.688 3.975 3.676 7.353 6.91 7.598 12.574l-.036 2.425-.027 2.45L358 69l1.984-.105c14.432-.429 27.61 4.012 38.454 13.668Q400.734 84.766 403 87l2.75 2.438C411.789 96.315 415.3 104.33 418 113l.54 1.688c.645 3.244.59 6.45.574 9.743v2.248c0 2.445-.009 4.891-.016 7.337l-.005 5.094q-.006 6.697-.024 13.395-.014 6.837-.02 13.675-.016 13.41-.049 26.82h3c.957 2.87 1.137 4.713 1.161 7.696l.03 2.884.012 3.115.017 3.219q.014 3.376.02 6.753c.01 3.424.04 6.847.072 10.27q.01 3.285.016 6.57l.038 3.08c-.022 6.955-.611 13.868-5.014 19.534-5.497 4.191-9.823 6.443-16.875 6.254-5.275-.799-10.426-3.006-13.961-7.09C379.613 242.2 384 218.903 384 208H80l.375 76.375.103 24.087.082 14.29q.029 4.763.043 9.524.02 6.087.064 12.174.015 2.225.017 4.451C80.58 365.568 80.58 365.568 88 380c6.5 6.144 13.038 8.247 22.005 8.259l2.003.01c2.16.01 4.32.003 6.48-.003l4.53.005q4.726.005 9.453-.01c4.043-.012 8.086-.005 12.13.007q4.666.009 9.333 0 2.238-.003 4.475.005a809 809 0 0 0 6.233-.014l3.583-.005c2.916.031 2.916.031 4.775-2.254 2.092-.254 2.092-.254 4.706-.259l2.964-.019 3.217.012 3.304-.005q3.468-.002 6.938.01c3.527.01 7.053 0 10.58-.012q3.37 0 6.74.007l3.186-.012c12.665.08 12.665.08 18.053 4.466 4.798 5.836 7.026 9.781 6.703 17.382-.875 5.442-4.018 10.12-8.391 13.43-7.074 3.295-13.938 3.412-21.621 3.328l-3.58-.006q-3.72-.01-7.44-.04c-3.809-.032-7.618-.042-11.427-.048l-7.24-.03-3.463-.014-3.188-.029-2.811-.02C168 424 168 424 166 423c-2.009-.1-4.02-.136-6.032-.142l-3.847-.021-2.066-.006q-3.22-.012-6.441-.041c-6.106-.052-12.212-.1-18.319-.116-3.737-.01-7.474-.04-11.21-.081q-2.116-.019-4.232-.015c-18.722.022-34.823-4.229-48.638-17.367L63 403c-.576-.565-1.152-1.13-1.746-1.71-9.669-10.297-13.728-24.367-13.642-38.162l-.016-3.178c-.014-3.49-.007-6.98 0-10.47l-.02-7.538c-.017-6.102-.019-12.203-.014-18.305a7874 7874 0 0 0-.005-17.036l-.004-4.317c-.014-13.476-.009-26.952.003-40.428.01-12.306-.003-24.612-.027-36.918q-.037-18.99-.027-37.98c.003-7.098.001-14.196-.017-21.294q-.022-10.016.008-20.031.005-3.666-.01-7.332c-.079-19.856 1.859-36.911 16.122-52.102C77.494 73.444 92.47 68.641 111.13 68.805l3.728.008c3.902.011 7.804.036 11.706.062q3.984.017 7.97.027 9.734.034 19.467.098l-.042-1.854-.032-2.443-.042-2.417c.241-4.754 2.549-7.648 5.616-11.099 5.074-4.44 13.549-4.787 19.738-2.28m-95.425 65.782C75.043 130.714 80 166.505 80 176h307c.032-17.42.032-17.42-.153-34.838q-.034-2.248-.043-4.498c-.042-10.139-.527-18.982-7.78-26.791-5.125-4.885-10.23-8.01-17.461-8.06L358 102l-.297 2.195c-.894 5.781-1.67 10.324-5.703 14.805-4.954 3.538-10.11 3.854-16 3-4.86-2.34-7.593-5.186-10-10l-1-10H187l-1 10c-2.407 4.814-5.14 7.66-10 10-5.89.854-11.046.538-16-3-3.324-3.694-4.302-6.932-5.11-11.719l-.514-2.998L154 102c-7.365-.127-14.73-.215-22.095-.275q-3.753-.037-7.507-.102c-3.61-.061-7.218-.09-10.828-.111l-3.356-.078c-11.692-.005-19.095 4.277-26.401 13.254"/><path fill="#FFF" d="M409.547 272.95c6.411 3.82 10.064 9.001 12.453 16.05.66 6.92-.337 12.727-4.809 18.223-5.682 6.216-11.514 12.254-17.465 18.212l-2.985 3q-4.006 4.025-8.02 8.044l-5.025 5.037a24111 24111 0 0 1-15.766 15.793 12735 12735 0 0 0-18.124 18.175 9220 9220 0 0 1-14.072 14.105q-4.196 4.196-8.379 8.404a2316 2316 0 0 1-7.875 7.885 1064 1064 0 0 0-4.236 4.262c-6.73 6.686-12.353 11.474-22.057 12.11-12.29-.25-20.716-11.611-28.796-19.621l-2.695-2.67a5027 5027 0 0 1-5.597-5.565 1342 1342 0 0 0-5.72-5.658 1952 1952 0 0 1-8.3-8.232l-2.58-2.526c-5.316-5.336-9.635-10.25-11.03-17.884.086-7.174 1.137-12.558 6.215-17.848 5.077-4.532 8.748-6.534 15.691-6.558l3.336-.051c12.148 1.342 21.83 14.763 29.914 22.926l2.754 2.767q3.314 3.331 6.621 6.67c5.53-4.603 10.627-9.507 15.686-14.62l2.545-2.56q3.427-3.446 6.849-6.897 3.598-3.623 7.202-7.24 12.25-12.296 24.48-24.616 6.767-6.82 13.552-13.623a2538 2538 0 0 0 7.154-7.198q3.978-4.015 7.976-8.014c.78-.794 1.561-1.587 2.366-2.404 8.092-8.062 17.26-12.156 28.737-7.879"/></svg>