<svg xmlns="http://www.w3.org/2000/svg" width="512" height="512"><path fill="#FFF" d="m455 260 2.645 1.973C470.649 272.16 482.2 283.996 491 298l1.178 1.861c18.578 29.853 25.602 69.002 17.652 103.439A230 230 0 0 1 508 410l-.601 2.23C502.382 430.528 493.39 447.64 481 462l-2.379 2.762c-19.5 22.074-43.17 36.455-71.621 44.238l-2.04.578c-19.332 5.216-45.75 4.929-64.96-.578l-2.463-.7c-23.659-6.932-43.894-18.056-61.537-35.3l-2.578-2.39C251.96 450.226 239.436 421.992 235 393l-.395-2.473c-2.63-20.446-.236-42.064 6.395-61.527.347-1.038.694-2.075 1.05-3.145 12.68-35.338 38.603-62.835 72.262-79.043C359.183 225.908 415.044 230.077 455 260m-153.988 50.293C290.879 322.403 284.232 335.836 280 351l-.746 2.613c-5.557 24.028.402 50.273 13.079 71.01 4.174 6.485 9.197 11.97 14.667 17.377l2.395 2.426c17.155 16.472 40.592 24.352 64.105 24.949 26.252-.667 49.627-11.217 68.688-29.125 18.016-18.966 27.514-44.2 27.058-70.305C467.624 343.938 457.458 322.2 439 304l-2.238-2.27c-17.742-16.94-42.352-24.3-66.423-24.15-26.352.706-51.875 12.884-69.327 32.713M271 26c4.163 3.496 8.087 7.228 12 11l2.176 1.984c6.29 5.9 11.059 12.877 15.824 20.016l1.91 2.832c17.32 27.578 22.05 63.958 14.93 95.545C311.842 181.122 299.917 201.45 283 219l-1.984 2.176c-5.9 6.29-12.877 11.059-20.016 15.824l-2.832 1.91c-27.578 17.32-63.958 22.05-95.545 14.93C139.427 247.981 119.234 236.5 102 220l-2.262-2.07C93.118 211.667 88.02 204.557 83 197l-1.906-2.828c-17.33-27.57-22.052-63.967-14.933-95.55C72.157 74.879 84.08 54.553 101 37l1.984-2.176c5.9-6.29 12.877-11.059 20.016-15.824l2.832-1.91C169.53-10.354 230.874-5.836 271 26M135 65l-2.309 2.02C118.418 80.353 107.851 101.412 107 121l-.156 3.031C106.23 146.745 113.97 167.914 129 185l2.02 2.309c13.333 14.273 34.392 24.84 53.98 25.691l3.031.156c22.714.614 43.883-7.126 60.969-22.156l2.309-2.02c14.273-13.333 24.84-34.392 25.691-53.98l.156-3.031C277.77 109.255 270.03 88.086 255 71l-2.02-2.309C239.647 54.418 218.588 43.851 199 43l-3.031-.156C173.255 42.23 152.086 49.97 135 65m48.422 237.73c4.18 3.364 6.9 7.141 8.578 12.27.644 6.678 1.082 13.37-3 19-6.107 7.328-13.597 9.42-22.687 10.813-38.097 6.678-72.348 27.782-94.875 59.375A317 317 0 0 0 67 411l-1.137 1.8c-14.332 23.106-21.145 49.062-22.175 76.075-.458 7.346-1.972 13.613-7.47 18.809-6.671 4.99-13.177 4.992-21.218 4.316-6.68-1.859-10.593-6.002-14.112-11.847-9.257-22.443 3.553-60.815 12.236-82.175 21.154-50.069 60.034-87.458 110.291-107.963 15.774-6.076 44.273-16.964 60.007-7.285"/><path fill="#FEFEFE" d="M341 317c4.31 2.586 7.768 5.53 11.293 9.098l1.432 1.44q2.238 2.258 4.462 4.524l3.022 3.05q2.768 2.791 5.526 5.591A849 849 0 0 0 372 346c4.082-1.617 6.805-4.543 9.813-7.625l1.618-1.634c2.875-2.925 5.623-5.906 8.257-9.053 8.661-9.909 8.661-9.909 15.496-11.368 5.744-.332 9.892.048 14.441 3.743 4.284 4.5 6.091 8.702 6.875 14.875-.674 14.049-20.206 27.888-29.5 37.062 1.183 2.548 2.105 4.105 4.125 6.125C405 380 405 380 405 382l4 2v2l1.688.688c7.367 4.181 14.7 13.358 17.312 21.312.686 5.944-.787 10.992-4 16l-3 1v2c-4.914 2.407-8.41 3.61-14 3-12.713-5.53-23.297-18.465-32-29-5.396.31-7.86 3.36-11.375 7.063l-1.745 1.787a186 186 0 0 0-8.692 9.587c-3.892 4.581-8.433 8.645-14.188 10.563-6.415.493-10.754-1.106-16.25-4.312-3.844-3.708-5.358-8.36-5.797-13.625.24-10.545 9.453-17.564 16.453-24.34l2.35-2.294q2.353-2.289 4.743-4.54l2.196-2.131 2-1.902c1.547-1.77 1.547-1.77 1.094-3.975-2.75-6.56-9.49-11.521-14.719-16.076-5.862-5.11-12.426-11.107-13.343-19.223-.254-6.913.646-11.338 5.273-16.582 5.041-4.918 11.29-5.188 18-4"/></svg>