<svg xmlns="http://www.w3.org/2000/svg" width="512" height="512"><path fill="#FFF" d="M301.715 293.082c5.04 3.453 10.163 6.776 15.285 10.106l5.957 3.878 3.026 1.97q5.908 3.847 11.812 7.702 13.311 8.685 26.64 17.344c6.423 4.173 12.838 8.357 19.252 12.543a7372 7372 0 0 0 19.688 12.813l1.986 1.287c4.238 2.74 8.491 5.454 12.752 8.158 40.191 25.52 40.191 25.52 46.496 45 2.458 13.32-.764 25.619-7.992 36.875-8.424 11.68-21.514 18.896-35.617 21.242-9.796.868-19.669.676-29.496.624-4.001-.015-8.002-.002-12.004.008-7.817.015-15.634.002-23.451-.02-9.117-.023-18.233-.021-27.35-.019-16.27.004-32.54-.017-48.81-.051q-23.65-.05-47.299-.041a33601 33601 0 0 1-59.843-.025q-9.519-.009-19.038-.006a7161 7161 0 0 1-23.21-.032c-3.942-.012-7.885-.019-11.827-.013q-5.424.006-10.848-.023c-1.913-.007-3.826 0-5.739.009-16.962-.133-31.38-5.487-43.448-17.477-3.845-4.278-6.38-8.67-8.637-13.934l-1.02-2.129c-4.06-9.773-3.127-22.363.637-32.062 6.795-13.8 18.372-21.425 31.07-29.372q3.332-2.107 6.66-4.218l3.372-2.133c4.995-3.176 9.953-6.408 14.906-9.649l8.532-5.578q7.168-4.684 14.343-9.359l5.75-3.75 34.5-22.5 2.876-1.876 5.736-3.74q8.787-5.73 17.57-11.465a4913 4913 0 0 1 5.84-3.803c4.36-2.835 8.71-5.68 13.029-8.577 30.475-20.33 58.162-18.094 87.914 2.293m-75.448 23.356c-4.363 3.006-8.822 5.866-13.267 8.75l-5.957 3.878-3.026 1.97q-5.907 3.847-11.812 7.702a15558 15558 0 0 1-26.647 17.348q-9.535 6.198-19.058 12.414-10.837 7.072-21.687 14.125l-2.454 1.595q-7.553 4.907-15.11 9.804-3.765 2.447-7.522 4.906a502 502 0 0 1-9.141 5.828C80.83 410.598 80.83 410.598 75 420c-.935 5.817.612 10.304 4 15 7.475 7.492 16.222 9.329 26.517 9.406 1.824-.01 1.824-.01 3.684-.018l3.975.016c3.62.014 7.24.01 10.86.003 3.912-.005 7.825.008 11.737.018 7.656.017 15.312.018 22.969.013a12382 12382 0 0 1 21.36.005l5.405.004c16.885.014 33.77.009 50.654-.003 15.438-.01 30.876.003 46.314.027q23.796.037 47.59.027c8.902-.003 17.803 0 26.705.017q11.365.022 22.731-.002c3.864-.009 7.727-.011 11.59.004 4.194.017 8.387.002 12.58-.016l3.679.03c8.582-.075 16.008-1.6 23.025-6.781 4.097-4.292 6.189-8.352 7.25-14.187-1.007-5.738-4.17-10.451-8.59-14.253-2.235-1.552-4.512-2.975-6.848-4.373l-5.386-3.363-2.865-1.76c-5.06-3.126-10.056-6.352-15.061-9.564l-3.167-2.023c-10.91-6.975-21.741-14.071-32.57-21.172-4.938-3.234-9.881-6.457-14.825-9.68-.936-.61-1.87-1.22-2.834-1.847l-5.64-3.676-8.683-5.664c-14.882-9.713-14.882-9.713-29.785-19.395a1489 1489 0 0 1-12.746-8.352l-2.695-1.776a906 906 0 0 1-5.046-3.353c-6.266-4.121-13.266-8.55-20.884-9.312l-1.879-.191c-12.52-.695-22.042 5.76-31.854 12.63M325.813 65.375C345.26 82.059 358.128 106.558 361 132c.634 13.805.947 27.653-3 41l-.602 2.04C352.912 189.823 346.083 202.21 336 214c-.44.56-.88 1.121-1.332 1.7-15.16 19.317-40.877 30.821-64.668 34.3-15.583.93-31.065.856-46-4l-1.96-.633c-26.7-8.979-47.484-27.984-60.763-52.554-12.576-25.733-14.557-54.648-5.616-81.822C160.066 98.416 166.422 87.18 175 77l1.984-2.426c37.898-44.467 105.321-45.178 148.829-9.199M197.688 93.313C182.228 111.869 177.328 132.4 179 156c2.308 18.736 12.896 37.05 27.414 49.098C216.917 212.824 227.36 217.804 240 221l2.348.605c21.03 3.129 40.934-1.725 58.48-13.503A86 86 0 0 0 312 198l1.797-1.781c14.674-15.243 19.8-35.307 19.473-55.977-.682-18.494-9.209-35.387-21.645-48.804L309 89l-1.957-1.867C291.063 72.3 271.687 67.27 250.332 67.69c-20.272.872-38.864 10.981-52.644 25.621"/></svg>