<svg xmlns="http://www.w3.org/2000/svg" width="512" height="512"><path fill="#FFF" d="m256.563 307.688 3.378-.114c10.644.615 19.561 6.163 28.184 11.926l3.302 2.16c3.201 2.098 6.39 4.215 9.573 6.34l2.543 1.692c2.937 1.956 5.872 3.913 8.8 5.882 5.637 3.781 11.354 7.427 17.094 11.051 9.793 6.187 19.442 12.572 29.054 19.033 5.268 3.538 10.55 7.027 15.963 10.34C383.199 381.37 389.5 387.18 393 397c1.37 11.196-.193 19.426-6.86 28.543-2.217 2.546-4.316 4.242-7.14 6.082l-2.562 1.727c-11.485 5.507-23.416 5.072-35.843 5.02q-3.07.004-6.139.011c-5.526.01-11.053 0-16.58-.013-5.797-.011-11.594-.007-17.392-.005q-14.595 0-29.19-.029a13816 13816 0 0 0-33.71-.018q-16.246.006-32.491-.011-6.902-.007-13.802-.004-8.127.003-16.255-.022-2.976-.006-5.953-.002c-2.716.003-5.431-.006-8.147-.018l-2.36.011c-10.607-.084-20.407-2.857-28.576-9.834-1.73-2.11-2.975-3.922-4-6.438h-2c-3.834-8.85-5.017-16.103-3.375-25.625 5.369-13.177 16.103-19.413 27.813-26.562 7.475-4.616 14.897-9.283 22.187-14.188l2.174-1.46 4.167-2.803A868 868 0 0 1 187 344.75l1.764-1.162C192.767 341 192.767 341 195 341v-2c1.005-.56 2.009-1.122 3.044-1.7 3.865-2.21 7.56-4.626 11.253-7.109l4.156-2.763c2.146-1.43 4.29-2.86 6.43-4.298 22.558-15.137 22.558-15.137 36.68-15.442M231.75 340.75a855 855 0 0 1-19.314 12.76c-6 3.843-11.959 7.748-17.914 11.66-8.552 5.617-17.109 11.226-25.71 16.767l-5.767 3.739q-2.226 1.44-4.457 2.875c-2.515 1.62-5.02 3.252-7.525 4.887l-2.355 1.505-2.173 1.428-1.925 1.248c-1.92 1.647-2.715 3.024-3.61 5.381 0 4.634.452 6.427 3.688 9.813 5.813 3.839 10.959 4.48 17.807 4.448l2.55.011c2.812.01 5.623.007 8.435.003l6.057.015c5.48.014 10.959.014 16.438.012q6.862 0 13.726.008 16.19.016 32.38.006c11.133-.006 22.267.006 33.4.027q14.342.026 28.684.02c5.71-.001 11.418.001 17.128.015q8.053.019 16.106-.002 2.955-.004 5.908.009c2.69.01 5.38.002 8.071-.01l2.355.022c5.73-.057 10.42-1.163 15.044-4.792 2.117-2.587 3.193-4.417 3.723-7.73-.546-3.142-1.256-4.63-3.5-6.875h-2v-2c-2.815-2.277-2.815-2.277-6-2v-2q-3.433-2.007-6.875-4l-1.973-1.156c-3.356-2.12-3.356-2.12-7.152-2.844v-2c-1.532-1.195-1.532-1.195-3.55-2.32l-2.29-1.36-2.473-1.445c-5.188-3.096-10.294-6.17-15.125-9.812-5.69-4.284-11.703-8.011-17.751-11.764-4.735-2.946-9.29-6.035-13.811-9.299-4.2-2.895-4.2-2.895-9-4v-2a91 91 0 0 0-6.062-3.937l-3.41-2.09c-15.902-9.183-25.695-2.866-39.778 6.777m165.68-102.238 2.095 1.329c6.838 4.353 13.62 8.795 20.386 13.26q5.236 3.451 10.476 6.895l2.044 1.345c6.828 4.491 13.688 8.93 20.557 13.36 4.784 3.09 9.556 6.198 14.33 9.305a3767 3767 0 0 0 13.221 8.568l2.74 1.77q2.59 1.675 5.187 3.343c11.13 7.2 11.13 7.2 14.721 12.688l1.481 2.21c3.79 6.871 4.315 13.725 3.332 21.415-3.555 10.577-9.346 17.294-19.125 22.375-5.479 2.661-10.137 3.74-16.213 3.786l-3.202.03-3.483.018-3.692.03q-6.045.043-12.09.07l-2.081.01q-9.724.047-19.447.074-12.414.031-24.828.133c-5.828.048-11.657.072-17.486.08-3.477.004-6.954.02-10.431.059-3.88.044-7.76.04-11.64.032l-3.47.06c-5.23-.047-8.78-.15-12.84-3.65l-1.5-1.583c-2.599-2.69-5.926-4.322-9.16-6.149C329.1 344.719 329.1 344.719 326 341v-2l2.326-.007q28.018-.089 56.036-.229 13.55-.07 27.098-.11 11.81-.034 23.62-.103 6.255-.037 12.506-.049 5.888-.01 11.775-.056 2.16-.014 4.317-.011a551 551 0 0 0 5.906-.036l3.335-.014c4.978-.622 8.169-2.38 11.519-6.072 2.12-4.495 1.836-6.535.562-11.313-1.663-1.458-1.663-1.458-4-2l-6-3v-2l-2.086-.738c-3.422-1.482-6.44-3.401-9.539-5.45l-3.742-2.44-1.862-1.22c-2.49-1.62-5.006-3.197-7.521-4.777a243 243 0 0 1-10.5-7.062 101 101 0 0 0-9.945-6.243c-2.157-1.279-4.149-2.724-6.18-4.195-4.572-3.263-9.325-6.077-14.187-8.875-5.499-3.171-10.611-6.45-15.536-10.477-3.12-2.498-6.423-4.565-9.902-6.523l-2.113-1.23c-6.096-3.173-11.28-3.834-17.887-1.77-5.63 2.905-10.779 6.426-16 10q-4.252 2.861-8.514 5.708a901 901 0 0 0-5.655 3.82l-2.604 1.761-2.326 1.585C327 277 327 277 325 277l-1 2a97 97 0 0 1-4.75 3.125l-3 1.875c-3.33 2.049-6.665 4.087-10 6.125-4.56 2.794-8.96 5.682-13.25 8.875l-2-1v-3l1.836-.777c7.231-3.305 12.495-7.706 18.164-13.223l2.625-2.375c7.781-8.6 13.098-18.172 17.742-28.734 5.296-9.376 20.738-16.374 30.82-19.328 13.255-1.956 24.021.729 35.243 7.949m-223.555 5.238 2.758 1.766c5.714 3.809 9.278 7.356 12.367 13.484l1.633 2.984 1.492 2.766c5.667 9.756 13.535 17.203 22.059 24.492 2.462 2.383 3.621 4.572 4.816 7.758l-2 1a86 86 0 0 1-6.5-3.5l-1.918-1.117c-4.475-2.641-8.744-5.493-12.957-8.535-3.148-2.216-6.376-4.284-9.625-6.348-4.152-2.641-8.24-5.331-12.25-8.187-4.767-3.379-9.698-6.383-14.75-9.313l-2.383-1.45c-6.275-3.711-11.936-5.383-19.344-4.234-9.164 2.756-17.433 9.716-25.328 15.04-3.888 2.617-7.817 5.168-11.757 7.707-8.41 5.422-16.786 10.897-25.158 16.376l-5.04 3.298a7261 7261 0 0 1-14.403 9.395q-2.922 1.905-5.84 3.818c-3.896 2.555-7.79 5.098-11.774 7.515-6.136 3.525-6.136 3.525-9.91 9.223-.075 3.958.355 5.327 2.937 8.312 5.735 5.297 11.953 4.575 19.44 4.546q2.057.014 4.112.031c3.708.028 7.416.031 11.125.03 3.88.004 7.759.03 11.639.052 7.341.041 14.683.061 22.024.074 8.36.016 16.72.055 25.081.095q25.79.121 51.579.172c0 4 0 4-1.441 5.57a219 219 0 0 1-4.587 3.266c-3.028 2.135-3.028 2.135-5.85 4.693-11.71 9.758-24.079 8.798-38.68 8.518q-3.84-.02-7.681-.029-8.008-.031-16.014-.154c-7.508-.114-15.015-.158-22.524-.19-5.865-.028-11.73-.077-17.594-.127l-3.759-.03c-3.517-.033-7.034-.08-10.551-.131l-3.129-.026c-7.624-.136-14.214-1.215-21.19-4.485l-2.312-1.07L19 356v-2h-2c-7.8-7.405-10.822-14.632-11.375-25.25.089-8.166 4.018-15.106 9.473-21.047C19.33 303.914 24.204 301.014 29 298a6572 6572 0 0 0 6.5-4.187l3.543-2.27c4.603-2.953 9.186-5.935 13.77-8.918a5527 5527 0 0 1 16.323-10.59c7.438-4.804 14.86-9.633 22.272-14.476l3.425-2.236c5.99-3.909 11.958-7.84 17.867-11.87 21.077-14.323 39.962-14.01 61.175.297m123.895-75.918A91 91 0 0 1 304 173l1.848 1.605c12.048 11.148 19.565 28.239 20.507 44.485.426 11.896-.794 21.92-5.355 32.91l-1.281 3.227c-3.717 8.362-9.287 14.426-15.719 20.773l-1.844 1.84c-13.91 12.853-31.9 16.99-50.297 17.195-18.642-1.117-35.786-11.044-48.297-24.535-13.013-15.687-18.05-34.354-16.562-54.5 2.223-16.984 10.513-33.248 23.691-44.246 26.983-20.595 58.525-22.81 87.079-3.922M220 192c-6.337 7.779-11.428 17.89-12 28l-.117 2.07c-.452 14.392 4.474 26.39 14.117 36.93 9.22 9.764 21.648 13.912 34.75 14.375 13.421-.231 24.951-5.36 34.875-14.25 10.073-10.503 13.913-23.674 13.652-37.914-.583-12.768-6.692-24.679-15.972-33.328C268.679 171.033 238.468 172.23 220 192M182 91c15.064 10.613 25.345 25.644 29.618 43.69.794 4.806.751 9.638.757 14.498l.074 3.232c.03 7.766.03 7.766-2.246 11.639-1.905 1.678-3.8 3.289-5.828 4.816-10.52 9.049-17.04 22.853-21.254 35.832-2.83 5.787-10.9 8.354-16.621 10.543-16.815 5.628-35.966 5.979-52.234-1.77-4.972-2.496-9.773-5.19-14.266-8.48v-2l-1.687-.687c-2.97-1.685-5.06-3.797-7.313-6.313l-1.852-2.023C81.561 185.158 75.292 173.717 74 162l-.398-3.574C71.812 139.478 75.539 122.363 87 107l1.219-1.969c8.621-13.248 26.282-21.209 41.16-24.568C147.807 77.209 166.395 80.756 182 91m-78.059 28.379C95.515 130.755 92.777 144.025 94.5 158c2.595 12.739 9.298 23.04 19.5 31 12.523 8.193 25.681 10.726 40.313 8 8.85-2.192 17.654-7.07 23.687-14v-2l1.738-.516c3.478-2.282 4.69-5.55 6.45-9.234l1.076-2.133c4.8-9.803 5.879-23.632 2.486-34.18A76 76 0 0 0 188 131l-.95-2.102c-3.411-7.201-7.422-13.294-14.05-17.898h-2v-2c-23.611-12.514-48.786-11.097-67.059 10.379M413.688 91.25Q415.359 92.607 417 94l2.426 1.82c11.9 10.077 19.593 26.876 21.574 42.18 1.42 19.43-3.06 39.011-16.03 54.03-11.773 12.822-25.66 21.229-42.97 23.97l-2.883.465c-13.462 1.632-26.928-.57-39.117-6.465l-2.215-1.016c-5.197-2.945-6.052-7.103-7.61-12.632-1.78-5.078-4.623-9.256-7.566-13.735C321 180 321 180 321 178h-2v-3h-2v-2l-3-1v-2l-1.687-.687c-2.955-1.677-4.981-3.859-7.313-6.313l-2-2c-4.645-16.19-.747-33.23 6.813-47.875 3.925-6.704 8.136-13.6 15.187-17.125l1-3c26.844-19.62 60.505-21.83 87.688-1.75m-77.551 21.36c-10.067 11.263-14.033 23.516-13.48 38.39.863 12.85 6.842 23.473 16.343 32l2.688 2.5c11.773 9.644 25.703 10.922 40.312 9.5 4.44-1.084 8.08-2.676 12-5l2.473-1.422C407.755 181.571 415.647 171.911 419 159c2.238-14.258.881-27.265-6.816-39.566L411 118h-2l-.312-1.937L408 114l-3-1v-2c-21.638-16.221-48.183-17.846-68.863 1.61"/></svg>