<svg xmlns="http://www.w3.org/2000/svg" width="512" height="512"><path fill="#FFF" d="m244.71-.238 2.562-.025q2.685-.02 5.371-.032 2.706-.018 5.41-.062c31.128-.512 53.814 13.634 78.822 30.67l5.704 3.866q5.856 3.969 11.708 7.944c7.803 5.298 15.624 10.572 23.445 15.846q6.164 4.159 12.327 8.32 11.476 7.749 22.957 15.492 6.383 4.306 12.765 8.617l2.468 1.668 4.835 3.267q6.623 4.473 13.262 8.926 3.85 2.583 7.696 5.176 2.533 1.701 5.072 3.393c26.43 17.826 45.003 41.023 51.93 72.54 1.665 9.402 1.252 19.01 1.247 28.525q.008 3.328.02 6.656c.017 6.004.022 12.009.024 18.013q.001 5.64.01 11.278.027 18.692.026 37.383v4.063c-.001 10.858.018 21.715.046 32.572q.043 16.778.04 33.556c0 6.265.006 12.53.027 18.794q.029 8.85.005 17.698-.003 3.227.015 6.455c.174 32.961-10.338 59.406-33.016 83.284-24.957 24.27-55.73 28.992-89.043 28.878-3.976-.01-7.951.005-11.927.016-7.764.018-15.528.014-23.292.002q-9.474-.013-18.949-.006l-2.735.002-5.503.004a27597 27597 0 0 1-51.472-.023q-22.03-.026-44.061.003a26023 26023 0 0 1-59.507.012q-9.45-.003-18.902.012-11.535.018-23.069-.013c-3.915-.01-7.83-.015-11.745-.001-36.246.113-64.327-7.778-90.928-33.043-22.078-22.704-29-51.501-28.873-82.175q-.008-3.33-.02-6.66c-.019-5.975-.012-11.95 0-17.925.01-6.286.001-12.571-.005-18.857-.008-11.224.005-22.449.025-33.673q.025-15.21-.003-30.417-.034-17.74-.018-35.48c.006-6.241.007-12.482-.006-18.723q-.017-8.806.02-17.612.008-3.21-.006-6.421C-.646 180.854 8.21 154.809 29 132l1.73-1.98c10.205-11.045 24.524-18.925 36.954-27.157C76.493 97.027 85.244 91.104 94 85.188l30.957-20.91 2.466-1.666q6.155-4.155 12.312-8.304a4831 4831 0 0 0 23.828-16.148q5.782-3.944 11.573-7.877 2.75-1.873 5.494-3.756c8.656-5.939 17.306-11.731 26.577-16.675l2.001-1.07c11.071-5.7 23.077-8.906 35.503-9.02m-37.124 61.784a1772 1772 0 0 1-12.434 8.427l-2.41 1.623-4.99 3.363q-6.544 4.413-13.084 8.834a68439 68439 0 0 1-35.61 24.044 51197 51197 0 0 1-23.172 15.635l-15.874 10.705a4247 4247 0 0 0-24.828 16.835l-1.96 1.334C57.755 162.964 48.569 175.87 44 194c-.912 5.298-1.148 10.39-1.147 15.744l-.011 2.595q-.015 4.286-.019 8.57l-.02 6.163c-.02 6.735-.031 13.47-.041 20.205l-.013 6.975q-.029 16.389-.041 32.779-.015 18.874-.077 37.748-.044 14.618-.048 29.234c-.002 5.811-.011 11.622-.036 17.433a2672 2672 0 0 0-.018 16.422q.001 2.996-.02 5.993C42.364 416.365 46.685 435.355 63 452c19.603 16.863 40.233 17.679 65 17l.113-2.937c1.659-36.246 16.107-67.806 42.692-92.688 27.882-24.18 61.74-33.346 98.195-31.375 28.815 2.312 54.732 16.026 76 35l2.027 1.805C371.752 402.19 382.404 435.905 384 469c25.04.686 45.485-.07 65.238-17.293 13.6-13.331 19.933-30.749 20.263-49.547.035-3.708.02-7.415 0-11.123q.007-3.088.017-6.176c.014-5.543.003-11.086-.014-16.63-.014-5.826-.007-11.653-.003-17.48q.002-14.67-.034-29.338a9946 9946 0 0 1-.017-33.83q.014-16.334-.01-32.667-.007-6.924 0-13.848.006-8.164-.028-16.326-.008-2.982 0-5.962c.05-22.951-4.152-41.88-20.416-58.874-3.446-3.165-7.212-5.763-11.113-8.336a2181 2181 0 0 1-15.399-10.308l-2.327-1.572-7.407-5.002-16.299-11.007-15.56-10.505-2.482-1.675-12.367-8.347a60020 60020 0 0 1-28.24-19.072q-10.058-6.794-20.124-13.575a3021 3021 0 0 1-12.391-8.394q-2.527-1.72-5.058-3.43a977 977 0 0 1-5.766-3.93c-30.367-20.453-58.617-12.614-86.877 6.793m-11.154 346.88C179.388 425.324 172.68 445.48 171 469h170c-1.815-25.408-9.743-45.462-28.187-63.25C302.5 396.818 291.053 390.857 278 387l-2.383-.707c-28.244-7.243-58.416 2.39-79.185 22.132"/><path fill="#FFF" d="M307 165c3.465 2.873 6.747 5.892 10 9l1.898 1.672c14.645 13.386 22.299 35.148 23.262 54.555.587 24.249-7.108 45.121-22.848 63.523-15.782 16.562-37.091 26.095-59.893 26.72-25.941.221-47.23-8.015-66.005-25.939-15.69-16.493-23.222-37.635-23.789-60.094.618-24.346 9.87-45.908 27.28-62.93C226.585 143.866 274.303 140.49 307 165m-85.43 44.754c-6.986 9.993-8.464 20.3-7.57 32.246 1.626 7.85 4.672 14.045 10 20l2.313 2.625c8.944 7.904 19.853 13.355 32.09 12.758 13.367-1.97 22.793-7.754 31.66-17.695 7.065-9.802 8.779-19.73 7.937-31.688-1.93-11.53-8.649-21.472-17.906-28.434-1.982-1.325-3.977-2.471-6.094-3.566l-1.875-.973c-18.552-7.79-38.307.115-50.555 14.727"/></svg>