<svg xmlns="http://www.w3.org/2000/svg" width="512" height="512"><path fill="#FFF" d="m455 260 2.645 1.973C470.649 272.16 482.2 283.996 491 298l1.178 1.861c18.578 29.853 25.602 69.002 17.652 103.439A230 230 0 0 1 508 410l-.601 2.23C502.382 430.528 493.39 447.64 481 462l-2.379 2.762c-19.5 22.074-43.17 36.455-71.621 44.238l-2.04.578c-19.332 5.216-45.75 4.929-64.96-.578l-2.463-.7c-23.659-6.932-43.894-18.056-61.537-35.3l-2.578-2.39C251.96 450.226 239.436 421.992 235 393l-.395-2.473c-2.63-20.446-.236-42.064 6.395-61.527.347-1.038.694-2.075 1.05-3.145 12.68-35.338 38.603-62.835 72.262-79.043C359.183 225.908 415.044 230.077 455 260m-153.988 50.293C290.879 322.403 284.232 335.836 280 351l-.746 2.613c-5.557 24.028.402 50.273 13.079 71.01 4.174 6.485 9.197 11.97 14.667 17.377l2.395 2.426c17.155 16.472 40.592 24.352 64.105 24.949 26.252-.667 49.627-11.217 68.688-29.125 18.016-18.966 27.514-44.2 27.058-70.305C467.624 343.938 457.458 322.2 439 304l-2.238-2.27c-17.742-16.94-42.352-24.3-66.423-24.15-26.352.706-51.875 12.884-69.327 32.713M271 26c4.163 3.496 8.087 7.228 12 11l2.176 1.984c6.29 5.9 11.059 12.877 15.824 20.016l1.91 2.832c17.32 27.578 22.05 63.958 14.93 95.545C311.842 181.122 299.917 201.45 283 219l-1.984 2.176c-5.9 6.29-12.877 11.059-20.016 15.824l-2.832 1.91c-27.578 17.32-63.958 22.05-95.545 14.93C139.427 247.981 119.234 236.5 102 220l-2.262-2.07C93.118 211.667 88.02 204.557 83 197l-1.906-2.828c-17.33-27.57-22.052-63.967-14.933-95.55C72.157 74.879 84.08 54.553 101 37l1.984-2.176c5.9-6.29 12.877-11.059 20.016-15.824l2.832-1.91C169.53-10.354 230.874-5.836 271 26M135 65l-2.309 2.02C118.418 80.353 107.851 101.412 107 121l-.156 3.031C106.23 146.745 113.97 167.914 129 185l2.02 2.309c13.333 14.273 34.392 24.84 53.98 25.691l3.031.156c22.714.614 43.883-7.126 60.969-22.156l2.309-2.02c14.273-13.333 24.84-34.392 25.691-53.98l.156-3.031C277.77 109.255 270.03 88.086 255 71l-2.02-2.309C239.647 54.418 218.588 43.851 199 43l-3.031-.156C173.255 42.23 152.086 49.97 135 65m48.422 237.73c4.18 3.364 6.9 7.141 8.578 12.27.644 6.678 1.082 13.37-3 19-6.107 7.328-13.597 9.42-22.687 10.813-38.097 6.678-72.348 27.782-94.875 59.375A317 317 0 0 0 67 411l-1.137 1.8c-14.332 23.106-21.145 49.062-22.175 76.075-.458 7.346-1.972 13.613-7.47 18.809-6.671 4.99-13.177 4.992-21.218 4.316-6.68-1.859-10.593-6.002-14.112-11.847-9.257-22.443 3.553-60.815 12.236-82.175 21.154-50.069 60.034-87.458 110.291-107.963 15.774-6.076 44.273-16.964 60.007-7.285"/><path fill="#FFF" d="M432.25 339.668c4.955 3.772 8.487 8.143 9.75 14.332.54 6.688-.216 12.403-4.424 17.84-4.515 5.07-9.2 9.935-14.014 14.723l-2.158 2.17c-3.402 3.396-6.84 6.69-10.486 9.826-3.309 2.849-6.335 5.875-9.345 9.036-11.672 12.196-23.218 19.303-40.573 19.78-16.086-.408-26.721-6.412-38-17.375l-2.152-2.074c-2.44-2.36-4.865-4.734-7.286-7.113l-2.406-2.341c-4.8-4.774-8.632-8.67-9.59-15.62-.008-6.713.035-12.49 4.434-17.852 5.435-4.987 9.743-7.147 17.188-7.312l3.292-.114c10.97 1.327 17.145 9.822 24.274 17.512l2.566 2.68 2.29 2.462c2.304 1.97 2.304 1.97 5.322 2.363 4.086-.787 6.1-2.882 8.841-5.814l1.599-1.63a558 558 0 0 0 5.003-5.21c2.19-2.266 4.388-4.525 6.586-6.785l1.599-1.653a151 151 0 0 1 10.786-10.065c2.398-2.079 4.542-4.376 6.716-6.684 8.19-8.177 19.625-11.31 30.188-5.082"/></svg>