<svg xmlns="http://www.w3.org/2000/svg" width="512" height="512"><path fill="#FFF" d="M292 285c2.46 1.707 4.904 3.436 7.35 5.164 4.359 3.02 8.849 5.827 13.337 8.649 7.029 4.443 14.011 8.937 20.913 13.576 6.644 4.461 13.375 8.787 20.1 13.125 4.106 2.653 8.203 5.32 12.3 7.986a7298 7298 0 0 0 20.549 13.327q5.81 3.765 11.639 7.501l5.312 3.422 2.463 1.572c11.556 7.461 22.09 15.014 25.6 29.053 1.724 10.346.451 20.1-5.106 29.133-8.24 11.125-18.724 18.024-32.457 20.492-3.781.282-7.549.283-11.34.274l-3.403.016c-3.754.015-7.509.016-11.263.016q-4.044.012-8.088.026c-7.319.022-14.637.03-21.956.035q-6.863.006-13.727.017c-12.687.02-25.374.036-38.06.04h-2.458l-4.932.001h-2.472l-2.476.001c-13.226.004-26.453.03-39.68.068q-20.402.057-40.806.058c-7.628 0-15.256.009-22.883.038q-9.747.038-19.492.017-4.964-.013-9.928.016c-18.639.106-34.546-.375-49.036-13.623-8.294-8.728-12.429-18.536-12.207-30.582 1.005-11.74 7.636-20.915 16.445-28.363 4.66-3.468 9.603-6.457 14.563-9.473 4.077-2.484 8.052-5.102 12.011-7.77a657 657 0 0 1 15.426-10.066c12.33-7.796 24.528-15.799 36.742-23.774q8.68-5.667 17.364-11.326 7.438-4.847 14.863-9.712l3.098-2.028q2.905-1.902 5.808-3.808C242.43 270.885 264.593 267.187 292 285m-57.074 19.867c-3.515 2.562-7.14 4.91-10.801 7.258l-4.453 2.867-2.318 1.491c-4 2.578-7.99 5.173-11.979 7.767l-2.503 1.627c-6.524 4.243-13.042 8.495-19.56 12.748a5564 5564 0 0 1-21.82 14.172 5313 5313 0 0 0-20.949 13.634c-4.508 2.943-9.018 5.88-13.543 8.796l-2.318 1.494q-2.095 1.348-4.192 2.691c-9.604 5.623-9.604 5.623-15.49 14.588-.521 4.168-.322 6.357 1.563 10.125 4.98 5.874 9.813 8.513 17.437 9.875 3.656.276 7.297.275 10.962.26l3.28.012c3.617.01 7.233.007 10.85.003l7.792.015q9.474.018 18.947.012a13101 13101 0 0 1 22.084.01q20.897.014 41.795.003c12.736-.006 25.471.006 38.207.025q19.635.03 39.268.024c7.344-.002 14.687 0 22.031.014q10.357.019 20.716-.002 3.8-.004 7.598.009c3.46.01 6.92.002 10.381-.01l3.029.022c8.573-.066 16.344-1.774 23.06-7.397 2.438-3.114 3.856-6.12 4.5-10.062-1.087-6.385-4.554-9.162-9.562-12.875-5.536-3.867-11.217-7.48-16.938-11.063q-3.315-2.12-6.625-4.25l-1.794-1.155L368 364l-1.816-1.169c-11.065-7.125-22.072-14.337-33.078-21.552a13880 13880 0 0 0-23.731-15.529l-2.704-1.767q-6.64-4.334-13.339-8.58c-5.013-3.183-9.942-6.474-14.834-9.839-14.834-10.032-28.552-11.863-43.572-.697M289 80l2.176.991c9.1 4.273 17.38 9.19 24.824 16.009l2.25 1.973c16.359 15.194 25.83 37.099 27.133 59.246.78 23.196-6.246 45.307-21.695 62.969A269 269 0 0 1 319 226l-2.523 2.559c-17.634 16.987-40.77 24.194-64.938 23.777-24.157-1.033-45.504-12.343-62.152-29.527-6.231-7.333-11.65-15.94-15.387-24.809l-1.273-2.82c-8.42-20.586-7.502-44.873.636-65.368 3.723-8.865 8.449-16.467 14.637-23.812l1.871-2.277C212.617 76.949 256.384 65.099 289 80m-80 39-1.926 1.86c-11.629 12.067-15.603 28.277-15.494 44.566.521 17.742 7.957 32.98 20.42 45.574 13.318 10.868 27.141 16.424 44.375 16.313l2.785-.018c16.844-.3 30.654-6.675 42.84-18.295 12.166-12.942 18.805-28.028 18.563-45.875l-.032-3.454c-.221-8.805-1.41-15.784-5.531-23.671l-1.645-3.219c-9.033-16.475-22.875-27.175-40.855-32.594-23.555-5.315-46.584 1.688-63.5 18.813"/></svg>